<svg width="1099" height="502" viewBox="0 -1 1099 502" xmlns="http://www.w3.org/2000/svg"><g fill="none" fill-rule="evenodd"><path fill="#81BDB5" d="M27.65 439.169v55.61H8.166v5.909h33.347v-61.52zM90.778 413.805v79.766H49.163v7.116h55.478v-86.882z"/><path stroke="#FEFEFE" d="M41.894 493.57H97.37v-85.674H41.894z"/><path stroke="#FEFEFE" d="M41.894 493.571H97.37v-9.846H41.894zM64.044 488.649H75.22M41.894 413.804H97.37v-5.908H41.894zM.896 494.78h33.348v-6.346H.896z"/><path stroke="#FEFEFE" d="M.896 494.78h33.348v-59.974H.896zM13.659 491.605h7.826"/><path stroke="#FEFEFE" d="M.896 439.169h33.348v-4.363H.896zM89.19 432.785l-27.987 27.946-14.544-14.525-4.731 4.723M15.226 480.538l19.018-18.99"/><path fill="#81BDB5" d="M687.8 166.9v296.585H583.885v31.517h177.848V166.9zM1024.482 31.628v425.417H802.536v37.954h295.88V31.629z"/><path stroke="#FEFEFE" d="M763.766 457.04h295.88V.112h-295.88z"/><path stroke="#FEFEFE" d="M763.766 457.046h295.88v-52.514h-295.88zM881.9 430.792h59.611M763.766 31.623h295.88V.113h-295.88zM545.112 463.49h177.855v-33.84H545.112z"/><path stroke="#FEFEFE" d="M545.112 463.49h177.855V143.63H545.112zM613.18 446.562h41.739"/><path stroke="#FEFEFE" d="M545.112 166.899h177.855v-23.27H545.112zM1016.012 132.856L866.749 281.9l-77.57-77.47-25.23 25.192M621.539 387.533l101.43-101.28"/></g></svg>