<svg width="1011" height="506" viewBox="-1 -1 1011 506" xmlns="http://www.w3.org/2000/svg"><g fill="none" fill-rule="evenodd"><path fill="#81BDB5" d="M672.82 470.054V335.121l89.336-140.48h33.82l-89.329 140.48v134.933zM972.66 470.054V335.121l-89.328-140.48h-33.82l89.322 140.48v134.933zM767.76 158.669h115.107V97.751H767.76zM808.845 94.944h32.93V14.828h-32.93z"/><path fill="#81BDB5" d="M808.761 249.134v12.506H645.07V287H808.76v12.507h33.82V287h164.31V261.64H842.58v-12.506z"/><path stroke="#FEFEFE" stroke-width="1.002" d="M645.07 457.95V323.019l89.335-140.48h33.82l-89.329 140.48V457.95zM939.335 457.95V323.019l-89.329-140.48h-33.82l89.322 140.48V457.95zM922.8 460.65v36.94M661.35 460.65v36.94"/><path stroke="#FEFEFE" stroke-width="1.002" d="M624 274.897v-25.36h67.946l-16.13 25.36zM960.52 274.897v-25.36h-67.99l16.117 25.36zM709.728 274.897l16.141-25.36h49.178v25.36zM874.97 274.897l-16.136-25.36h-49.961v25.36zM734.407 182.536h115.106V97.75H734.407zM775.492 97.421h32.936V0h-32.936z"/><path stroke="#FEFEFE" stroke-width="1.002" d="M775.05 287.402h33.826v-50.373H775.05z"/><g><path fill="#81BDB5" d="M9.966 498.448v-25.3l16.75-26.34h6.342l-16.75 26.34v25.3zM66.186 498.448v-25.3l-16.749-26.34h-6.341l16.748 26.34v25.3zM27.768 440.063H49.35V428.64H27.768zM35.471 428.114h6.174v-15.021h-6.174z"/><path fill="#81BDB5" d="M35.455 457.025v2.345H4.763v4.755h30.692v2.345h6.342v-2.345h30.807v-4.755H41.797v-2.345z"/><path stroke="#FEFEFE" stroke-width="1.002" d="M4.763 496.178v-25.3l16.75-26.34h6.342l-16.75 26.34v25.3zM59.938 496.178v-25.3l-16.75-26.34h-6.34l16.747 26.34v25.3zM56.837 496.684v6.926M7.816 496.684v6.926"/><path stroke="#FEFEFE" stroke-width="1.002" d="M.813 461.856V457.1h12.74l-3.025 4.755zM63.91 461.856V457.1H51.162l3.022 4.755zM16.886 461.856l3.027-4.755h9.22v4.755zM47.87 461.856l-3.026-4.755h-9.368v4.755zM21.514 444.538h21.582V428.64H21.514zM29.217 428.579h6.176v-18.266h-6.176z"/><path stroke="#FEFEFE" stroke-width="1.002" d="M29.134 464.2h6.343v-9.445h-6.343z"/></g></g></svg>