<svg width="1086" height="501" viewBox="0 -1 1086 501" xmlns="http://www.w3.org/2000/svg"><g fill="none" fill-rule="evenodd"><path fill="#81BDB5" d="M1052.51 105.327v273.648H732.943v30.79h208.164l87.513 79.667v-79.667h57.147V105.327z"/><path fill="#81BDB5" d="M908.896 30.869v273.654H589.321v30.79h57.147v79.668l87.507-79.668h208.17V30.869z"/><path stroke="#FEFEFE" d="M700.723 304.521l-87.5 79.662V304.52zM621.77 100.432h225.078M621.77 175.152h186.141"/><path stroke="#FEFEFE" d="M908.896 74.53v229.99H699.693v74.454h352.818V74.53z"/><path stroke="#FEFEFE" d="M556.074 304.522h352.824V.072H556.074zM908.896 174.882h81.567M908.896 249.596h42.637M907.858 378.972l87.5 79.667v-79.667z"/><path fill="#81BDB5" d="M93.596 427.624v51.309h-59.92v5.773h39.031l16.409 14.938v-14.938h10.715v-57.082z"/><path fill="#81BDB5" d="M66.668 413.663v51.31H6.748v5.773h10.715v14.938l16.407-14.938h39.032v-57.083z"/><path stroke="#FEFEFE" d="M27.636 464.973l-16.407 14.936v-14.936zM12.832 426.706h42.202M12.832 440.716h34.901"/><path stroke="#FEFEFE" d="M66.668 421.85v43.122H27.442v13.96h66.154V421.85z"/><path stroke="#FEFEFE" d="M.514 464.973h66.154v-57.084H.514zM66.668 440.665h15.294M66.668 454.674h7.995M66.473 478.932L82.88 493.87v-14.938z"/></g></svg>