<svg width="182" height="182" viewBox="0 0 182 182" xmlns="http://www.w3.org/2000/svg" xmlns:xlink="http://www.w3.org/1999/xlink"><defs><path id="a" d="M0 181.097h181.097V0H0z"/></defs><g fill="none" fill-rule="evenodd"><path stroke="#3D9B8E" stroke-linecap="round" stroke-linejoin="round" d="M40.45 51.673H9.044l3.266-36.882h24.871z"/><path stroke="#3D9B8E" stroke-linecap="round" stroke-linejoin="round" d="M11.998 18.333h25.499l-.314-3.542H12.311z"/><path d="M29.77 14.791v-3.468a5.27 5.27 0 1 0-10.543 0v2.966l10.543.502z" stroke="#3D9B8E" stroke-linecap="round" stroke-linejoin="round"/><mask id="b" fill="#fff"><use xlink:href="#a"/></mask><path stroke="#3D9B8E" stroke-linecap="round" stroke-linejoin="round" mask="url(#b)" d="M18.291 121.165h63.306v-4.686H18.291zm-4.97 50.104h73.247v-3.441H13.321zm70.561-26.718v23.277H16.008v-23.277"/><path stroke="#3D9B8E" stroke-linecap="round" stroke-linejoin="round" mask="url(#b)" d="M76.321 137.918v-2.125l-6.012-14.629m-7.174 16.754v-2.125l-3.83-14.629m-35.739 16.754v-2.125l6.015-14.629m7.174 16.754v-2.125l3.829-14.629m9.362 16.754v-16.754"/><path d="M10.378 135.793v2.125c0 3.662 2.953 6.633 6.594 6.633 3.643 0 6.594-2.97 6.594-6.633 0 3.662 2.954 6.633 6.595 6.633 3.643 0 6.594-2.97 6.594-6.633 0 3.662 2.953 6.633 6.596 6.633 3.642 0 6.595-2.97 6.595-6.633 0 3.662 2.952 6.633 6.594 6.633 3.642 0 6.595-2.97 6.595-6.633 0 3.662 2.95 6.633 6.594 6.633 3.64 0 6.592-2.97 6.592-6.633 0 3.662 2.953 6.633 6.596 6.633 3.643 0 6.594-2.97 6.594-6.633v-2.125H10.378z" stroke="#3D9B8E" stroke-linecap="round" stroke-linejoin="round" mask="url(#b)"/><path stroke="#3D9B8E" stroke-linecap="round" stroke-linejoin="round" mask="url(#b)" d="M89.51 135.793l-7.913-14.629H18.29l-7.913 14.63m122.611-118.85h38.679V11.77h-38.679zm8.352-7.889v5.043m7.411-5.043v5.043m7.412-5.043v5.043m7.41-5.043v5.043m-25.923 7.891h4.36m3.8 0h4.359m4.576 0h4.36m3.8 0h4.36m-29.615 5.497h4.36m3.8 0h4.359m4.576 0h4.36m3.8 0h4.36m-29.615 5.499h4.36m3.8 0h4.359m4.576 0h4.36m3.8 0h4.36"/><path stroke="#3D9B8E" stroke-linecap="round" stroke-linejoin="round" mask="url(#b)" d="M132.988 38.936h38.679V16.944h-38.679zm29.425 17.932l-1.44 15.25m8.394-15.25l-1.44 15.25m4.867-11.101h-15.248m15.248 6.953h-15.248m8.228 94.251l2.925 2.926-2.925 2.924"/><path stroke="#3D9B8E" stroke-linecap="round" stroke-linejoin="round" mask="url(#b)" d="M168.7 165.147h-10.633v6.896h13.791V158.25h-13.79m-29.188-.182a2.638 2.638 0 0 0-3.732 0l-2.01 2.008-2.01-2.008a2.638 2.638 0 1 0-3.732 3.732l5.742 5.743 5.742-5.743a2.64 2.64 0 0 0 0-3.732zM80.456 30.51l-5.464-5.053-1.489 5.052zm-16.99-5.053L58 30.51h6.954z"/><path stroke="#3D9B8E" stroke-linecap="round" stroke-linejoin="round" mask="url(#b)" d="M73.503 30.51l1.489-5.053H63.466l1.489 5.052zm0 0l-4.274 14.5 11.227-14.5z"/><path stroke="#3D9B8E" stroke-linecap="round" stroke-linejoin="round" mask="url(#b)" d="M64.955 30.51l4.273 14.501 4.275-14.502z"/><path stroke="#3D9B8E" stroke-linecap="round" stroke-linejoin="round" mask="url(#b)" d="M58.001 30.51l11.228 14.5-4.274-14.5zm60.589-18.952a7.086 7.086 0 1 1-14.168-.002 7.086 7.086 0 0 1 14.169.002zm-14.17 0H89.427m82.361 104.096a9.802 9.802 0 0 1-2.343 2.416c.01.135.015.338.015.606 0 1.253-.184 2.505-.55 3.754a13.518 13.518 0 0 1-1.67 3.594 14.15 14.15 0 0 1-2.669 3.046c-1.033.88-2.277 1.586-3.732 2.11-1.456.527-3.014.788-4.672.788-2.613 0-5.004-.7-7.174-2.096.338.038.713.057 1.128.057 2.17 0 4.103-.665 5.801-1.994a4.559 4.559 0 0 1-2.72-.934 4.56 4.56 0 0 1-1.649-2.307c.32.048.612.073.883.073a4.75 4.75 0 0 0 1.23-.16 4.615 4.615 0 0 1-2.685-1.611c-.709-.856-1.062-1.846-1.062-2.975v-.058a4.634 4.634 0 0 0 2.111.594 4.649 4.649 0 0 1-1.517-1.663 4.534 4.534 0 0 1-.565-2.226c0-.85.211-1.635.635-2.36a13.283 13.283 0 0 0 4.26 3.45 13.066 13.066 0 0 0 5.374 1.44 5.294 5.294 0 0 1-.117-1.071c0-1.291.458-2.393 1.368-3.305.911-.911 2.013-1.366 3.304-1.366 1.351 0 2.49.49 3.414 1.474a9.171 9.171 0 0 0 2.966-1.128c-.356 1.11-1.042 1.967-2.053 2.575a9.309 9.309 0 0 0 2.69-.723zM28.884 85.76c0 6.803-5.514 12.317-12.317 12.317-6.804 0-12.318-5.514-12.318-12.317s5.514-12.318 12.318-12.318c6.803 0 12.317 5.515 12.317 12.318z"/><path d="M16.566 73.442V85.76l8.71-8.711a12.284 12.284 0 0 0-8.71-3.607z" stroke="#3D9B8E" stroke-linecap="round" stroke-linejoin="round" mask="url(#b)"/><path d="M25.276 77.05l-8.71 8.71h12.317a12.28 12.28 0 0 0-3.607-8.71zm100.291 59.144h-17.056l-2.21-13.648h21.476z" stroke="#3D9B8E" stroke-linecap="round" stroke-linejoin="round" mask="url(#b)"/><path stroke="#3D9B8E" stroke-linecap="round" stroke-linejoin="round" mask="url(#b)" d="M125.52 136.46l3.314-20.476h5.694m-9.541 24.622a2.61 2.61 0 1 1-5.22 0 2.61 2.61 0 0 1 5.22 0zm-10.545 0a2.611 2.611 0 0 1-5.22 0 2.61 2.61 0 0 1 5.22 0z"/><path stroke="#3D9B8E" stroke-linecap="round" stroke-linejoin="round" mask="url(#b)" d="M108.05 133.337l.462 2.856h17.056l.462-2.856zm1.486-101.428v3.25h-1.933c-.706 0-1.182.145-1.428.441-.246.294-.369.74-.369 1.33v2.327h3.607l-.48 3.644h-3.127v9.345h-3.768V42.9H98.9v-3.643h3.14v-2.682c0-1.528.427-2.713 1.28-3.553.854-.841 1.99-1.263 3.41-1.263 1.207 0 2.142.05 2.807.15z"/><path stroke="#3D9B8E" stroke-linecap="round" stroke-linejoin="round" mask="url(#b)" d="M102.038 52.246h3.768V48.43h-3.768zm-8.993 15.585H49.5v24.91h5.249v7.427l7.428-7.428h30.867z"/><path stroke="#3D9B8E" stroke-linecap="round" stroke-linejoin="round" mask="url(#b)" d="M58.174 96.738h6.154v7.429l7.427-7.43h25.288V71.83h-3.998v20.91H62.178zM55.59 78.9h21.02m-21.02 4.603h12.78M49.501 71.828h43.544v-3.997H49.501z"/><path stroke="#3D9B8E" stroke-linecap="round" stroke-linejoin="round" mask="url(#b)" d="M93.045 75.284h3.998v-3.455h-3.998zm29.724 17.529l7.383 4.033 18.375-10.568v-8.401l-16.295-5.56 3.14 7.935 5.092 2.334-10.27 5.984V62.813l-7.425-2.674z"/><path stroke="#3D9B8E" stroke-linecap="round" stroke-linejoin="round" mask="url(#b)" d="M130.194 68.195v-5.382l-7.426-2.674v8.056z"/></g></svg>