<svg width="189" height="193" viewBox="0 0 189 193" xmlns="http://www.w3.org/2000/svg" xmlns:xlink="http://www.w3.org/1999/xlink"><defs><path id="a" d="M0 191.984h188.415V.604H0z"/></defs><g fill="none" fill-rule="evenodd"><path fill="#41A89B" d="M38.062 147.854H49.08v-33.85H38.06zm33.757 0h11.018v-40.65H71.82zm33.757 0h11.019V93.61h-11.019zm33.756 0h11.02V46.275h-11.02z"/><path stroke="#221F20" d="M40.938 85.205H7.118l3.518-41.627h26.785z"/><path fill="#C7DEDA" d="M10.298 47.576H37.76l-.338-3.999H10.636z"/><path stroke="#221F20" d="M10.298 47.576H37.76l-.338-3.999H10.636z"/><g transform="translate(0 .412)"><path d="M29.437 43.165V39.25c0-3.285-2.541-5.948-5.676-5.948-3.135 0-5.677 2.663-5.677 5.948v3.348l11.353.567zm149.327 86.817h-18.367l-2.38-15.405h23.127z" stroke="#221F20"/><path stroke="#221F20" d="M178.713 130.282l3.571-23.11h6.13m-10.274 27.79c0 1.627-1.257 2.946-2.81 2.946-1.553 0-2.812-1.319-2.812-2.946 0-1.627 1.26-2.946 2.812-2.946 1.553 0 2.81 1.319 2.81 2.946zm-11.356 0c0 1.627-1.258 2.946-2.81 2.946-1.554 0-2.813-1.319-2.813-2.946 0-1.627 1.26-2.946 2.812-2.946 1.553 0 2.81 1.319 2.81 2.946z"/><mask id="b" fill="#fff"><use xlink:href="#a"/></mask><path fill="#C7DEDA" mask="url(#b)" d="M60.146 74.785h68.176v-5.288H60.146z"/><path stroke="#221F20" mask="url(#b)" d="M60.146 74.785h68.176v-5.288H60.146zm-5.352 56.553h78.88v-3.886h-78.88zm75.988-30.158v26.272H57.686V101.18m64.954-7.485v-2.399l-6.475-16.51m-7.727 18.909v-2.399l-4.122-16.51M65.827 93.695v-2.399l6.478-16.51m7.725 18.909v-2.399l4.123-16.51m10.082 18.909v-18.91"/><path d="M51.624 91.296v2.398c0 4.135 3.18 7.486 7.1 7.486 3.924 0 7.103-3.351 7.103-7.486 0 4.135 3.18 7.486 7.102 7.486s7.102-3.351 7.102-7.486c0 4.135 3.18 7.486 7.102 7.486s7.102-3.351 7.102-7.486c0 4.135 3.178 7.486 7.1 7.486 3.923 0 7.103-3.351 7.103-7.486 0 4.135 3.178 7.486 7.1 7.486 3.923 0 7.102-3.351 7.102-7.486 0 4.135 3.181 7.486 7.103 7.486 3.922 0 7.101-3.351 7.101-7.486v-2.398h-85.22zm85.22 0l-8.522-16.51H60.145l-8.521 16.51" stroke="#221F20" mask="url(#b)"/><path fill="#C7DEDA" mask="url(#b)" d="M85.664 9.506h41.653v-5.84H85.664z"/><path stroke="#221F20" stroke-linecap="round" stroke-linejoin="round" mask="url(#b)" d="M85.664 9.506h41.653v-5.84H85.664z"/><path d="M94.659.603v5.692M102.64.603v5.692m7.98-5.692v5.692m7.982-5.692v5.692M90.683 15.2h4.696m4.091 0h4.697m4.927 0h4.696m4.091 0h4.696m-31.894 6.205h4.696m4.091 0h4.697m4.927 0h4.696m4.091 0h4.696m-31.894 6.207h4.696m4.091 0h4.697m4.927 0h4.696m4.091 0h4.696m-36.913 6.717h41.653V9.506H85.664zM5.242 101.297L3.69 118.51m9.041-17.213l-1.553 17.212m5.244-12.529H0m16.422 7.847H0m162.867-71.734l3.15 3.302-3.15 3.301" stroke="#221F20" mask="url(#b)"/><path stroke="#221F20" mask="url(#b)" d="M166.018 45.395h-11.45v7.783h14.852V37.612h-14.853m-114.46 73.974a2.75 2.75 0 0 0-4.02 0l-2.165 2.267-2.164-2.267a2.75 2.75 0 0 0-4.02 0c-1.11 1.163-1.11 3.05 0 4.213l6.184 6.48 6.185-6.48c1.11-1.164 1.11-3.05 0-4.213z"/><path fill="#C7DEDA" mask="url(#b)" d="M170.981 76.874l-5.884-5.702-1.604 5.702z"/><path stroke="#221F20" stroke-linecap="round" stroke-linejoin="round" mask="url(#b)" d="M170.981 76.874l-5.884-5.702-1.604 5.702zm-18.297-5.702l-5.884 5.701h7.487z"/><path stroke="#221F20" stroke-linecap="round" stroke-linejoin="round" mask="url(#b)" d="M163.493 76.874l1.603-5.702h-12.412l1.604 5.702zm0 0L158.89 93.24l12.092-16.367z"/><path fill="#C7DEDA" mask="url(#b)" d="M154.287 76.874l4.603 16.367 4.603-16.367z"/><path stroke="#221F20" stroke-linecap="round" stroke-linejoin="round" mask="url(#b)" d="M154.287 76.874l4.603 16.367 4.603-16.367z"/><path stroke="#221F20" stroke-linecap="round" stroke-linejoin="round" mask="url(#b)" d="M146.8 76.874l12.09 16.367-4.602-16.367z"/><path d="M142.086 50.619c0 4.416-3.416 7.996-7.63 7.996s-7.63-3.58-7.63-7.996c0-4.418 3.416-7.997 7.63-7.997s7.63 3.58 7.63 7.997zm-15.26 0h-16.15m-75.744 96.493a10.864 10.864 0 0 1-2.524 2.726 15.616 15.616 0 0 1-.577 4.92 15.574 15.574 0 0 1-1.799 4.057 15.726 15.726 0 0 1-2.874 3.438c-1.111.995-2.45 1.79-4.018 2.383-1.57.594-3.246.89-5.031.89-2.815 0-5.39-.79-7.726-2.368.363.044.768.065 1.214.065 2.337 0 4.418-.75 6.247-2.25a4.768 4.768 0 0 1-2.929-1.056 5.143 5.143 0 0 1-1.776-2.602c.343.054.66.082.951.082.447 0 .887-.06 1.323-.181-1.163-.25-2.126-.856-2.89-1.82-.762-.963-1.144-2.082-1.144-3.355v-.067a4.82 4.82 0 0 0 2.275.67 5.186 5.186 0 0 1-1.636-1.875 5.329 5.329 0 0 1-.608-2.514c0-.958.229-1.845.686-2.663a14.43 14.43 0 0 0 4.587 3.895 13.578 13.578 0 0 0 5.787 1.625 6.211 6.211 0 0 1-.125-1.21c0-1.457.49-2.7 1.472-3.73.981-1.028 2.169-1.542 3.56-1.542 1.453 0 2.68.554 3.676 1.664a9.572 9.572 0 0 0 3.193-1.274c-.384 1.253-1.121 2.22-2.211 2.907a9.701 9.701 0 0 0 2.897-.815zM55.063 8.965v3.668h-2.08c-.762 0-1.274.165-1.539.5-.264.333-.398.834-.398 1.499v2.625h3.886l-.518 4.115h-3.368V31.92H46.99V21.372h-3.38v-4.115h3.38v-3.025c0-1.724.46-3.061 1.378-4.01.92-.949 2.143-1.426 3.672-1.426 1.3 0 2.307.058 3.023.169zm73.154 171.143l7.951 4.55 19.787-11.925v-9.483l-17.547-6.273 3.38 8.955 5.486 2.635-11.06 6.752v-29.071l-7.997-3.018zm-30.649-29.642H50.672v28.114h5.654v8.384l8-8.384h33.242z" stroke="#221F20" mask="url(#b)"/><path stroke="#221F20" stroke-linecap="round" stroke-linejoin="round" mask="url(#b)" d="M60.013 183.091h6.627v8.385l8-8.385h27.232v-28.114h-4.304v23.603H64.326z"/><path d="M57.23 162.96h22.638m-22.638 5.194h13.765" stroke="#221F20" mask="url(#b)"/><path d="M80.9 43.362c0 7.678-5.938 13.903-13.265 13.903-7.326 0-13.265-6.225-13.265-13.903 0-7.679 5.939-13.904 13.265-13.904 7.327 0 13.266 6.225 13.266 13.904z" stroke="#221F20" stroke-linecap="round" stroke-linejoin="round" mask="url(#b)"/><path d="M67.636 29.459v13.903l9.38-9.83c-2.401-2.517-5.717-4.073-9.38-4.073z" stroke="#221F20" stroke-linecap="round" stroke-linejoin="round" mask="url(#b)"/><path d="M77.016 33.531l-9.38 9.83H80.9c0-3.839-1.484-7.314-3.885-9.83" fill="#C7DEDA" mask="url(#b)"/><path d="M77.016 33.531l-9.38 9.83H80.9c0-3.839-1.484-7.314-3.885-9.83z" stroke="#221F20" stroke-linecap="round" stroke-linejoin="round" mask="url(#b)"/><path fill="#C7DEDA" mask="url(#b)" d="M159.899 126.757l.498 3.226h18.367l.498-3.226z"/><path stroke="#221F20" mask="url(#b)" d="M159.899 126.757l.498 3.226h18.367l.498-3.226z"/><path fill="#C7DEDA" mask="url(#b)" d="M46.99 31.92h4.056v-4.308H46.99z"/><path stroke="#221F20" stroke-linecap="round" stroke-linejoin="round" mask="url(#b)" d="M46.99 31.92h4.056v-4.308H46.99z"/><path fill="#C7DEDA" mask="url(#b)" d="M136.214 152.323v-6.075l-7.997-3.018v9.093z"/><path stroke="#221F20" stroke-linecap="round" stroke-linejoin="round" mask="url(#b)" d="M136.214 152.323v-6.075l-7.997-3.018v9.093z"/><path fill="#C7DEDA" mask="url(#b)" d="M50.672 154.977h46.896v-4.511H50.672z"/><path stroke="#221F20" stroke-linecap="round" stroke-linejoin="round" mask="url(#b)" d="M50.672 154.977h46.896v-4.511H50.672z"/><path fill="#C7DEDA" mask="url(#b)" d="M97.568 158.877h4.304v-3.9h-4.304z"/><path stroke="#221F20" stroke-linecap="round" stroke-linejoin="round" mask="url(#b)" d="M97.568 158.877h4.304v-3.9h-4.304z"/></g></g></svg>