<svg width="68" height="76" viewBox="0 0 68 76" xmlns="http://www.w3.org/2000/svg" xmlns:xlink="http://www.w3.org/1999/xlink"><defs><path id="a" d="M0 74.895h67.02V0H0z"/></defs><g fill="none" fill-rule="evenodd"><path d="M47.092 10.766l1.592 1.128.534-3.133.535 3.133 1.593-1.128-1.13 1.592 3.135.535-3.135.535 1.13 1.593-1.593-1.13-.535 3.133-.534-3.133-1.592 1.13 1.127-1.594-3.131-.534 3.131-.535-1.127-1.592zm5.472 17.565c-2.419 4.476-7.14 2.218-7.626 4.506-.423 1.99 8.925 3.772 11.352 4.2a25.431 25.431 0 0 0 2.715-11.473C59.005 11.445 47.561 0 33.442 0a25.458 25.458 0 0 0-16.451 6c19.671 1.19 38.154 17.551 35.573 22.33z" fill="#212A60"/><path d="M42.927 32.177c2.982-1.906-4.643-4.054-15.32-6.613-10.48-2.513-19.396-.766-19.719-.701-.006.233-.009.466-.009.7 0 9.113 4.767 17.109 11.945 21.636l6.352-6.645.812.37 3.015-2.845 2.88 2.618 1.08-.686 1.455 1.05 2.22-1.709 2.205 1.663.954-.5 1.085.91.56-.317 5.73 5.349a25.67 25.67 0 0 0 7.159-7.683c-11.177-.932-15.174-4.825-12.404-6.597M14.426 70.874h.3l-1.483 3.968h-.245l-1.48-3.968h.297l.999 2.7a9.6 9.6 0 0 1 .305.917c.038-.134.108-.346.216-.632l1.09-2.985zm3.485 2.318h1.418l-.54-1.43c-.044-.113-.1-.27-.162-.467-.05.174-.102.33-.16.472l-.556 1.425zm1.511.248H17.81l-.553 1.402h-.308l1.597-3.984h.175l1.563 3.984h-.31l-.552-1.402zm3.925-.476h.543c.448 0 .772-.074.97-.22.201-.15.3-.388.3-.72 0-.305-.095-.532-.283-.678-.187-.15-.478-.222-.873-.222h-.657v1.84zm2.11-.95c0 .383-.129.676-.389.882-.262.203-.63.305-1.108.305h-.613v1.641h-.279v-3.968h.974c.944 0 1.415.382 1.415 1.14zm2.625.839c0 .568.125 1.006.377 1.317.254.31.619.467 1.092.467.478 0 .842-.155 1.095-.462.252-.308.38-.749.38-1.322 0-.572-.128-1.01-.38-1.316-.253-.305-.614-.456-1.09-.456-.47 0-.835.153-1.094.46-.254.31-.38.746-.38 1.312m3.243 0c0 .63-.157 1.128-.471 1.494-.316.366-.748.548-1.303.548-.552 0-.983-.182-1.3-.548-.314-.366-.471-.868-.471-1.5s.158-1.128.476-1.492c.317-.362.75-.542 1.3-.542.554 0 .986.18 1.302.546.313.365.467.862.467 1.494m3.135.022h.758c.336 0 .596-.075.78-.224.184-.15.276-.37.276-.661 0-.304-.09-.523-.27-.66-.18-.137-.476-.206-.885-.206h-.658v1.75zm0 .238v1.729h-.275v-3.968h.946c.49 0 .853.092 1.088.274.237.181.355.454.355.82 0 .264-.072.49-.21.674-.14.182-.354.313-.64.393l1.076 1.807h-.33l-1.024-1.729h-.985zm10.612-2.046c-.5 0-.891.16-1.177.478-.283.318-.428.754-.428 1.308 0 .566.135 1.004.405 1.317.269.316.657.47 1.155.47.332 0 .638-.043.919-.127v.245c-.263.092-.59.137-.983.137-.559 0-.997-.178-1.315-.538-.322-.36-.483-.864-.483-1.51 0-.403.076-.757.229-1.067.156-.307.375-.544.66-.713.287-.166.62-.25 1-.25a2.4 2.4 0 0 1 1.04.217l-.112.249a2.036 2.036 0 0 0-.91-.216m4.07 1.786c0 .568.128 1.006.38 1.317.253.31.617.467 1.091.467.478 0 .843-.155 1.096-.462.251-.308.377-.749.377-1.322 0-.572-.126-1.01-.377-1.316-.253-.305-.617-.456-1.09-.456-.471 0-.836.153-1.093.46-.256.31-.384.746-.384 1.312m3.246 0c0 .63-.157 1.128-.47 1.494-.317.366-.752.548-1.305.548-.552 0-.986-.182-1.3-.548-.316-.366-.472-.868-.472-1.5s.159-1.128.476-1.492c.318-.362.752-.542 1.302-.542.554 0 .986.18 1.3.546.312.365.469.862.469 1.494" fill="#212A60"/><mask id="b" fill="#fff"><use xlink:href="#a"/></mask><path fill="#212A60" mask="url(#b)" d="M22.793 71.21h.556v-.336h-.556zm11.114 0h.556v-.336h-.556zm-22.727-.063h1.104v-.334H11.18zm2.809 0h1.103v-.334h-1.103zm4.076 0h1.104v-.334h-1.104zm-1.462 3.772h1.1v-.337h-1.1zm-4.032 0h1.103v-.337H12.57zm6.961 0h1.104v-.337h-1.104zm3.125 0h1.103v-.337h-1.103zm23.187-3.082h.336v-.82h-.336zm0 2.921h.336v-.83h-.336zm-12.072.161h1.102v-.337h-1.102zm2.244 0h1.101v-.337h-1.101zm-25.02-18.453H23.88v-.37H10.996zm32.148 0h12.881v-.37h-12.88zM26.28 54.198v.571h.267v-.303h1.058v3.544h-.423v.27h1.133v-.27h-.423v-3.544h1.06v.303h.268v-.571zm12.232 0v4.082h2.229v-.574h-.268v.31h-1.678v-1.75h1.611v.435h.27v-1.134h-.27v.437h-1.611v-1.545h1.678v.31h.268v-.571zm-3.02.268v-.268H34.36v.268h.42v1.542h-2.382v-1.542h.423v-.268h-1.135v.268h.426v3.544h-.426v.27h1.135v-.27h-.423v-1.74h2.382v1.74h-.42v.27h1.132v-.27h-.423v-3.544zM16.16 60.709v1.175h.555v-.618h.988v6.565h-.467v.556h1.626v-.556h-.433v-6.565h.95v.618h.557v-1.175zm12.91 1.175v-1.175h-3.244v.557h.45v6.565h-.45v.556h3.244v-1.173h-.555v.632H27v-3.168h1.115v.553h.556v-1.627h-.556v.536H27v-2.874h1.514v.618zm10.232-1.175h-1.626v.557h.501v5.403l-2.216-5.403h.365v-.557H34.7v.557h.5v6.565h-.5v.556h1.626v-.556h-.5V62.36l2.462 6.028h.51v-7.121h.504zm13.058 3.954h-1.626v.555h.478v1.04c0 1.41-.499 1.633-1.122 1.633-.245 0-.526-.038-.69-.116a.829.829 0 0 1-.384-.354 1.795 1.795 0 0 1-.188-.546 4.447 4.447 0 0 1-.052-.752v-3.154c0-.224.009-.42.024-.583a2.61 2.61 0 0 1 .103-.484c.051-.16.12-.286.21-.384a.92.92 0 0 1 .353-.236c.15-.062.325-.09.533-.09.448 0 .758.128.922.387.163.257.244.673.244 1.246v.274h.68v-.274c0-.733-.14-1.287-.43-1.655-.287-.37-.76-.553-1.425-.553-.374 0-.69.057-.948.167a1.31 1.31 0 0 0-.599.495 2.23 2.23 0 0 0-.302.752c-.062.283-.092.62-.092 1.008v3c0 .384.03.718.093 1.005.062.287.164.541.305.762.142.22.338.388.589.502.25.114.551.17.907.17 1.603 0 1.936-.843 1.936-1.864v-1.396h.48v-.555zm-5.248-3.397v-.557h-1.627v.557h.456v6.565h-.456v.556h1.627v-.556h-.458v-6.565zm-2.623 5.948v.632h-1.631v-6.58h.453v-.557h-1.629v.557h.45v6.565h-.45v.556h3.362v-1.173zm-19.216-5.948v-.557h-1.626v.557h.449v2.846h-2.419v-2.846h.451v-.557H20.5v.557h.45v6.565h-.45v.556h1.628v-.556h-.451v-3.185h2.419v3.185h-.449v.556h1.626v-.556h-.451v-6.565zM6.308 59.43H3.966v.828h.758v7.12l-2.92-7.12h.539v-.828H0v.828h.754v8.581H0v.828h2.343v-.828h-.756v-7.21l3.284 8.038h.68v-9.409h.757zm7.421 4.651h-.976v-2.83h1c.464 0 .785.11.957.33.173.218.26.575.26 1.07 0 .498-.09.862-.274 1.089-.182.228-.504.341-.967.341zm1.896 3.75l-1.021-3.37c.713-.15 1.069-.753 1.069-1.81 0-.637-.146-1.118-.438-1.447-.294-.33-.782-.495-1.464-.495H11.57v.557h.456v6.565h-.456v.556h1.629v-.556h-.445v-3.218h1.203l.959 3.218h-.346v.556h1.627v-.556h-.57zm16.184-3.75h-.977v-2.83h1c.466 0 .787.11.96.33.172.218.258.575.258 1.07 0 .498-.09.862-.274 1.089-.18.228-.503.341-.967.341zm1.896 3.75l-1.02-3.37c.713-.15 1.07-.753 1.07-1.81 0-.637-.148-1.118-.44-1.447-.295-.33-.784-.495-1.464-.495h-2.202v.557h.457v6.565h-.457v.556h1.627v-.556h-.444v-3.218h1.203l.96 3.218h-.346v.556h1.626v-.556h-.57z"/><path fill="#212A60" mask="url(#b)" d="M57.131 61.266v-.557h-1.627v.557h.449v2.846h-2.42v-2.846h.452v-.557h-1.626v.557h.448v6.565h-.448v.556h1.626v-.556h-.451v-3.185h2.419v3.185h-.449v.556h1.627v-.556h-.452v-6.565zm.606-.557v1.175h.555v-.618h.986v6.565h-.467v.556h1.626v-.556h-.43v-6.565h.948v.618h.556v-1.175zm8.881 5.269a6.298 6.298 0 0 0-1.098-1.348l-1.805-1.713c-.263-.253-.449-.496-.559-.724a1.762 1.762 0 0 1-.163-.763c0-.447.129-.784.386-1.004.26-.223.61-.34 1.06-.354h.074c.51 0 .88.164 1.111.495.194.281.325.685.4 1.198v.143h.023a.01.01 0 0 0 0 .003h.835v-.003h.015v-2.582h-.873v.45c-.384-.308-.902-.463-1.554-.463h-.045c-.707.004-1.269.197-1.68.581-.414.382-.623.921-.623 1.616 0 .784.31 1.47.928 2.062l1.815 1.742c.214.21.387.39.52.537.135.149.264.315.383.498.121.182.212.37.267.561.055.191.082.396.082.614 0 .988-.481 1.483-1.442 1.483a1.69 1.69 0 0 1-.647-.118 1.312 1.312 0 0 1-.463-.31 1.594 1.594 0 0 1-.31-.49 3.31 3.31 0 0 1-.191-.611 6.52 6.52 0 0 1-.077-.472h-.888v2.778h.872v-.58c.41.386.974.58 1.695.58.708 0 1.278-.202 1.708-.605.43-.402.646-.978.646-1.723 0-.531-.136-1.024-.402-1.478M8.122 67.706c.161.074.365.11.607.11.238 0 .442-.036.604-.11a.788.788 0 0 0 .374-.332 1.52 1.52 0 0 0 .18-.493c.037-.182.053-.397.053-.651v-3.394c0-.253-.016-.47-.053-.649a1.486 1.486 0 0 0-.18-.487.79.79 0 0 0-.374-.324 1.532 1.532 0 0 0-.604-.105c-.242 0-.446.035-.607.105a.796.796 0 0 0-.374.324 1.523 1.523 0 0 0-.18.487 3.555 3.555 0 0 0-.053.65v3.393c0 .254.019.469.052.65.036.183.095.347.18.494a.8.8 0 0 0 .375.332m.607.681c-.364 0-.672-.056-.926-.165a1.317 1.317 0 0 1-.597-.484 2.096 2.096 0 0 1-.31-.725 4.013 4.013 0 0 1-.097-.938v-3.112c0-.353.033-.662.099-.928.065-.265.17-.5.316-.703.146-.204.346-.359.6-.465.253-.103.557-.158.915-.158.354 0 .659.055.913.158.253.106.452.263.599.467.146.204.25.442.316.706.066.265.099.574.099.923v3.122c0 .279-.02.533-.058.76a2.452 2.452 0 0 1-.195.633 1.57 1.57 0 0 1-.355.492c-.145.13-.329.233-.55.307-.224.073-.481.11-.77.11"/></g></svg>