<svg width="105" height="28" viewBox="0 0 105 28" xmlns="http://www.w3.org/2000/svg" xmlns:xlink="http://www.w3.org/1999/xlink"><defs><path id="a" d="M0 26.755h26.056V.095H0v26.66z"/></defs><g fill="none" fill-rule="evenodd"><path d="M61.2 12.133c-2.005 0-3.598-1.678-3.598-3.786v-.034c0-2.09 1.542-3.752 3.53-3.752 1.302 0 2.158.668 2.912 1.439l.6-.617c-.822-.856-1.85-1.61-3.495-1.61-2.502 0-4.454 2.125-4.454 4.574v.035c0 2.45 1.936 4.54 4.454 4.54 1.61 0 2.673-.72 3.564-1.73l-.583-.515c-.737.822-1.696 1.456-2.93 1.456zm11.714.583h.842V3.978h-.842v8.738zm-4.928-11.53h-.838v2.792h-1.269v.772h1.269v5.722c0 1.66 1.096 2.398 2.449 2.398a3.2 3.2 0 0 0 1.421-.308v-.788c-.496.222-.855.308-1.284.308-1.012 0-1.748-.445-1.748-1.695V4.75h3.066v-.772h-3.066V1.185zm29.99 6.665c-1.25-.36-2.433-.72-2.433-1.697V6.12c0-.874.788-1.524 1.988-1.524.924 0 1.884.342 2.69.873l.444-.702c-.873-.583-2.056-.96-3.1-.96-1.696 0-2.879 1.01-2.879 2.416v.034c0 1.56 1.577 1.988 2.999 2.399 1.217.342 2.312.719 2.312 1.747v.035c0 1.01-.925 1.66-2.107 1.66-1.114 0-2.177-.41-3.135-1.147l-.496.669c.924.753 2.312 1.267 3.58 1.267 1.677 0 3.015-.994 3.015-2.552V10.3c0-1.541-1.474-2.055-2.878-2.449zm-25.163-6.15h1.044V.55h-1.044V1.7zM79.8 11.773l-3.306-7.796h-.977l3.923 8.806h.72l3.924-8.806h-.943L79.8 11.773zm5.935-3.838c.155-1.936 1.49-3.392 3.221-3.392 2.006 0 3.016 1.627 3.136 3.392h-6.357zm3.255-4.163c-2.363 0-4.144 2.022-4.144 4.557v.035c0 2.724 1.985 4.556 4.282 4.556 1.678 0 2.724-.684 3.615-1.644l-.583-.514c-.72.771-1.644 1.37-2.998 1.37-1.713 0-3.272-1.268-3.427-3.444h7.247C93 8.553 93 8.502 93 8.347c0-2.586-1.56-4.574-4.01-4.574zM47.93 7.936c.154-1.936 1.49-3.392 3.22-3.392 2.005 0 3.016 1.627 3.135 3.392H47.93zm3.254-4.163c-2.364 0-4.146 2.022-4.146 4.557v.035c0 2.724 1.987 4.556 4.284 4.556 1.678 0 2.723-.684 3.614-1.644l-.583-.514c-.719.771-1.644 1.37-2.997 1.37-1.714 0-3.272-1.268-3.426-3.444h7.246c.017-.136.017-.187.017-.342 0-2.586-1.559-4.574-4.009-4.574zM29.12.723h-3.993v5.045c.319-.06.62-.108.892-.132v-4.09h3.1c3.341 0 5.448 2.33 5.448 5.174v.035c0 2.86-2.107 5.138-5.447 5.138h-3.101v-.022a6.06 6.06 0 0 1-.65.845h3.75c3.769 0 6.374-2.621 6.374-5.996v-.035c0-3.375-2.605-5.962-6.373-5.962zm8.899 11.993h.84V3.978h-.84v8.738zM37.917 1.7h1.045V.551h-1.045v1.15zm4.534 4.762V3.978h-.84v8.738h.84v-3.58c0-2.845 1.765-4.37 3.786-4.37h.087v-.924c-1.731-.069-3.187 1.062-3.873 2.62z" fill="#2E94C6"/><g transform="translate(0 .151)"><mask id="b" fill="#fff"><use xlink:href="#a"/></mask><path d="M19.417 20.448c.033.165-.236.248-.243.387a.443.443 0 0 1-.049.097c-.01.018-.09.035-.097.049-.009.021.017.083 0 .097-.027.029-.113.024-.145.05-.062.047-.09.129-.194.193-.042.025-.142.078-.194.145-.027.035-.018.108-.048.145-.135.16-.422.294-.485.582-.303.113-.492.381-.727.581-.114.098-.222.197-.34.291-.04.033-.107.014-.144.048-.05.048-.109.172-.194.242-.03.026-.07.079-.096.096-.018.015-.085-.015-.098 0a1.339 1.339 0 0 1-.194.197c-.037.027-.103.016-.145.047-.053.039-.105.171-.194.242-.038.031-.103.017-.146.048-.023.019-.025.082-.048.097-.064.045-.138.062-.194.098-.041.027-.04.07-.096.097-.018.008-.087-.015-.097 0-.006.005.006.045 0 .048-.054.03-.14.06-.194.097-.102.07-.198.16-.291.242-.087.077-.193.13-.242.242-.07.029-.126.014-.194.05-.032.016-.069.08-.097.095-.032.02-.064.028-.097.05-.022.013-.037.04-.05.047-.034.022-.102.02-.143.048-.018.014-.033.091-.05.099-.066.028-.11.036-.194.096-.026.02.008.045-.047.05a.488.488 0 0 0-.097.046c-.028.02-.072.085-.097.097-.122.065-.313.067-.437.146-.022.015-.036.041-.049.05-.06.035-.156.04-.24.096-.025.015-.038.04-.049.048-.041.024-.124.094-.193.097-.023.001-.072.035-.098.049-.075.033-.14.056-.244.097-.111.044-.334.128-.532.194-.017.005-.001.045-.049.048-.133.006-.148.006-.29.048-.039.01-.135.022-.194.05-.022.008-.082.091-.097.095-.077.02-.204-.014-.292 0-.085.014-.17.077-.242.098-.093.025-.206.04-.29.047-.055.005-.14.014-.194 0-.04-.008-.047-.044-.097-.047-.036-.004-.05.047-.097.047-.036 0-.052-.044-.096-.047-.163-.019-.354-.03-.533-.05-.014-.1-.13-.096-.195-.144-.016-.012.015-.083 0-.097-.04-.042-.173.01-.194-.048-.109-.215-.222-.425-.386-.581.013-.306-.154-.431-.243-.632-.029-.173.057-.234.097-.338-.05-.098-.03-.215-.05-.34-.005-.043-.045-.036-.047-.048-.009-.042.048-.051.048-.048-.007-.041-.046-.048-.048-.097-.004-.092.048-.175.048-.292 0-.188-.059-.252 0-.484.004-.013.046-.004.049-.05.01-.18.091-.258.194-.386.063-.15-.013-.138 0-.34.15-.072.052-.237.096-.34.01-.022.077-.062.098-.095.019-.032.026-.062.048-.097.018-.031.082-.07.096-.098.01-.016-.014-.084 0-.096a1.22 1.22 0 0 0 .146-.243c.01-.023.092-.081.097-.096.014-.046-.011-.1 0-.145.166-.028.17-.184.242-.292.018-.025.08-.024.098-.048.013-.018-.015-.084 0-.097.005-.004.044.005.048 0 .03-.06.009-.14.048-.193.043-.062.17-.149.243-.243.023-.03-.006-.046.048-.049.057-.002.024-.06.048-.097.063-.092.194-.223.292-.339.021-.027.045.008.048-.048.004-.068.073-.012.096-.049.031-.047-.033-.153.05-.145.086-.007.135-.024.192-.097.045-.056-.004-.096.049-.145.017-.015.084.016.097 0 .032-.038-.02-.093.049-.097.034-.002.134-.095.193-.146.028-.023-.007-.045.05-.05-.004.002.134-.038.143-.046.017-.013-.015-.084 0-.097.04-.032.094.02.097-.049.007-.116.29-.126.244-.338.049-.023.15.029.193 0 .003-.003.052-.204.097-.147.051.065.14-.057.243-.145.045-.038.101-.111.145-.144.018-.014.085.014.096 0 .033-.039.01-.122.05-.147.02-.012.061.059.097.049.027-.008.028-.083.05-.095.114-.087.22-.162.338-.244.036-.026.104-.02.144-.049.024-.017.028-.082.05-.097.016-.01.083.016.095 0 .033-.04.057-.14.146-.144.07-.005.105-.093.194-.098.07-.004.105-.092.193-.098.07-.002.105-.091.194-.096.107-.006.048-.14.146-.146.126-.006.087-.091.194-.095.04-.003.078-.07.146-.05.038-.034.05-.067.097-.097.048-.03.098-.026.144-.048.024-.01.08-.09.098-.097.105-.031.154.01.242-.048.066-.046.137-.058.29-.097.046-.012.105-.083.195-.098.088-.012.175.03.29 0 .013-.003.075-.043.048-.048.125.022.12.09.195.146.07.257-.158.254-.291.339-.027.017.007.046-.049.048-.127.006-.086.091-.193.097-.07.004-.105.093-.194.096-.063.005-.061.073-.097.098-.018.014-.084-.016-.097 0-.032.04-.056.14-.146.144-.004.002-.125.037-.145.05-.058.035-.088.109-.146.145-.017.011-.083-.014-.096 0-.004.007.005.046 0 .049-.018.008-.085-.013-.097 0-.005.005.007.045 0 .048-.067.039-.138.06-.194.097-.065.042-.09.11-.145.146-.017.011-.084-.016-.097 0-.039.045-.047.06-.098.095-.051.04-.087.1-.144.147-.034.026-.1.094-.146.098-.097.004-.202.24-.34.29-.055.07-.125.09-.193.146-.054.042-.093.101-.145.144-.114.09-.235.15-.34.243-.1.09-.188.199-.291.29-.196.176-.376.367-.581.582-.096.098-.198.188-.291.29-.027.03-.094.101-.098.146-.002.062-.135.087-.193.144-.05.054-.052.148-.097.196-.015.015-.083-.018-.096 0-.032.038.02.093-.05.096-.053.003-.071.061-.096.097-.082.128-.224.283-.338.437a.97.97 0 0 0-.098.145c-.016.031-.022.109-.048.145-.012.015-.083-.015-.097 0-.008.01.007.038 0 .048-.014.016-.042.039-.05.048-.048.075-.069.192-.144.292-.026.035-.079.068-.097.097-.035.053-.01.125-.048.192-.02.037-.072.05-.097.098-.018.032-.027.065-.048.098-.03.046-.03.075-.049.144-.012.05-.037.024-.049.05-.044.097-.048.216-.144.29.068.16.007.407-.097.533-.014.132.017.214 0 .34-.018.112-.092.179-.097.29-.019.4.109.737.29 1.017.018.027.045-.005.048.05.002.025.112.264.195.242.007-.002.001-.072.048-.05.038.021.07.111.096.146.149.035.176-.05.292-.048.093.095.176.136.338.098 0 0 .142-.046.146-.05.038-.046.066-.04.144-.048.015-.003.09.009.099 0 .067-.085.342-.091.485-.146.054-.02.092-.065.145-.095.03-.02.062-.028.096-.05.044-.028.14-.054.241-.096.018-.008.01-.04.05-.05.074-.019.178.006.29-.049.021-.01.03-.089.048-.095.082-.038.133-.01.196-.05.022-.015.034-.04.048-.048.044-.027.089-.02.146-.048.047-.023.126-.017.193-.049.02-.01.03-.088.048-.096.093-.042.155-.041.242-.098.037-.023.069-.08.097-.096.018-.01.086.014.098 0 .054-.067.042-.072.144-.098.072-.018.218-.147.292-.241.199-.111.44-.204.581-.389.021-.027.045.009.05-.049.003-.113.148-.109.24-.191.017-.015-.016-.085 0-.1.011-.007.04.009.05 0 .029-.021.19-.089.193-.143 0-.016.084-.086.097-.099.048-.044.215-.22.339-.24a.54.54 0 0 0 .049-.097c.007-.018-.014-.087 0-.097.006-.007.043.007.048 0 .026-.045.117-.097.097-.194.11.067.266-.092.388-.196.11-.093.217-.225.339-.337.224-.21.441-.435.678-.68.052-.053.136-.081.194-.144.015-.017-.016-.085 0-.098.025-.018.126-.025.145-.048.051-.059.058-.18.097-.243.054-.084.192-.074.146-.193.018-.051.104-.017.145-.05.017-.01-.015-.081 0-.096.016-.016.081.017.096 0a.489.489 0 0 0 .097-.243c.127-.03.166-.122.243-.241.019-.027.046.006.049-.049.001-.042.074-.107.096-.145.06-.096.203-.206.291-.339.018-.028.045.007.049-.049.003-.06.183-.193.242-.29.018-.032.026-.066.048-.097.035-.048.113-.1.146-.146.047-.062.102-.126.145-.194.035-.054.062-.143.097-.193.027-.038.068-.05.098-.098.018-.03.026-.065.048-.095.038-.055.106-.094.146-.147.033-.044.012-.106.047-.145.02-.022.08-.025.098-.048.013-.018-.017-.085 0-.097.038-.032.092.021.096-.049.004-.067.129-.122.194-.194.059-.065.011-.206.145-.145.126-.344.348-.59.582-.823.01-.097.002-.153.05-.243.028-.056.057-.011.095-.048.016-.016-.015-.085 0-.097.008-.006.046.007.049 0 .01-.018-.016-.087 0-.097.006-.004.046.005.049 0 .009-.018-.015-.085 0-.097.04-.034.14-.056.144-.145.003-.051.062-.167.098-.243.01-.024.046.004.049-.048.006-.126.09-.087.096-.195.004-.064.113-.175.194-.24-.048-.128.05-.196.098-.292.018-.041.021-.097.048-.145.017-.033.082-.07.096-.098.023-.042.022-.094.05-.145.016-.032.08-.07.096-.097.024-.044.021-.09.048-.145.038-.077.093-.13.145-.242.01-.021.04-.006.048-.05.007-.028-.012-.072 0-.096.018-.034.08-.067.099-.097.045-.073.088-.146.144-.243.057-.097.114-.257.243-.34.008-.113-.014-.17.048-.29.014-.028.08-.024.097-.048.012-.017-.016-.085 0-.097.068-.054.087-.236.145-.388.05-.126.113-.26.195-.387.011-.02.043-.04.048-.049.045-.084.043-.19.097-.29.01-.023.035-.007.048-.049.01-.028-.007-.067 0-.097.012-.046.041-.027.049-.048.13-.328.249-.67.386-1.018.03-.07.015-.125.05-.194.01-.022.092-.079.096-.097.035-.11.01-.248.049-.387.07-.256.265-.593.193-.922-.244-.011-.331.27-.484.389-.017.013-.083-.017-.098 0-.037.046-.038.065-.096.097-.017.01-.084-.016-.096 0-.02.024-.095.188-.194.193-.062.003-.062.08-.097.097-.023.01-.078-.015-.097 0-.094.074-.153.211-.242.291-.016.014-.083-.016-.097 0-.027.034-.095.1-.097.145 0 .01-.278.285-.34.34-.016.014-.084-.017-.097 0-.007.009.01.039 0 .048-.028.036-.037.095-.097.097-.112.005-.107.146-.193.242-.015.016-.083-.016-.098 0-.007.01.009.04 0 .05-.032.039-.082.119-.145.194-.012.015-.09.033-.096.047-.01.02.015.083 0 .097-.015.015-.084-.016-.097 0-.049.06-.107.166-.194.243-.016.014-.084-.016-.098 0-.033.041-.06.06-.097.096-.015.016.017.083 0 .097-.009.008-.037-.008-.047 0-.028.023-.028.026-.05.049-.176.171-.358.366-.53.533a7.097 7.097 0 0 1-.439.387c-.027.021.01.047-.048.049-.052.002-.167.133-.241.194-.03.024-.047-.007-.05.048-.002.05-.17.127-.241.194-.011.01-.093.038-.098.049-.006.014.014.087 0 .096-.054.038-.184-.034-.242 0-.036.023-.028.151-.049.194-.116.02-.105-.087-.242-.049-.128 0-.105.154-.243.147-.146-.047-.289-.098-.435-.147.011-.155-.085-.205-.048-.387a.354.354 0 0 0-.147-.097c.095-.132.038-.205 0-.34-.003-.015.013-.086 0-.095-.047-.041-.015-.025 0-.194.007-.08-.002-.162 0-.243.006-.087.053-.102.05-.194 0 .009-.047-.02-.05-.048-.002-.049.003-.097 0-.146.077-.008.001-.052 0-.047.005-.049.065-.085.099-.195.03-.1.053-.224.096-.338.008-.02.045 0 .048-.05 0-.014-.004-.037 0-.048.019-.048.032-.077.049-.146.01-.045.04-.028.048-.049a2.27 2.27 0 0 0 .097-.338c-.14.02-.22.102-.242.241-.145.002-.164.127-.292.146-.133.186-.293.416-.533.63-.038.035-.1.015-.145.049-.025.02-.024.078-.049.098-.03.022-.115.019-.144.047-.015.015.017.085 0 .097-.009.008-.039-.008-.049 0-.107.09-.22.197-.339.29-.118.093-.26.143-.388.244-.028.022-.011.127-.048.144-.036.018-.112-.021-.145 0-.044.031-.168.284-.291.292-.01 0-.042-.006-.049 0-.05.034-.087.107-.145.145-.039.024-.127.094-.194.097 0 0-.132.039-.145.048-.052.038-.082.104-.194.146-.018.006-.086-.013-.097 0-.004.005.007.044 0 .048-.018.008-.085-.015-.097 0-.037.045-.035.073-.097.096-.376.15-.91.241-1.357.146-.114-.024-.085-.055-.194-.097-.082-.03-.184-.009-.24-.049-.027-.015-.007-.14-.099-.096-.063-.034-.018-.124-.047-.194-.017-.037-.092-.077-.098-.097-.018-.059.014-.133 0-.193-.044-.192-.043-.404 0-.68.004-.03-.007-.066 0-.095l.098-.389c.006-.03-.01-.066 0-.096.01-.048.08-.104.096-.194.021-.123-.025-.235 0-.339.003-.011.047-.007.05-.049 0-.013-.007-.036 0-.05.017-.047.03-.076.047-.145.009-.039.045-.034.048-.047.035-.12.009-.239.048-.34.008-.02.046.002.05-.048 0-.016.037-.08.047-.098.017-.024.087-.073.097-.096.038-.083.027-.194.049-.291.002-.01.045-.007.048-.048.004-.056-.018-.141 0-.194.006-.018.046 0 .048-.048.004-.07.093-.105.098-.194.004-.095.13-.346.194-.486.028-.06.068-.122.097-.194.008-.02.046.004.048-.047.007-.147.027-.102.096-.194.013-.018-.015-.085 0-.097.007-.005.046.006.048 0 .035-.066.013-.128.05-.194.024-.043.113-.1.146-.145.02-.033.025-.063.047-.097.028-.043.045-.177.097-.29.01-.025.047.003.05-.05.001-.045.138-.301.193-.388.032-.052.061-.09.096-.145.015-.023.041-.188.098-.242.086-.03.072-.165.145-.242.052-.053.022-.108.048-.193.011-.038.072-.063.098-.098.016-.024-.002-.058.048-.048-.026-.093-.078-.008-.097 0-.018.006-.086-.015-.097 0-.006.005.007.044 0 .048-.055.03-.152.06-.194.098-.081.072-.122.189-.193.241-.054.035-.148.06-.195.097-.016.014.016.084 0 .097-.04.033-.107.014-.144.048-.044.04-.107.103-.146.146-.053.058-.11.11-.098.193-.063.03-.131.01-.194.048-.04.026-.055.068-.096.097-.073.055-.127.118-.193.194-.054.062-.209.11-.146.244-.09-.009-.189-.006-.194.096-.003.05-.115.069-.145.098-.025.021-.025.073-.048.096-.117.106-.28.18-.339.34-.127.019-.148.144-.292.145.012.078-.061.148-.098.194-.022.03.005.045-.047.047-.024.001-.127.142-.195.194-.03.025-.045-.004-.048.05 0 .025-.143.12-.193.193-.038.055 0 .057-.048.097-.057.045-.204.2-.293.291-.014.016.017.083 0 .098-.047.037-.17.068-.24.144-.028.028-.144.135-.146.194-.003.056-.002.086-.05.097-.079.064-.172.12-.242.194-.015.017.018.084 0 .097-.008.007-.038-.008-.048 0-.052.04-.075.076-.144.145-.144.145-.29.296-.437.437-.074.071-.164.123-.242.193-.042.037-.057.113-.097.146-.04.033-.109.012-.145.048-.015.015.015.083 0 .097-.085.069-.335.187-.34.388-.191.051-.295.189-.339.389-.176-.045-.246.153-.34.24-.092.086-.204.152-.29.243-.182.19-.338.405-.534.58-.194-.047-.426.051-.58-.047-.02-.013-.082.015-.097 0-.013-.013.014-.09 0-.097-.036-.018-.114.024-.146 0-.04-.03-.096-.138-.146-.194-.071-.08-.138-.128-.144-.144-.027-.068.012-.171 0-.243-.01-.047-.05-.073-.05-.146.002-.14.133-.281.05-.435.157-.022.154-.203.29-.243v-.242c.159.12.098-.073.146-.146.03-.05.062-.057.096-.097.015-.018-.016-.08 0-.097.015-.014.085.016.098 0 .03-.04.024-.103.048-.145.03-.052.063-.057.096-.097.063-.073.138-.12.195-.195.031-.04.023-.104.048-.145.021-.035.074-.065.096-.096.03-.04.072-.064.097-.097.029-.036.017-.106.05-.146.06-.077.134-.126.194-.193.064-.071.097-.168.193-.194.037-.058-.047-.085-.049-.097-.002-.05.095-.037.098-.096.003-.066.092-.076.096-.146.007-.13.109-.1.097-.291h.146c-.048-.194.144-.146.096-.34.152-.062.191-.22.292-.339.048-.06.092-.092.144-.145.044-.044.069-.143.147-.145.015-.179.118-.27.144-.437.072-.024.122-.072.194-.096-.022-.16.09-.216.146-.292.055-.077.212-.095.145-.291.079-.013.083.047.145.048.02-.056-.024-.14 0-.193.02-.044.082-.02.097-.048.01-.018-.015-.085 0-.097.006-.005.045.007.049 0 .008-.018-.014-.085 0-.097.036-.03.08-.143.145-.242.018-.027.045.007.048-.048.003-.045.058-.087.097-.097 0-.115.085-.144.048-.292.082-.017.094-.097.146-.144a.665.665 0 0 1 .146-.097c.022-.146.08-.262.146-.388.011-.025.045.005.047-.05.006-.107.04-.1.097-.193.033-.05.005-.198.05-.242.009-.01.112-.084.096-.194-.022-.07-.042.005-.097 0-.008.057-.089.041-.146.048.037.102-.06.065-.096.097-.022.02-.028.082-.05.097-.016.013-.082-.015-.096 0-.033.04-.056.142-.146.146-.06.003-.06.08-.097.096-.079.037-.163.001-.241.05-.036.02-.067.073-.097.095-.03.022-.067.026-.096.05-.058.041-.098.11-.147.144-.017.013-.084-.015-.096 0-.005.006.005.048 0 .048-.019.01-.087-.013-.097 0-.022.029-.088.11-.146.196-.257.061-.58.198-.679.485-.161 0-.165.156-.338.145-.01.063-.094.075-.098.144-.002.07-.093.026-.145.049-.029.014-.025.077-.048.097-.097.083-.209.145-.29.242a.222.222 0 0 1-.147.048c-.08.14-.188.232-.29.34a5.418 5.418 0 0 1-.29.29c-.053.047-.096.1-.145.146-.044.04-.104.113-.146.146-.019.013-.084-.016-.098 0-.06.074-.09.077-.194.145-.025.018.009.045-.048.049a.932.932 0 0 0-.194.145c-.013.016.017.083 0 .097-.022.018-.077.027-.096.048-.068.075-.17.169-.242.29-.092.022-.122.105-.244.097-.105.17-.267.257-.386.437-.02.027-.046-.009-.05.049-.004.104-.193-.029-.144.194-.137.023-.202.148-.291.242-.148.154-.314.307-.486.484-.015.016.017.085 0 .097-.045.038-.174.07-.241.146-.06.067-.09.165-.146.241-.028.04-.068.047-.097.097-.015.027-.024.12-.049.147-.026.03-.115.02-.145.048-.023.023-.023.075-.048.098a1.92 1.92 0 0 0-.338.387c-.023.03-.08.067-.098.096-.02.032-.022.112-.048.146-.025.03-.122.014-.146.048-.014.019.005.073 0 .097-.006.022-.185.18-.242.241-.184.199-.38.373-.582.583-.06.061-.074.195-.193.194-.013.15-.12.25-.194.34-.023.028-.046-.01-.048.047-.005.096-.131.103-.194.194-.187-.018-.306.026-.438 0-.021-.004-.113-.175-.29-.097a.291.291 0 0 0-.048-.193c-.019-.032-.08-.07-.096-.097-.031-.053-.02-.1-.05-.146-.016-.025-.088-.076-.096-.097-.022-.054.045-.032.05-.047.009-.055-.105-.106-.098-.195a.745.745 0 0 1 .145-.339c.06-.081.16-.143.242-.243.038-.045.058-.098.098-.145.01-.015.09-.035.096-.048.01-.024-.015-.078 0-.097.08-.101.173-.156.241-.242.073-.093.122-.2.195-.291.073-.093.172-.157.243-.242.024-.032.026-.062.048-.098.036-.057.045-.105.096-.146.036-.027.094-.037.098-.096.002-.065.067-.015.096-.049.04-.046.004-.153.097-.144.141-.115.265-.222.388-.388.027-.038.142-.128.146-.194.003-.065.093-.077.096-.146.005-.068.214-.249.29-.339.026-.029-.006-.045.05-.048.06-.004.021-.063.048-.097.011-.016.09-.035.098-.049.007-.02-.017-.08 0-.097.014-.015.083.016.095 0 .033-.039-.021-.094.05-.096.014-.002.162-.11.193-.147.034-.038.014-.1.048-.144.019-.025.081-.027.098-.05.032-.046.012-.105.047-.144.022-.022.078-.026.099-.049.03-.038.016-.101.047-.145.02-.028.075-.025.096-.048.089-.097.185-.213.29-.34.045-.051.11-.097.147-.145.094-.122.148-.267.243-.389.043-.055.153-.088.194-.144.011-.018-.016-.084 0-.098.005-.004.045.006.048 0 .008-.017-.014-.085 0-.097.045-.037.078.023.097-.048.038-.15.141-.161.243-.29.028-.039.015-.105.047-.146.019-.023.082-.026.098-.048.038-.056.048-.138.096-.193.094-.112.22-.204.34-.292-.013-.143.109-.149.097-.29.09-.082.213-.152.29-.243.015-.016-.017-.083 0-.098.04-.032.14-.055.145-.145.004-.064.068-.014.097-.048.015-.016-.017-.083 0-.096.058-.048.172-.109.242-.195.08-.097.108-.209.196-.29.01-.064.092-.076.096-.145 0-.02.081-.077.096-.099.014-.015.04-.034.05-.048.039-.053.008-.137.047-.193.012-.016.085.014.098 0 .007-.01-.009-.038 0-.048.085-.11.184-.318.291-.486.02-.03.126-.089.144-.193-.143-.06-.144.092-.241.097-.081.005-.054.026-.098.049-.024.011.006.046-.048.047-.047.004-.187.068-.29.098-.132.092-.218.198-.389.29-.034.02-.104.022-.145.05-.081.054-.044.106-.193.144-.058.014-.016.025-.05.048-.077.06-.16.136-.241.196-.052.038-.102.05-.145.096-.04.04-.048.061-.097.097-.018.012-.083-.016-.098 0-.013.016-.031.085-.049.097-.057.04-.143.057-.241.096-.044.019-.078.095-.145.146-.032.023-.063.026-.099.048-.032.022-.023.029-.047.05-.023.018-.08.086-.097.096-.023.012-.06-.06-.097-.048-.002 0-.02.04-.048.048-.034.009-.14.023-.194.048-.022.01-.03.088-.048.097-.026.012-.073-.014-.098 0-.075.042-.1.086-.193.146-.048.03-.077.031-.146.048-.05.013-.024.037-.048.05-.069.03-.126.012-.195.046-.028.015-.072.087-.095.098-.07.031-.125.014-.195.05-.024.01.005.044-.049.045a1.5 1.5 0 0 0-.29.099c-.027.013-.075.087-.096.096-.108.044-.232.057-.34.097-.038.014-.141.02-.194.05-.044.022-.032.078-.097.096-.143.042-.288.022-.436.048-.005.001-.01.046-.05.05-.187.008-.436.075-.725.048-.072-.008-.172-.064-.291-.098-.097-.026-.221-.017-.29-.048-.028-.01-.06-.076-.098-.097a9.364 9.364 0 0 1-.242-.146c-.031-.018-.189-.097-.194-.195 0-.007.004-.04 0-.046-.03-.038-.123-.058-.146-.099-.042-.07-.039-.198-.096-.29-.037-.056-.015-.096-.049-.24-.042-.174-.043-.586 0-.874.012-.08.056-.04 0-.096 0 .001.046-.082.049-.097.015-.065.015-.097.048-.145.01-.018.03-.133.048-.146.005-.004.046.007.048 0 .03-.068.019-.19.048-.242.026-.042.12-.058.146-.097.033-.046.016-.103.05-.145.03-.04.116-.057.145-.097.031-.045.01-.111.049-.145a.812.812 0 0 0 .193-.097c.144-.103.307-.292.534-.097.003.068.007.137-.05.145-.085.045-.08.179-.193.194a1.74 1.74 0 0 0-.243.435c-.006.018.014.088 0 .098-.047.039-.039.066-.048.145-.002.015.009.089 0 .097-.005.003-.082.07-.049.097.062.052.002.014 0 .049-.018.291-.014.524.05.726.01.035.022.141.047.194.027.052.084.081.146.146.034.035.058.118.097.145.057.04.13.015.193.049.02.009.086.093.098.097.075.016.066-.043.097-.05.06-.008.088.05.096.05.105-.013.223-.069.34-.097.117-.03.239-.019.338-.049.015-.004.002-.046.049-.05.029 0 .132-.031.194-.047.049-.011.222-.097.34-.145.36-.147.74-.349 1.113-.533.024-.012-.005-.045.048-.048.14-.007.13-.04.243-.099.04-.02.095-.02.146-.048.032-.016.069-.08.095-.097.019-.009.086.015.099 0 .054-.065.088-.08.194-.144.03-.02.07-.083.097-.098.055-.03.097-.015.145-.048.042-.028.056-.117.097-.146.047-.03.103-.02.146-.048.086-.055.162-.098.24-.146.035-.019.048.004.05-.047.003-.06.17-.06.243-.098.03-.016.069-.08.097-.096.056-.03.098-.017.145-.048.116-.077.202-.187.338-.291.084-.063.218-.141.389-.194.11.028.047-.14.146-.146.049-.002.174-.083.192-.193.109.046.137-.055.243-.096-.027.009.03.052.048.048.035-.008.034-.095.098-.098.087-.005.147-.085.241-.145.067-.042.137-.061.194-.097.044-.027.03-.082.098-.097-.02.004.026.074.048.048.009-.011.09-.186.193-.145.07-.011.018-.145.098-.146.121-.04.19-.132.338-.145.092-.042.112-.13.194-.194.043-.032.105-.019.147-.048.038-.028.057-.066.097-.098.067-.052.123-.134.193-.194.039-.032.106-.018.146-.049.083-.063.197-.215.29-.337.03-.04.067-.046.098-.098.014-.027.023-.116.047-.146.033-.037.16-.006.194-.048.04-.05-.013-.167.048-.193h.242c-.013-.078.047-.083.049-.146.078.1.244.113.436.098.066.241.323.29.29.629 0 .17-.172.074-.24.196-.089.167-.267.252-.39.386-.033.037-.014.101-.047.145-.012.016-.082-.014-.098 0-.015.016.016.078 0 .097-.053.069-.14.12-.192.194-.05.067-.098.172-.146.242-.029.044-.07.063-.097.097-.03.038-.016.103-.05.145-.058.081-.132.113-.193.195-.025.035-.076.065-.096.097-.012.017.016.083 0 .096-.07.058-.126.144-.194.243-.02.027-.084.07-.097.097-.03.055-.016.098-.048.145-.059.082-.134.12-.194.194-.033.04-.014.109-.048.145-.019.02-.084.028-.098.049-.03.044-.021.103-.05.145-.018.033-.077.067-.095.096-.026.044-.02.093-.048.146-.02.034-.079.069-.098.097-.049.08-.063.063-.096.193-.016.064-.185.142-.146.292-.1.008-.18.08-.242.145-.06.063-.095.178-.145.242-.048.06-.15.134-.195.195-.031.044-.018.089-.047.144-.02.035-.077.066-.098.098-.05.072-.091.164-.146.24-.02.033-.079.07-.097.1-.02.033-.02.105-.048.145-.095.128-.297.202-.339.435.118.03.166-.093.243-.145.076-.05.065-.064.194-.097.052-.013.037-.082.097-.096.081-.022.113-.03.194-.097.04-.037.155-.266.242-.244.01.003 0 .069.048.048.022-.007-.003-.045.048-.048.067-.003.011-.074.049-.096.09-.054.215-.048.29-.145.096-.034.13-.13.146-.242.113 0 .142-.084.29-.049.023-.044.043-.086.097-.097.054-.012.033-.096.098-.097.005-.124.18-.077.242-.145.124-.004.078-.181.146-.242h.193c-.093-.173.128-.133.195-.195.016-.016-.016-.08 0-.097.014-.015.082.017.096 0 .014-.015-.016-.083 0-.096.026-.023.12.024.145 0 .015-.016-.016-.085 0-.098.043-.033.108-.014.145-.048.063-.056.086-.146.145-.194.02-.015.082.018.098 0 .013-.013-.016-.086 0-.096.022-.013.073.006.097 0 .056-.013.017-.027.047-.05.03-.019.071-.081.099-.096.017-.009.084.015.096 0 .006-.008-.007-.042 0-.049.027-.019.07-.082.097-.096.055-.03.097-.018.144-.048.037-.023.067-.075.098-.098a.28.28 0 0 1 .098-.048c.056-.025.058-.104.097-.145.028-.032.133 0 .096-.097.063-.067.237-.02.241-.146.11.02.123-.291.194-.144.126-.006.053-.208.243-.146 0-.087.059-.096.098-.146.091-.113.246-.216.29-.436.146.13.242-.08.291-.195.126.026.09-.07.194-.096.022-.006.08.013.096 0 .017-.01-.014-.082 0-.097.016-.015.083.016.098 0 .014-.015-.017-.082 0-.097.009-.007.04.009.048 0 .103-.089.179-.182.291-.29.032-.031.03-.046.05 0 .068-.011.016-.144.094-.144.013-.055.098-.035.098-.1.153-.036.313-.005.533.049.043.012.084.033.146.05.041.009.119.053.193.095.023.014.124.029.146.05.016.014-.016.083 0 .097.006.004.045-.007.048 0 .024.05.028.286 0 .387-.028.107-.106.172-.194.291-.036.049-.059.096-.096.145-.027.037-.077.067-.097.097-.011.018.016.084 0 .097-.017.014-.087.033-.098.048-.043.062-.08.212-.144.292-.031.037-.066.053-.097.096-.036.05-.06.096-.098.146-.052.067-.132.13-.193.242-.019.033-.023.106-.05.145-.026.041-.078-.019-.097.049a.429.429 0 0 1-.095.193c-.02.029-.046-.007-.049.05-.002.055-.092.121-.145.193-.037.05-.061.096-.098.145-.055.074-.114.136-.194.243-.048.065-.087.103-.145.193-.014.022-.04.036-.049.048-.022.04-.02.1-.048.147-.012.019-.09.031-.097.048-.01.026.014.073 0 .097-.018.031-.08.069-.096.097-.011.018.015.085 0 .096a.503.503 0 0 0-.146.194c-.052.098-.09.198-.145.291-.017.027-.046-.008-.048.049a.56.56 0 0 1-.048.097c-.022.032-.078.066-.099.097-.06.091-.023.224-.193.24-.035.07-.015.164-.048.244-.01.023-.088.029-.097.048-.019.04.019.107 0 .146-.012.023-.045-.005-.048.048-.004.07-.093.105-.099.195-.002.043-.056.085-.096.096-.008.144-.05.26-.097.388-.015.043-.02.13-.048.193-.011.028-.089.077-.096.098-.03.08-.028.132-.05.193-.045.134-.065.3-.193.437.102-.022.204-.093.29-.145.03-.019.07-.084.097-.098.056-.03.1-.014.145-.047.017-.014.035-.092.048-.099.021-.008.083.015.099 0 .029-.03.018-.118.048-.145.036-.03.108-.02.145-.049.03-.021.066-.068.096-.097.03-.024.047.008.05-.048.002-.064.067-.014.097-.048.025-.028.02-.12.05-.145.031-.031.108-.022.145-.049.029-.023.063-.07.095-.097.07-.06.13-.135.194-.194.037-.032.113-.011.145-.048.034-.038.011-.115.048-.145.087-.043.174-.08.244-.146.035-.035.07-.051.096-.096.035-.061.002-.055.048-.098.018-.015.08.017.098 0 .016-.015-.017-.08 0-.097.032-.028.113-.017.145-.047.035-.034.014-.11.05-.148.022-.022.11.018.094-.046.01-.077.052-.002.05 0 .07-.006.054-.106.193-.099.042-.054.064-.13.05-.242.12.126.171-.032.242-.096.08-.071.116-.169.193-.242.075-.07.203-.089.242-.194.057-.025.059-.1.098-.145.031-.036.142-.008.048-.049 0-.05.06-.034.097-.048.012-.004.132-.036.145-.048.03-.03.03-.144.097-.196.035-.026.109-.015.146-.048.066-.053.115-.13.193-.193.069-.056.128-.166.243-.146.055-.106.161-.16.193-.29.056-.008.113-.016.146-.048.03-.032.017-.117.048-.146.035-.031.112-.016.146-.049.024-.022.023-.073.048-.096.035-.033.115-.012.146-.048.013-.017-.016-.083 0-.098.036-.027.183-.06.193-.193.16-.018.215-.141.339-.194.057-.025.06-.1.097-.146.021-.024.147-.144.194-.146.072-.002.072-.141.146-.193.032-.023.11.017.144 0 .026-.013.03-.087.05-.097.054-.03.169-.005.194-.097.035.06.12.023.193.049.145.05.25.15.34.291.03.046.03.075.048.146.01.039.065.077.048.144-.008.034-.046.044-.048.049-.022.108.033.25-.049.339-.023.024-.188.091-.194.194-.003.07-.13.127-.193.194-.015.015.016.084 0 .097a.222.222 0 0 1-.145.048c-.052.188-.185.33-.292.484-.095.14-.199.293-.29.437-.047.073-.102.167-.146.242-.015.027-.087.074-.097.097-.01.026.007.068 0 .097-.014.056-.139.204-.194.29-.021.034-.02.108-.048.146-.016.021-.085.028-.097.05-.048.079-.042.197-.096.29-.016.026-.074.065-.097.097-.022.028-.083.072-.096.096-.053.087-.05.206-.098.292-.02.033-.07.053-.097.096-.022.034-.029.058-.049.097-.022.04-.022.094-.048.145-.016.03-.084.072-.096.097-.044.087-.054.203-.098.29-.015.033-.083.07-.097.097-.029.054-.025.096-.048.145-.042.088-.058.16-.098.243-.013.028-.086.073-.097.097-.01.028.007.069 0 .098-.012.048-.038.024-.048.048-.045.104-.05.194-.097.29-.015.032-.082.07-.096.098-.03.053-.024.097-.049.145-.043.088-.12.194-.145.29-.008.028.011.07 0 .098-.012.028-.087.073-.097.097-.011.027.007.068 0 .096-.013.05-.063.107-.097.194-.035.09-.064.205-.097.291-.091.233-.179.525-.29.823-.065.172-.145.353-.195.533a4.86 4.86 0 0 0-.193 1.31c.012.099.13.094.145.195.373.02.607-.128.872-.293.03-.018.07-.081.097-.096.018-.011.084.015.097 0 .006-.007-.008-.045 0-.049.033-.021.107-.02.145-.048.05-.038.164-.171.243-.242.039-.035.14-.055.145-.146.002-.045.058-.04.098-.048.096-.025.041-.086.096-.146a1.25 1.25 0 0 1 .242-.193c.027-.019.13-.092.194-.147.082-.067.16-.17.242-.242.03-.026.063-.026.096-.048.024-.015.138-.09.194-.145.017-.015-.015-.084 0-.097.01-.009.04.008.049 0 .176-.14.39-.436.581-.63.154-.155.323-.3.485-.436.073.002.022-.1.049-.146.016-.024.143-.006.096-.096.15-.063.256-.166.388-.244.084-.077.121-.204.194-.29.064-.074.169-.127.243-.193.062-.056.13-.132.194-.194.04-.04.056-.107.096-.145.017-.016.081.015.098 0 .016-.018-.017-.08 0-.098.064-.066.13-.124.193-.194.255-.28.526-.538.776-.824.352-.117.746-.011.92.194.022.717-.465.924-.582 1.503-.158.062-.21.305-.29.435-.032.055-.067.087-.097.146-.037.073-.017.135-.047.194-.014.026-.048-.007-.05.049-.002.064-.092.075-.097.146 0 .022-.037.07-.047.096-.017.035-.025.102-.05.145-.011.02-.089.032-.097.049-.042.095-.044.147-.097.242-.014.026-.044-.007-.047.049-.003.025-.037.069-.05.096-.043.102-.106.227-.145.34.008-.021.072.03.048.048-.089.073-.046.028-.096.193-.014.046-.094.072-.097.195.005.119.16.01.145-.05.05-.03.051-.11.145-.095.071.113.13-.191.341-.097.05-.06.093-.1.144-.146.046-.04.095-.104.146-.145.054-.045.12-.025.193-.097.041-.04.068-.094.098-.146.098.094.198-.086.339-.096.059-.02.055-.11.097-.146.05-.041.135-.006.194-.048.042-.03.056-.114.097-.146.017-.014.082.017.096 0a1.78 1.78 0 0 1 .34-.29c.091-.063.162-.179.29-.146.083-.2.29-.297.436-.437.139-.13.283-.27.389-.435.043-.038.108-.052.193-.049-.039-.168.175-.14.242-.193.017-.014-.014-.083 0-.097.017-.017.08.015.096 0 .037-.034.055-.064.098-.097.144-.11.285-.237.437-.34-.008-.098.066-.08.097-.146.034-.075-.01-.146.048-.194.093-.09.088.029.242 0 .067-.122.216-.232.339-.338.04-.036.051-.14.145-.146.094-.004.139-.123.243-.145.072-.016.072.047.097.049.039.002.047-.056.098-.05 0 0 .012.048.047.05.048.003.098-.002.145 0 .144.163.23.385.389.533-.062.182-.02.512-.097.775-.006.016-.101.2-.05.243.063.05-.008.02 0 .096.01.086.048.104.05.194-.185-.005-.073.283-.244.29.04.255-.095.484-.145.68-.02.083-.021.129-.048.242-.01.046-.04.074-.047.145-.018.153-.079.225-.147.388-.054.13-.055.173-.097.339-.013.056-.212.285-.145.486-.178.083-.136.283-.194.435-.008.02-.045-.001-.049.048-.007.159-.078.086-.096.243-.016.134-.032.13-.097.242-.023.04-.02.097-.049.147-.02.034-.073.064-.096.096-.031.042-.064.153-.097.242-.007.016.013.086 0 .096-.004.004-.047-.005-.048 0-.03.09-.019.224-.049.291-.014.028-.08.025-.097.049-.013.016.015.084 0 .097-.047.037-.073.035-.098.097-.006.017.014.085 0 .096-.038.033-.092-.02-.097.048-.003.072-.139.162-.097.34-.113-.032-.117.1-.145.145-.035.061-.068.13-.095.195-.01.017.012.084 0 .097-.007.004-.047-.007-.05 0-.007.016.014.084 0 .097-.005.002-.046-.006-.049 0-.008.016.014.086 0 .096-.002.002-.048-.002-.048 0-.004.073.054.061 0 .146-.017.025-.045-.008-.049.048-.003.07-.094.074-.145.145-.037.053-.009.129-.048.195-.024.04-.12.058-.145.096-.011.018.015.084 0 .097-.005.005-.046-.006-.048 0-.008.017.013.086 0 .097-.048.04-.063.043-.097.097-.012.018-.045.042-.049.05-.052.098-.052.243-.146.338.018.082-.037.09-.097.097.009.056-.01.085-.048.097.08.097-.004.06 0 .194-.059.008-.066.059-.097.097-.024.029-.077.067-.098.096-.015.023-.09.083-.095.097-.014.035.02.117 0 .146-.046.061-.139.133-.193.193-.063.067-.092.175-.196.146-.03.041-.01.162-.048.193-.007.005-.045-.007-.049 0-.01.018.015.086 0 .097-.011.01-.09.037-.096.05-.038.071-.019.168-.048.24-.01.024-.09.03-.098.05-.011.025.015.073 0 .095-.031.056-.115.085-.144.148-.03.06-.01.135-.05.193-.01.015-.085-.015-.096 0-.05.06-.085.205-.146.29-.04.058-.1.083-.145.146-.053.07-.072.157-.145.242-.025.029.006.045-.05.049-.088.004-.034.102-.096.193-.038.057-.101.087-.145.144-.089.117-.158.345-.34.436-.067.063-.02.24-.145.243-.023.105-.135.128-.193.195-.07.08-.083.165-.147.242-.022.029-.079.07-.096.097-.017.026-.024.12-.05.145-.025.03-.113.025-.143.048-.034.028-.033.101-.097.098" fill="#0B0E0F" mask="url(#b)"/></g><path d="M102.535 3.264h.127c.148 0 .269-.05.269-.17 0-.105-.078-.176-.248-.176a.637.637 0 0 0-.148.014v.332zm-.007.657h-.268V2.763c.106-.022.254-.035.444-.035.22 0 .318.035.403.084a.32.32 0 0 1 .113.254c0 .127-.099.226-.24.269v.014c.113.042.176.127.211.282.036.176.057.247.085.29h-.29c-.035-.043-.055-.15-.091-.283-.021-.127-.092-.184-.24-.184h-.127v.467zm-.714-.607c0 .515.382.924.905.924.508 0 .882-.41.882-.918 0-.515-.374-.931-.89-.931-.515 0-.897.416-.897.925zm2.084 0c0 .656-.516 1.172-1.186 1.172a1.174 1.174 0 0 1-1.194-1.172c0-.643.53-1.159 1.194-1.159.67 0 1.186.516 1.186 1.159z" fill="#2E94C6"/></g></svg>