<svg width="60" height="61" viewBox="0 0 60 61" xmlns="http://www.w3.org/2000/svg" xmlns:xlink="http://www.w3.org/1999/xlink"><defs><path id="a" d="M29.98 59.589h29.979V.041H0V59.59z"/></defs><g fill="none" fill-rule="evenodd"><g transform="translate(0 .37)"><mask id="b" fill="#fff"><use xlink:href="#a"/></mask><path d="M29.979 58.767C13.905 58.767.828 45.78.828 29.815.828 13.851 13.905.863 29.979.863c16.075 0 29.152 12.988 29.152 28.952 0 15.964-13.077 28.952-29.152 28.952m0-58.726C13.449.041 0 13.398 0 29.815S13.448 59.59 29.98 59.59s29.98-13.357 29.98-29.774S46.51.041 29.979.041" fill="#7D7D7E" mask="url(#b)"/></g><path d="M23.157 24.024l1.356-.077 1.952-.115a3.782 3.782 0 0 0-1.818-2.377l-1.49 2.57zm10.106 17.559h-.45v1.07h.45c.392 0 .587-.21.587-.533 0-.327-.198-.537-.587-.537m-8.401-20.875c-.529-.25-1.173-.423-1.958-.47v.266c.652.016 1.264.18 1.812.456l.146-.252zM38.44 42.952h.951l-.474-1.33zM22.932 24.039l1.547-2.672a3.77 3.77 0 0 0-1.575-.396v2.326l.003.005h-.003v.737h.028zm-.215-3.811l-.13-.005a5.15 5.15 0 0 0-1.376.207l.178.304a4.26 4.26 0 0 1 1.328-.233v-.273zm-.257-.38l.193.003.064.002v-.336h-2.049l.346.584a5.361 5.361 0 0 1 1.447-.248v-.005zm.257 1.122a3.74 3.74 0 0 0-1.084.178l1.084 1.83V20.97zM17.91 42.952h.952l-.475-1.33zm11.255-10.977H27.95v4.97h1.216c1.878 0 2.755-1.226 2.755-2.485 0-1.26-.877-2.485-2.755-2.485m-5.603 1.915c-.938 0-1.53.7-1.53 1.606 0 .905.592 1.604 1.53 1.604.947 0 1.538-.7 1.538-1.604 0-.907-.59-1.606-1.538-1.606m-1.507 8.22c0-.32-.187-.527-.594-.527h-.452v1.043h.452c.41 0 .594-.2.594-.517m-3.792-8.219c-.938 0-1.624.7-1.624 1.606 0 .905.686 1.604 1.624 1.604.948 0 1.539-.7 1.539-1.604 0-.907-.591-1.606-1.539-1.606m4.453-9.852v-.69L21.45 21.21a3.8 3.8 0 0 0-2.162 2.076l2.81 1.161c.108-.316.415-.394.618-.409" fill="#7D7D7E"/><path d="M50.594 37.617c-1.26 0-2.154-.905-2.154-2.121 0-1.217.894-2.123 2.154-2.123 1.268 0 2.164.906 2.164 2.123 0 1.216-.896 2.121-2.164 2.121zm-3.379-.102h-.573V35.28c0-.898-.252-1.39-1.104-1.39-.121 0-1.233.078-1.233 1.553v2.072h-.573v-3.15c0-.216-.027-.596-.044-.889h.591c.026.217.026.431.026.647h.018c.251-.44.825-.75 1.363-.75 1.035 0 1.53.577 1.53 1.579v2.563zm-1.176 6.273H44.32v-.169h.215v-2.05h-.215v-.17h1.669v.521h-.188v-.33H44.77v.906h.965v.182h-.965v.92h1.082v-.33h.187v.52zm-3.842.028c-.69 0-1.227-.513-1.227-1.222.004-.712.537-1.225 1.21-1.225.35 0 .604.12.749.326V41.4h.19v.667h-.173c-.084-.337-.392-.494-.753-.494-.573 0-.979.438-.979 1.021 0 .594.42 1.022.986 1.022.35 0 .633-.151.82-.404l.178.126c-.234.31-.57.478-1 .478zm-5.1-14.855a4.269 4.269 0 0 1-1.866-.428 4.22 4.22 0 0 1-2.39-3.287l-.359.045c.057.608.213.999.217 1.007l-.349.143c-.04-.095-.933-2.34.73-4.645.032-.047.543-.78 1.519-1.341l-.18-.372-4.346 4.272c.274.443.203.937.203.937-.146.798-.698 1.048-1.194 1.103v.65h.317c.111 0 .2.084.2.189a.193.193 0 0 1-.2.188h-.945a.194.194 0 0 1-.2-.188c0-.105.089-.19.2-.19h.346v-.634c-.332-.004-.587-.075-.587-.075l-1.405-.212a4.263 4.263 0 0 1-4.022 2.838c-2.348 0-4.26-1.898-4.26-4.23 0-1.78 1.113-3.306 2.684-3.93l-.185-.311c-.919.321-1.644.93-2.163 1.827a5.587 5.587 0 0 0-.689 2.1l-.375-.028c.003-.039.28-3.202 3.034-4.226l-.382-.646h-1.002v-.594h5.084v.594h-1.628v.344c.86.051 1.566.247 2.143.527l1.011-1.75-.473-1.151-.842.016s-.346.049-.346-.326c0 0-.056-.504.314-.504h2.459c.119 0 .169.058.194.108.143.269-.01.361-.516.52a4.21 4.21 0 0 1-.862.169l2.43 5.911c.085-.034.207-.086.355-.156v-.753h-.317a.194.194 0 0 1-.199-.19c0-.106.09-.19.2-.19h.944c.111 0 .2.084.2.19 0 .105-.089.19-.2.19h-.345v.615c1.233-.635 3.527-2.186 3.691-5.005l.013-.196.572-.066-.83-1.722.57-.718h-.797a.183.183 0 0 1-.13.084l-.983.136a.19.19 0 0 1-.21-.164.19.19 0 0 1 .158-.215l.984-.133a.173.173 0 0 1 .095.013v-.003h1.105l.03-.037a.226.226 0 0 0-.049-.076c-.067-.073-.224-.159-.584-.159h-.568a.2.2 0 0 1-.125.065l-1.114.127c-.115.013-.22-.075-.235-.198-.012-.123.068-.23.184-.244l1.114-.128a.208.208 0 0 1 .197.098h.547c.378 0 .649.085.8.257.03.033.05.065.069.097l.032.12.014-.003.031-.01.954-.283.282.856-1.218.324-.125-.345-.476.6 1.792 3.718.3-.325c-.175-.042-.33-.124-.387-.27 0 0-.08-.589 1.1-.422l-.063.735s-.201.02-.427-.004l-.435.468.087.18a4.757 4.757 0 0 1 1.954-.426v.375a4.361 4.361 0 0 0-1.79.394l.145.3a4.278 4.278 0 0 1 1.769-.382c2.35 0 4.261 1.898 4.261 4.231 0 2.332-1.91 4.23-4.261 4.23zm2.959 14.827h-.658v-.169h.23l-.173-.473h-1.078l-.177.473h.233v.169h-.64v-.169h.184l.753-2.05h-.173v-.17h.735v.17h-.176l.753 2.05h.187v.169zm-3.968-10.312h.686l1.295 3.4h.018l1.293-3.4h.652l-1.65 4.04h-.643l-1.651-4.04zm.652 10.312h-1.587v-.169h.216v-2.05h-.216v-.17h.665v.17h-.216v2.03h.947v-.33h.191v.519zm-2.25-11.451a.421.421 0 0 1-.418-.414c0-.241.209-.414.418-.414.208 0 .417.173.417.414a.421.421 0 0 1-.417.414zm-.288 5.178h.574v-4.039h-.574v4.04zm-.918 5.322h-.47v.782h.247v.169h-.696v-.169h.216v-2.05h-.216v-.17h.92c.519 0 .805.307.805.72 0 .415-.286.718-.806.718zm-3.919-5.322h-2.041v-6.11h2.041c1.539 0 3.233 1.019 3.233 3.055 0 2.036-1.694 3.055-3.233 3.055zm1.905 4.405h-.187v-.33h-.601v2.03h.233v.168h-.697v-.169h.234v-2.03h-.601v.331h-.191v-.52h1.81v.52zm-2.94 1.868h-1.72v-.169h.216v-2.05h-.216v-.17h1.67v.521h-.188v-.33H27.06v.906h.966v.182h-.966v.92h1.082v-.33h.187v.52zm-4.768-6.171c-1.26 0-2.154-.905-2.154-2.121 0-1.217.895-2.123 2.154-2.123 1.27 0 2.164.906 2.164 2.123 0 1.216-.894 2.121-2.164 2.121zm1.98 6.171h-.662v-.169h.208l-.72-1.014-.34.4v.614h.216v.169h-.665v-.169h.216v-2.05h-.216v-.17h.665v.17h-.216v1.159l.965-1.16h-.205V41.4h.654v.168h-.198l-.728.868.845 1.183h.18v.169zm-3.015 0h-.379l-.612-.98h-.526v.811h.247v.169h-.696v-.169h.215v-2.05h-.215v-.17h.933c.52 0 .803.31.803.714 0 .323-.18.572-.527.656l.534.85h.223v.169zm-4.262-6.171c-.54 0-1.208-.232-1.582-.776h-.018v.674h-.573v-6.524h.573v3.158h.018c.374-.544 1.042-.776 1.582-.776 1.268 0 2.163.906 2.163 2.123 0 1.216-.895 2.121-2.163 2.121zm1.261 6.171h-.658v-.169h.23l-.173-.473h-1.078l-.177.473h.233v.169h-.64v-.169h.184l.753-2.05h-.173v-.17h.735v.17h-.176l.753 2.05h.187v.169zm-3.297-2.22h-.223v2.051h.216v.169h-.686v-.169h.244v-1.861l-.852 1.307h-.096l-.852-1.32v1.874h.248v.169h-.672v-.169h.216v-2.05h-.223v-.17h.46l.876 1.36.88-1.36h.464v.17zM10.02 37.67c-1.833 0-3.206-1.355-3.206-3.21s1.373-3.21 3.206-3.21c.766 0 1.59.284 2.129.966l-.547.406c-.243-.397-.93-.802-1.582-.802-1.581 0-2.528 1.234-2.528 2.64 0 1.406.947 2.64 2.528 2.64.643 0 1.303-.207 1.764-.914l.513.362c-.41.63-1.26 1.122-2.277 1.122zm3.682-.155h.575v-4.039h-.575v4.04zm.288-6.006c.208 0 .417.173.417.414s-.21.414-.417.414a.422.422 0 0 1-.418-.414c0-.241.21-.414.418-.414zm20.136-19.35l.006-.001c.002-.002.003-.003.005-.003.219-.065.224.025.224.025.015.046.004.056-.005.06l-.01.002.007.028.012-.005c.023-.007.04.059.04.059.033.082-.009.08-.009.08l.01.032.011.002.2.632c.058.188.276.258.276.258.256.093.3.362.3.362l.203.648-1.06.315-.2-.636s-.117-.246.04-.467c0 0 .14-.179.08-.367l-.2-.632.008-.011-.008-.03s-.034.025-.052-.062c0 0-.025-.063-.003-.07l.012-.003-.009-.027s-.004.003-.01.004c-.01.002-.024 0-.038-.045 0 0-.046-.079.17-.149zm2.01-1.137c.065-.394.382-.67.707-.617.326.053.537.415.474.809l-.443 2.682-1.274.38.536-3.254zm.472 4.094l-.054-.978 1.397-.415-.027 1.043-1.316.35zm-.949 2.394l.927-.234.04.685-.76.17-.207-.621zm-.138.034l.206.62-1.149.258-.216-.586 1.16-.292zm-.291-.88l.247.745-1.163.294-.272-.741 1.188-.297zm-.046-.134l-1.19.3-.292-.794 1.213-.322.27.816zm-.177-.986l-.285-.86 1.679-.5.058.972-1.452.388zm1.523.793l.047.795-.963.244-.246-.746 1.162-.293zm-1.207.158l-.271-.818 1.416-.377.054.894-1.199.301zm1.345-.337l-.05-.898 1.301-.348-.023.937-1.228.309zm1.198.796l-.018.733-1.078.243-.04-.69 1.136-.286zm-1.144.14l-.046-.793 1.215-.306-.021.811-1.148.289zm4.62 20.421h.574v-4.039h-.574v4.04zm.704-5.592a.421.421 0 0 1-.418.414.421.421 0 0 1-.416-.414.42.42 0 0 1 .416-.414c.21 0 .418.173.418.414zM29.979 2.006c-15.67 0-28.374 12.616-28.374 28.18 0 15.561 12.704 28.178 28.374 28.178 15.67 0 28.374-12.617 28.374-28.179 0-15.563-12.704-28.18-28.374-28.18z" fill="#7D7D7E"/><path d="M33.542 18.266l-.34.04c-.153 1.65-1.007 3.123-2.475 4.275a9.073 9.073 0 0 1-1.673 1.033v.09c.34.04.48.171.48.171.115.057.211.121.294.194l4.42-4.344-.707-1.466.001.007zM50.594 33.89c-.938 0-1.529.7-1.529 1.606 0 .905.59 1.604 1.53 1.604.946 0 1.537-.7 1.537-1.604 0-.907-.59-1.606-1.538-1.606M36.58 24.565l-1.464-3.04a3.76 3.76 0 0 0-1.797 3.471l3.255-.41.006-.02" fill="#7D7D7E"/><path d="M34.91 21.098l-.145-.3c-.898.526-1.368 1.2-1.377 1.212a4.753 4.753 0 0 0-.92 3.094l.352-.045a4.204 4.204 0 0 1 2.09-3.962m3.804.231a3.781 3.781 0 0 0-1.617-.36 3.78 3.78 0 0 0-1.565.338l1.398 2.9a.504.504 0 0 1 .652.484.507.507 0 0 1-1.01.085l-3.234.408a3.782 3.782 0 0 0 3.759 3.309c.58 0 1.128-.129 1.617-.36a3.786 3.786 0 0 0 2.14-3.4 3.787 3.787 0 0 0-2.14-3.404m-9.764 3.138a.61.61 0 1 0-.15 1.202v-.609a.14.14 0 1 1 .282 0v.613a.612.612 0 0 0 .484-.596.613.613 0 0 0-.616-.61m-3.918-3.676l-.15.26a4.24 4.24 0 0 1 2.059 2.753l.28-.016c-.093-.49-.522-2.12-2.19-2.996M23.47 24.47c-.108.008-.182-.01-.233.026a.284.284 0 0 0-.113.197c-.012.045-.052.236.073.348.048.042.124.031.23.053l3.05.48a3.789 3.789 0 0 0 .076-1.25l-3.084.145zm3.833-.18l-.279.012a4.203 4.203 0 0 1-.08 1.345l.272.043s.58.147.656-.375l.018-.21.013-.103.009-.27c-.02-.526-.609-.441-.609-.441" fill="#7D7D7E"/><path d="M22.06 24.66c0-.008.003-.017.003-.026l-2.843-1.173a3.706 3.706 0 0 0-.223 1.27c0 2.074 1.7 3.76 3.789 3.76a3.791 3.791 0 0 0 3.547-2.44l-3.342-.501c-1.12-.198-.93-.89-.93-.89m3.155-4.185c1.826.978 2.291 2.813 2.383 3.29l.554-.032-2.003-4.873-.934 1.615z" fill="#7D7D7E"/></g></svg>