<svg width="104" height="26" viewBox="0 0 104 26" xmlns="http://www.w3.org/2000/svg" xmlns:xlink="http://www.w3.org/1999/xlink"><defs><path id="a" d="M73.983.154H.606v23.984h73.377V.154z"/></defs><g fill="none" fill-rule="evenodd"><path d="M19.822 12.487a6.699 6.699 0 0 0-1.815-.25 6.656 6.656 0 0 0-6.403 8.49 5.945 5.945 0 1 1-7.423-7.504 6.659 6.659 0 0 0 8.182-8.21 5.944 5.944 0 1 1 7.46 7.474" fill="#88BD3F"/><path d="M18.027 24.845a5.945 5.945 0 1 1 0-11.89 5.945 5.945 0 0 1 0 11.89M5.945 12.762a5.945 5.945 0 1 1 0-11.888 5.945 5.945 0 0 1 0 11.888" fill="#5B9440"/><g transform="translate(29.31 .708)"><mask id="b" fill="#fff"><use xlink:href="#a"/></mask><path d="M8.204 23.794v-1.718a2.33 2.33 0 0 1-.285.552c-.658 1.005-1.825 1.509-3.498 1.509-1.25 0-2.197-.396-2.845-1.187-.644-.79-.967-1.94-.97-3.45.003-2.17.532-3.678 1.59-4.53 1.06-.855 2.934-1.28 5.623-1.28h.385v-1.957c0-.78-.176-1.379-.527-1.797-.35-.417-.854-.628-1.512-.628-.691 0-1.223.234-1.596.7-.373.464-.56 1.129-.56 1.993H.974c-.044-1.571.385-2.8 1.29-3.685.904-.884 2.187-1.328 3.85-1.328 1.783 0 3.087.402 3.912 1.206.824.805 1.238 2.072 1.238 3.803v12.14h-3.06v-.343zm0-7.837h-.67c-1.253 0-2.207.294-2.861.878-.652.584-.977 1.433-.98 2.541.003.87.146 1.494.436 1.87.29.379.77.57 1.442.57.905 0 1.581-.37 2.029-1.106.448-.737.649-1.812.604-3.228v-1.525zm11.885 8.18v-1.793c-.895 1.195-1.968 1.793-3.22 1.793-1.521 0-2.631-.448-3.33-1.34-.699-.893-1.048-2.312-1.048-4.255V13.3c0-2.144.358-3.73 1.073-4.764.716-1.033 1.818-1.55 3.305-1.55 1.363 0 2.437.486 3.22 1.457V.154h3.061v23.983h-3.06zm-.48-13.978c-.377-.514-.968-.77-1.776-.77-.807 0-1.386.256-1.733.77-.349.513-.522 1.377-.522 2.592v5.925c0 1.249.14 2.082.42 2.493.281.414.842.62 1.684.62.92 0 1.551-.321 1.894-.963.342-.641.513-1.81.513-3.507v-4.835c.056-1.037-.104-1.812-.48-2.325zm7.88 6.485v1.201c0 1.612.151 2.678.452 3.194.303.518.922.776 1.86.776.805 0 1.393-.204 1.768-.611.373-.408.544-1.035.51-1.884v-.566h3.06v.566c.079 1.634-.32 2.845-1.195 3.633-.876.789-2.257 1.184-4.143 1.184-1.975 0-3.364-.478-4.168-1.432-.802-.954-1.205-2.593-1.205-4.916V13c0-2.042.439-3.555 1.315-4.537.876-.984 2.23-1.474 4.06-1.474 1.863 0 3.229.48 4.092 1.442.865.961 1.299 2.486 1.299 4.576v3.638h-7.705zm4.644-3.578c0-1.431-.169-2.415-.503-2.952-.336-.536-.945-.806-1.828-.806-.816 0-1.405.294-1.769.882-.363.586-.544 1.547-.544 2.876v1.308h4.644v-1.308zm14.034-.961H43.16v-.481c.033-.8-.09-1.385-.37-1.756-.28-.373-.74-.56-1.38-.56-.582 0-1.019.137-1.31.41-.292.273-.437.683-.437 1.228 0 .558.144 1.014.436 1.37.29.346.965.892 2.027 1.639 1.707 1.206 2.852 2.164 3.433 2.88.57.715.856 1.535.856 2.46 0 1.554-.443 2.749-1.33 3.586-.887.837-2.144 1.256-3.772 1.256-1.751 0-3.052-.408-3.9-1.224-.813-.76-1.216-1.89-1.204-3.387v-.772h3.008v.485c-.044.86.11 1.502.46 1.932.353.43.897.644 1.634.644.704 0 1.228-.166 1.575-.502.346-.335.519-.836.519-1.503a2.4 2.4 0 0 0-.594-1.59c-.39-.468-1.165-1.107-2.323-1.92-1.529-1.074-2.55-1.95-3.062-2.63-.514-.68-.772-1.491-.772-2.428 0-1.361.413-2.412 1.24-3.15.826-.736 2-1.104 3.52-1.104 1.697 0 2.925.368 3.686 1.102.726.693 1.082 1.764 1.071 3.214l-.004.316v.485zm6.57 9.341c.36.246.997.37 1.916.37V23.9c-.77.168-1.414.247-1.927.237-1.319 0-2.245-.263-2.782-.788-.537-.524-.804-1.423-.804-2.696V9.6h-2.137V7.33h2.137V4.377l3.06-1.274V7.33h2.453v2.269H52.2v10.558c0 .614.179 1.044.537 1.29zm7.258-10.371c-.563.687-.846 1.9-.846 3.641v9.42h-3.06V7.33h3.06v1.977h.007l.419-.587c.926-1.14 2.06-1.719 3.399-1.74v3.065c-1.42 0-2.414.343-2.979 1.03zm10.928 11.001c-.066.19-.162.375-.285.552-.658 1.005-1.824 1.509-3.497 1.509-1.25 0-2.2-.396-2.846-1.187-.644-.79-.966-1.94-.97-3.45.004-2.17.532-3.678 1.59-4.53 1.06-.855 2.934-1.28 5.623-1.28h.385v-1.957c0-.78-.175-1.379-.526-1.797-.352-.417-.855-.628-1.512-.628-.691 0-1.224.234-1.597.7-.374.464-.56 1.129-.56 1.993h-3.034c-.044-1.571.385-2.8 1.29-3.685.904-.884 2.187-1.328 3.85-1.328 1.784 0 3.087.402 3.911 1.206.826.805 1.238 2.072 1.238 3.803v12.14h-3.06v-2.06zm0-6.119h-.67c-1.253 0-2.207.294-2.86.878-.652.584-.978 1.432-.981 2.541.003.87.147 1.494.436 1.87.29.379.771.57 1.442.57.904 0 1.582-.37 2.029-1.106.447-.737.649-1.812.604-3.228v-1.525zm-7.598 3.525v.034-.034z" fill="#3C3C3B" mask="url(#b)"/></g></g></svg>