<svg width="59" height="60" viewBox="0 0 59 60" xmlns="http://www.w3.org/2000/svg" xmlns:xlink="http://www.w3.org/1999/xlink"><defs><path id="a" d="M58.858 58.929H0V.073h58.858z"/></defs><g fill="none" fill-rule="evenodd"><g transform="translate(0 .998)"><mask id="b" fill="#fff"><use xlink:href="#a"/></mask><path d="M58.858 29.502c0 16.25-13.17 29.427-29.428 29.427C13.18 58.929 0 45.75 0 29.502 0 13.246 13.18.073 29.43.073c16.257 0 29.428 13.173 29.428 29.429M29.43 9.321c-11.15 0-20.178 9.038-20.178 20.181 0 11.14 9.028 20.173 20.178 20.173 11.146 0 20.179-9.032 20.179-20.173 0-11.143-9.033-20.181-20.18-20.181" fill="#49C8F4" mask="url(#b)"/></g><path fill="#ED1C24" d="M38.462 28.213l4.032-5.04h-4.151l-1.985 2.485z"/><path d="M30.942 25.695c.802 0 1.503.36 2.001.953.182.222.241.275.382.453.472.616.641.832.924 1.19-.283.34-.44.58-.924 1.192-.15.176-.2.239-.382.452a2.567 2.567 0 0 1-2.001.948 2.594 2.594 0 0 1-2.591-2.593 2.603 2.603 0 0 1 2.59-2.595m-2.004 7.99a4.21 4.21 0 0 1-1.134-.498 5.714 5.714 0 0 1-2.707-4.905 5.837 5.837 0 0 1 5.846-5.84c1.593 0 3.178.606 4.44 2.086l.075.083.05-.035-6.32-10.923-11.584 20.091h11.33l.004-.059m4.105 0l.004.059h7.766v-.063s-.112-.025-.235-.04a4.795 4.795 0 0 1-1.22-.33c-1.178-.482-2.16-1.442-2.998-2.428 0 0-.624.817-1.174 1.417-.829.906-1.721 1.276-2.143 1.385m7.42 7.456v-5.376h1.078v2.937l1.346-1.438h1.26l-1.43 1.481 1.601 2.396H43.02l-1.068-1.71-.412.413v1.297h-1.078zm-7.165 0h-1.14V35.76h1.866c1.306-.044 2.22.576 2.22 1.744 0 1.432-1.035 1.805-2.335 1.776h-.61v1.862zm0-4.457v1.66h.81c.585.018 1.033-.229 1.025-.83-.006-.592-.41-.85-1.057-.83h-.778zm3.95 1.794l-.947-.033c.041-.182.041-1.335 1.657-1.315.865.018 1.737.296 1.737 1.385v2.224c0 .093.01.17.046.26.035.07.067.087.121.142h-1.094s-.042-.08-.061-.255c-.02-.122-.025-.122-.031-.21 0 0-.171.526-1.04.56-.747.035-1.518-.396-1.564-1.144-.033-.485.288-.872.666-1.058.291-.139.726-.238 1.331-.319.387-.055.565-.108.588-.334.019-.307-.293-.476-.638-.485-.838-.009-.77.582-.77.582zm1.428 1.225v-.531s-.023.029-.11.07c-.17.066-.386.127-.61.17-.29.057-.858.172-.843.57.013.419.437.51.76.479.51-.046.78-.352.803-.758zm-22.232 1.438v-4.424h1.632v-.962h-4.396v.962h1.617v4.424h1.147zm.818-1.82c-.063-1.17.699-2.191 1.909-2.173 2.125.034 2.02 2.346 2.02 2.346h-2.869s.024.92.946.92c.613 0 .785-.491.785-.491l1.1.067s-.312 1.235-1.877 1.283c-.73.023-1.945-.512-2.014-1.952zm1.924-1.329c-.763.003-.838.745-.838.745h1.71s-.113-.753-.872-.745zm5.015 3.15h1.075v-1.767c0-.486.1-.935.535-1.156.233-.114.407-.12.668-.093v-.917a1.061 1.061 0 0 0-.28-.04c-.35-.012-.673.183-.873.53-.016.033-.027.059-.061.138l-.039-.558H24.2v3.862zm-2.937-3.132h.537v1.98c0 .323.029.728.336.952.309.226.732.2 1.12.19h.331l.002-.79h-.248c-.177 0-.273-.013-.363-.082-.131-.102-.122-.27-.122-.366V38.01h.712v-.736h-.712v-1.22l-1.056-.009v1.225l-.537.004v.736zm6.397.461l-.944-.026c.037-.19.037-1.341 1.658-1.315.86.013 1.736.288 1.736 1.385v2.224c0 .093.009.17.051.26.03.07.056.087.125.142h-1.11s-.034-.08-.058-.255l-.037-.21s-.16.526-1.038.56c-.743.035-1.514-.396-1.565-1.144-.025-.485.293-.874.667-1.058.298-.143.729-.238 1.346-.319.38-.06.564-.114.579-.334.021-.31-.296-.479-.642-.485-.84-.02-.768.575-.768.575zm1.421 1.232v-.531s-.015.029-.108.065a4.3 4.3 0 0 1-.61.176c-.281.056-.85.17-.836.569.018.419.436.51.764.474.502-.048.769-.347.79-.753zm16.789-5.907c.958 0 1.738.779 1.738 1.732 0 .96-.78 1.742-1.739 1.742a1.737 1.737 0 0 1 0-3.474zm0 3.162c.792 0 1.43-.637 1.43-1.43 0-.784-.638-1.429-1.43-1.429-.79 0-1.43.645-1.43 1.43 0 .792.64 1.429 1.43 1.429zm-.67-2.433h.766c.483 0 .707.22.707.6 0 .345-.211.515-.481.546l.52.841h-.382l-.496-.812h-.266v.812H45.2v-1.987zm.368.865h.266c.222 0 .47-.012.47-.284 0-.261-.248-.276-.47-.274h-.266v.558z" fill="#005AAA"/><path d="M6.536 26.876a1.481 1.481 0 0 1-1.505 1.451 1.483 1.483 0 0 1-1.447-1.506 1.476 1.476 0 0 1 1.498-1.452 1.471 1.471 0 0 1 1.454 1.507m45.796 0a1.474 1.474 0 1 0 2.948-.055 1.47 1.47 0 0 0-1.495-1.452 1.468 1.468 0 0 0-1.453 1.507M9.08 39.392l.651 1.023-2.28 2.444.006.015 3.303-.88.565.867L9.1 45.559l.007.015 3.259-1.104.614.949-5.052 1.512-.539-.832 2.33-2.846-.005-.013-3.55.973-.52-.808zm4.496 6.397l.849.718-1.224 1.435 1.654 1.408 1.223-1.44.848.722-3.283 3.864-.845-.726 1.417-1.67-1.653-1.404-1.42 1.669-.85-.721zm5.312 3.934l.82.424-.39 5.509-1.117-.582.113-1.15-1.747-.912-.869.754-1.095-.565 4.285-3.478zm-.303 1.507l-1.274 1.108 1.104.568.17-1.676zm3.618 1.013l-1.382-.422.284-.949 3.833 1.168-.282.945-1.386-.418-1.19 3.896-1.064-.322zm3.98 1.965l-.906-.126.805-1.925 1.025.149zm4.103-.545c-.181-.23-.535-.347-.805-.347-.32-.004-.754.13-.763.512-.017.918 2.325.36 2.302 2.132-.023 1.135-.935 1.66-1.983 1.638-.65-.011-1.22-.21-1.69-.657l.808-.86c.225.299.591.483.965.491.364.005.773-.157.779-.517.01-.929-2.366-.468-2.34-2.155.016-1.084.966-1.633 1.957-1.611.574.006 1.122.16 1.545.552l-.775.822zm9.653 1.411c-.519.531-1.157.885-1.87 1.12-1.5.502-2.918-.126-3.426-1.669-.505-1.541.261-2.891 1.768-3.388.757-.242 1.486-.294 2.116-.01l-.478 1.062c-.385-.206-.78-.246-1.316-.064-.908.292-1.28 1.141-.99 2.033.297.899 1.103 1.362 2.007 1.063.459-.154.762-.394.917-.57l-.252-.778-.865.283-.323-.979 1.886-.619.826 2.516zm1.261-6.24c1.327-.854 2.86-.609 3.738.755.88 1.366.478 2.86-.857 3.717-1.33.86-2.86.606-3.738-.753-.879-1.365-.47-2.863.858-3.72m2.325 3.615c.793-.521.944-1.432.437-2.227-.512-.8-1.408-1.036-2.207-.52-.802.516-.95 1.427-.438 2.222.509.792 1.409 1.031 2.208.525m1.998-7.262c1.067-1.172 2.612-1.32 3.81-.222 1.2 1.091 1.187 2.644.12 3.812-1.065 1.164-2.605 1.313-3.809.22-1.196-1.094-1.186-2.648-.12-3.81m3.167 2.886c.648-.697.56-1.622-.14-2.256-.694-.64-1.627-.645-2.266.06-.64.704-.555 1.625.143 2.265.696.637 1.623.639 2.263-.07m-.914-5.383l.781-1.48c.765-1.444 2.019-2.32 3.654-1.456 1.447.762 1.605 2.356.9 3.689l-.856 1.61-4.479-2.363zm4.089.9l.272-.511c.483-.923.5-1.795-.515-2.33-.88-.464-1.663.017-2.105.852l-.31.58 2.658 1.409zM9.225 12.196l1.35-1.317c.756-.734 1.62-1.098 2.454-.238.826.854.5 1.676-.265 2.422l-.58.566 1.376 1.413-.802.78-3.533-3.626zm2.3.755l.533-.514c.28-.274.467-.65.143-.984-.363-.377-.8-.063-1.104.238l-.407.396.836.864zm2.051-4.637l1.67-1.032c.879-.548 1.807-.703 2.428.296.378.606.344 1.276-.195 1.76l2.217 1.14-1.136.703-1.96-1.161-.472.288 1.065 1.725-.947.584-2.67-4.303zm2.05 1.188l.563-.343c.346-.213.786-.509.498-.973-.269-.43-.697-.252-1.042-.041l-.623.38.604.977zm5.829-5.154c1.512-.462 2.913.2 3.39 1.746.473 1.559-.327 2.885-1.842 3.348-1.51.457-2.914-.2-3.384-1.747-.48-1.557.325-2.888 1.836-3.347m1.251 4.104c.909-.276 1.302-1.111 1.026-2.013-.276-.91-1.068-1.381-1.98-1.107-.912.28-1.303 1.122-1.03 2.024.276.901 1.07 1.377 1.984 1.096m4.588-4.089l-1.442.084-.057-.978 3.997-.25.06.988-1.444.085.252 4.07-1.114.067zM31.87 3.35l3.405.519-.158 1.018-2.295-.353-.14.934 2.17.333-.157 1.016-2.168-.33-.159 1.021 2.427.365-.152 1.02-3.535-.54zm8.527 3.654c-.111-.334-.351-.588-.736-.745-.78-.318-1.616.088-1.971.963-.35.873-.037 1.738.718 2.048.415.164.828.116 1.17-.112l.602.987c-.617.4-1.381.39-2.024.132-1.47-.594-2.15-1.986-1.54-3.493.61-1.5 2.07-2.032 3.533-1.44.52.214 1.11.657 1.307 1.329l-1.059.331zm3.328 1.509l-1.193-.817.554-.812 3.309 2.252-.55.819-1.194-.816-2.301 3.367-.922-.626zm5.075 4.662c.041-.287-.13-.623-.319-.814-.222-.23-.624-.45-.896-.182-.67.636 1.38 1.911.099 3.139-.806.784-1.827.505-2.553-.246-.45-.474-.71-1.025-.725-1.669l1.179-.035c-.053.376.073.764.334 1.032.254.265.656.435.917.187.67-.644-1.339-2.009-.123-3.174.776-.756 1.833-.475 2.525.245.396.412.668.915.696 1.484l-1.135.033z" fill="#FEFEFE"/></g></svg>