<svg width="98" height="60" viewBox="0 0 98 60" xmlns="http://www.w3.org/2000/svg" xmlns:xlink="http://www.w3.org/1999/xlink"><defs><path id="a" d="M0 .312v11.591h8.16V.312H0z"/><path id="c" d="M0 59.774h97.92V0H0z"/></defs><g fill="none" fill-rule="evenodd"><g transform="translate(0 24.188)"><mask id="b" fill="#fff"><use xlink:href="#a"/></mask><path d="M7.706 1.217L6.563 3.436c-.586-.486-1.22-.73-1.904-.73a1.54 1.54 0 0 0-.843.248c-.259.166-.388.39-.388.672 0 .195.08.37.242.525a1.5 1.5 0 0 0 .454.321c.141.06.334.127.579.204l.732.22c.86.253 1.529.61 2.007 1.073.479.462.718 1.107.718 1.934 0 1.334-.38 2.322-1.143 2.964-.82.69-1.865 1.036-3.135 1.036-1.386 0-2.68-.418-3.882-1.256l1.23-2.306c.87.76 1.72 1.139 2.55 1.139.37 0 .695-.095.974-.285.279-.19.417-.465.417-.825 0-.496-.464-.88-1.392-1.153-.029-.01-.146-.043-.35-.102a11.018 11.018 0 0 1-1.246-.409 4.194 4.194 0 0 1-.908-.533 1.862 1.862 0 0 1-.645-.868c-.127-.35-.19-.784-.19-1.3 0-1.11.355-2.002 1.069-2.678C2.22.65 3.135.312 4.249.312c.556 0 1.15.083 1.78.248a7.17 7.17 0 0 1 1.677.657" fill="#F4AB1B" mask="url(#b)"/></g><path d="M14.643 30.858c-.308-.326-.725-.49-1.253-.49-.527 0-.945.164-1.252.49a1.69 1.69 0 0 0-.462 1.204c0 .487.154.889.462 1.205.307.316.725.474 1.252.474.528 0 .945-.158 1.253-.474.307-.316.46-.718.46-1.205 0-.476-.153-.878-.46-1.204zm3.04-2.547v7.488h-2.667v-.831h-.03a2.07 2.07 0 0 1-.95.81c-.411.18-.851.27-1.32.27-1.094 0-2-.392-2.718-1.176-.717-.783-1.076-1.725-1.076-2.824 0-1.1.354-2.04 1.062-2.818.708-.778 1.609-1.168 2.703-1.168.996 0 1.773.326 2.33.978v-.73h2.665zm7.053 2.547c-.307-.326-.725-.49-1.252-.49s-.945.164-1.252.49c-.308.326-.462.728-.462 1.204 0 .487.154.889.462 1.205.307.316.725.474 1.252.474s.945-.158 1.252-.474c.308-.316.462-.718.462-1.205 0-.476-.154-.878-.462-1.204zm.374 4.941v-.831h-.03c-.224.36-.541.63-.952.81-.41.18-.85.27-1.318.27-1.094 0-2-.392-2.717-1.176-.718-.783-1.077-1.725-1.077-2.824 0-1.1.354-2.04 1.062-2.818.707-.778 1.609-1.168 2.703-1.168.996 0 1.773.326 2.329.978v-5.357h2.666v12.116H25.11z" fill="#F4AB1B"/><mask id="d" fill="#fff"><use xlink:href="#c"/></mask><path d="M29.447 35.8h2.666v-7.49h-2.666v7.49zm.278-11.416a1.442 1.442 0 0 1 1.055-.439c.41 0 .761.146 1.054.439.293.291.44.641.44 1.05 0 .41-.147.76-.44 1.052a1.441 1.441 0 0 1-1.054.437c-.41 0-.762-.146-1.055-.437a1.432 1.432 0 0 1-.44-1.051c0-.41.147-.76.44-1.051zm6.299 6.583h3.091a1.379 1.379 0 0 0-.527-.853 1.558 1.558 0 0 0-.981-.33 1.74 1.74 0 0 0-1.033.307c-.289.205-.472.497-.55.876m5.567 1.256v.277h-5.61c0 1.11.556 1.665 1.67 1.665.576 0 1-.23 1.274-.687h2.564c-.205.837-.664 1.475-1.377 1.912-.713.439-1.53.658-2.447.658-1.289 0-2.337-.35-3.142-1.052-.806-.7-1.209-1.678-1.209-2.934 0-1.236.383-2.211 1.15-2.927.767-.715 1.77-1.073 3.01-1.073 1.3 0 2.31.373 3.033 1.117.723.744 1.084 1.76 1.084 3.044m9.875-6.54V27.2c-.948-.973-2.071-1.46-3.37-1.46-1.221 0-2.269.453-3.143 1.358-.874.905-1.31 1.97-1.31 3.197 0 1.226.439 2.292 1.318 3.197.878.905 1.933 1.358 3.164 1.358 1.25 0 2.363-.487 3.34-1.46v1.518c-.996.72-2.095 1.08-3.296 1.08-1.563 0-2.913-.552-4.05-1.657-1.139-1.104-1.708-2.435-1.708-3.992 0-1.577.565-2.927 1.693-4.052 1.128-1.124 2.483-1.685 4.065-1.685 1.23 0 2.33.36 3.297 1.08m6.841 4.884c-.46-.491-1.046-.737-1.758-.737-.713 0-1.299.246-1.758.737-.46.491-.689 1.093-.689 1.803s.23 1.311.689 1.802c.459.492 1.045.738 1.758.738.712 0 1.299-.246 1.758-.738.459-.49.688-1.092.688-1.802s-.23-1.312-.688-1.803m.806 4.372c-.703.7-1.559 1.05-2.564 1.05-1.006 0-1.861-.35-2.564-1.05-.704-.7-1.055-1.552-1.055-2.555 0-1.012.351-1.87 1.055-2.576.703-.706 1.558-1.06 2.564-1.06 1.005 0 1.86.354 2.564 1.06.703.705 1.054 1.564 1.054 2.576 0 1.003-.351 1.854-1.054 2.555m2.637.862h1.171V23.756H61.75zm3.999-4.176h4.117a2.113 2.113 0 0 0-.689-1.277 1.923 1.923 0 0 0-1.333-.518c-.508 0-.967.175-1.377.525-.41.35-.65.774-.718 1.27m5.347.993H65.69c.01.642.225 1.185.645 1.628.42.443.957.664 1.612.664.869 0 1.567-.472 2.095-1.416l.996.57c-.694 1.284-1.754 1.926-3.18 1.926-1.006 0-1.819-.338-2.439-1.015-.62-.676-.93-1.515-.93-2.517 0-1.061.298-1.945.894-2.65.596-.706 1.411-1.059 2.446-1.059 1.065 0 1.89.378 2.476 1.131.586.755.85 1.668.791 2.738m2.784-3.679v.745h.03c.4-.623.952-.935 1.655-.935a2.122 2.122 0 0 1 1.904 1.14c.195-.37.481-.653.857-.848a2.588 2.588 0 0 1 1.209-.292c1.465 0 2.197.959 2.197 2.876V35.8H80.56v-3.986c0-.282-.01-.516-.029-.7a2.77 2.77 0 0 0-.146-.614.93.93 0 0 0-.389-.504c-.18-.111-.412-.168-.696-.168-.322 0-.588.069-.798.205-.21.136-.361.33-.454.584a3.615 3.615 0 0 0-.191.73 5.747 5.747 0 0 0-.051.818V35.8h-1.172v-3.898c0-1.382-.41-2.074-1.23-2.074-.323 0-.594.074-.814.22-.22.145-.376.35-.469.613a3.903 3.903 0 0 0-.19.759 5.922 5.922 0 0 0-.051.832V35.8h-1.172v-6.862h1.172zm12.936.891c-.655 0-1.192.243-1.612.73-.42.486-.63 1.066-.63 1.737 0 .71.203 1.323.608 1.839.405.516.955.774 1.648.774.723 0 1.287-.25 1.692-.752.406-.5.608-1.116.608-1.847 0-.71-.21-1.3-.63-1.773-.42-.472-.981-.708-1.684-.708zm3.428-.89v6.86h-1.172v-.948h-.03c-.595.76-1.387 1.138-2.373 1.138-.977 0-1.77-.355-2.38-1.065-.611-.71-.916-1.557-.916-2.54 0-1.013.303-1.872.908-2.577.605-.706 1.406-1.059 2.403-1.059.967 0 1.753.39 2.358 1.168h.03v-.978h1.172zm3.34-.001v.832h.029c.498-.681 1.153-1.022 1.964-1.022.878 0 1.489.268 1.83.803.342.535.513 1.26.513 2.176V35.8h-1.17v-3.87c0-.33-.013-.6-.037-.81a2.504 2.504 0 0 0-.169-.641.916.916 0 0 0-.446-.49c-.21-.107-.477-.16-.8-.16a1.68 1.68 0 0 0-.798.175 1.42 1.42 0 0 0-.505.423c-.117.166-.208.38-.27.642a4.333 4.333 0 0 0-.118.708c-.015.21-.022.465-.022.767V35.8h-1.172v-6.862h1.172z" fill="#F4AB1B" mask="url(#d)"/><path d="M48.96 0c-1.86 0-3.002 1.974-2.712 3.972.29 1.998 2.712 7.686 2.712 7.686s2.423-5.688 2.712-7.686C51.962 1.974 50.821 0 48.96 0m5.24 8.734c1.7-.536 3.64-.094 4.074-1.705.416-1.55-1.255-3.214-3.549-2.166-2.248 1.027-4.716 6.507-4.716 6.507.413-.515 2.374-2.064 4.191-2.636" fill="#FACB10" mask="url(#d)"/><path d="M67.38 12.88c-1.619.715-1.367 3.843.781 3.423.208-.041.556-.204.556-.82a.723.723 0 1 0-1.409.23c-.325-.135-.69-.438-.618-1.122.16-1.502 1.993-1.847 2.956-.976 1.116 1.01 1.048 2.688-.165 3.564-1.022.737-3.465.79-5.85-1.524-2.105-2.043-3.514-3.42-3.514-3.42s3.515 1.938 5.809.35c2.154-1.49 1.943-4.325.123-5.355-1.818-1.03-4.611-.589-5.023 1.607-.37 1.976 1.388 3.067 2.522 2.636 1.148-.435 1.171-1.333 1.146-1.707a.725.725 0 0 0-.753-.682c-.399.016-.723.322-.723.72a.722.722 0 0 0 .894.7c-.123.228-.42.584-1.08.598-.972.02-1.7-.825-1.468-2.245.239-1.46 2.428-1.752 3.886-1.153 1.405.576 2.233 2.698.124 4.51-2.024 1.74-6.243-1.174-8.33-1.565-2.415-.452-6.806-.638-8.102 3.643-.537 1.771.426 3.819 2.436 3.797 2.652-.028 2.084-3.464.253-3.042-.357.082-.65.344-.65.717a.723.723 0 1 0 1.444-.068c.23.177.41.504.299 1.112-.25 1.36-3.721 1.174-3.432-1.566.289-2.739 3.287-4.902 7.462-4.037 4.175.865 3.783 5.665.765 6.16-3.018.493-4.051-2.04-3.121-3.379.93-1.339 3.174-1.332 3.307.337.068.851-.595 1.104-.84 1.168a.717.717 0 0 0-.683-.96c-.4 0-.724.323-.724.721 0 .398.326.696.724.722.31.02 1.033-.062 1.464-.513.859-.897.576-3-1.533-3.02-2.108-.02-2.976 1.998-2.728 3.234.248 1.236 1.674 2.843 4.093 2.327 2.418-.514 3.634-3.24 2.358-5.273 3.651 4.476 7.411 6.934 10.106 4.736 1.952-1.593.425-5.991-2.762-4.585M43.72 8.734c1.818.572 3.778 2.121 4.192 2.636 0 0-2.469-5.48-4.717-6.507-2.294-1.048-3.965.616-3.548 2.166.434 1.61 2.373 1.169 4.073 1.705" fill="#FACB10" mask="url(#d)"/><path d="M40.677 10.65c-2.088.39-6.307 3.304-8.33 1.564-2.109-1.812-1.282-3.934.123-4.51 1.458-.599 3.648-.308 3.887 1.153.232 1.42-.497 2.266-1.468 2.245-.661-.014-.958-.37-1.08-.598a.722.722 0 0 0 .894-.7c0-.398-.325-.704-.724-.72a.725.725 0 0 0-.752.682c-.026.374-.003 1.272 1.145 1.707 1.135.43 2.893-.66 2.523-2.636C36.48 6.64 33.69 6.2 31.87 7.23c-1.82 1.03-2.03 3.864.124 5.356 2.293 1.587 5.808-.35 5.808-.35s-1.409 1.375-3.514 3.419c-2.384 2.315-4.828 2.26-5.85 1.524-1.213-.876-1.281-2.555-.165-3.563.964-.872 2.797-.527 2.956.974.073.685-.293.989-.618 1.123a.717.717 0 0 0-.685-.952c-.4 0-.724.323-.724.722 0 .616.349.778.557.82 2.147.42 2.4-2.708.78-3.423-3.187-1.407-4.714 2.992-2.762 4.585 2.695 2.198 6.455-.26 10.106-4.736-1.275 2.033-.06 4.758 2.359 5.274 2.418.515 3.845-1.092 4.093-2.328.248-1.236-.62-3.254-2.729-3.234-2.108.02-2.392 2.123-1.533 3.02.432.451 1.154.532 1.464.512.399-.025.723-.322.723-.72a.723.723 0 1 0-1.405.238c-.245-.064-.908-.317-.84-1.168.132-1.669 2.376-1.676 3.307-.337.93 1.339-.104 3.873-3.122 3.379-3.017-.495-3.41-5.295.765-6.16 4.176-.865 7.173 1.298 7.462 4.038.29 2.74-3.183 2.924-3.431 1.565-.11-.608.068-.935.299-1.112a.723.723 0 1 0 1.443.068c0-.373-.292-.635-.65-.717-1.83-.422-2.399 3.014.253 3.042 2.009.022 2.973-2.025 2.437-3.797-1.297-4.28-5.688-4.096-8.102-3.643M43.72 51.04c-1.7.536-3.64.094-4.073 1.705-.417 1.55 1.254 3.215 3.548 2.166 2.248-1.027 4.717-6.507 4.717-6.507-.414.515-2.374 2.065-4.192 2.637" fill="#FACB10" mask="url(#d)"/><path d="M34.372 48.301c-1.147.436-1.171 1.335-1.146 1.707.026.367.328.7.754.682.399-.015.723-.322.723-.72a.722.722 0 0 0-.894-.7c.122-.227.419-.584 1.08-.598.971-.02 1.7.826 1.468 2.245-.24 1.462-2.428 1.752-3.886 1.154-1.406-.577-2.233-2.699-.124-4.511 2.023-1.74 6.242 1.174 8.33 1.565 2.415.453 6.805.638 8.101-3.643.537-1.77-.427-3.818-2.436-3.797-2.652.028-2.083 3.464-.253 3.043.358-.082.65-.344.65-.717a.722.722 0 0 0-.723-.721.722.722 0 0 0-.72.788c-.231-.176-.41-.504-.299-1.112.248-1.36 3.72-1.174 3.431 1.566-.29 2.74-3.286 4.902-7.461 4.037-4.177-.865-3.783-5.664-.765-6.159 3.017-.495 4.051 2.04 3.12 3.378-.93 1.34-3.174 1.332-3.306-.337-.068-.85.594-1.104.84-1.167a.718.718 0 0 0 .682.959c.4 0 .723-.323.723-.722 0-.397-.324-.694-.723-.72-.31-.02-1.032.06-1.464.512-.858.897-.575 3 1.533 3.02 2.108.02 2.977-1.998 2.729-3.234-.248-1.236-1.675-2.842-4.093-2.327-2.419.515-3.634 3.24-2.358 5.273-3.652-4.476-7.412-6.934-10.107-4.735-1.952 1.592-.425 5.991 2.762 4.584 1.62-.715 1.367-3.843-.78-3.422-.208.041-.557.203-.557.82a.722.722 0 1 0 1.408-.23c.326.133.692.437.62 1.122-.16 1.502-1.993 1.847-2.957.975-1.116-1.009-1.048-2.688.166-3.563 1.021-.737 3.465-.792 5.85 1.524a2027.19 2027.19 0 0 1 3.514 3.42s-3.516-1.939-5.809-.351c-2.154 1.492-1.943 4.326-.124 5.355 1.819 1.03 4.61.59 5.023-1.606.371-1.977-1.388-3.067-2.522-2.637m14.588-.185s-2.423 5.688-2.712 7.687c-.29 1.998.852 3.972 2.712 3.972 1.86 0 3.002-1.974 2.712-3.972-.29-1.999-2.712-7.687-2.712-7.687m5.24 2.924c-1.817-.571-3.778-2.12-4.191-2.636 0 0 2.469 5.48 4.716 6.507 2.294 1.049 3.965-.616 3.549-2.166-.434-1.61-2.374-1.169-4.074-1.704" fill="#FACB10" mask="url(#d)"/><path d="M70.142 42.31c-2.695-2.199-6.455.259-10.106 4.735 1.275-2.033.06-4.758-2.358-5.273-2.419-.515-3.845 1.092-4.093 2.327-.248 1.236.62 3.255 2.728 3.234 2.109-.02 2.392-2.122 1.533-3.02-.431-.45-1.154-.531-1.464-.512-.399.025-.723.323-.723.72a.722.722 0 1 0 1.406-.238c.245.064.907.317.84 1.168-.133 1.67-2.377 1.677-3.307.337-.93-1.338.103-3.872 3.12-3.378 3.019.495 3.412 5.294-.764 6.159-4.175.865-7.173-1.298-7.462-4.037-.29-2.74 3.183-2.925 3.431-1.566.111.608-.067.936-.299 1.112a.72.72 0 0 0-.72-.788.721.721 0 0 0-.723.72c0 .374.293.636.65.718 1.83.421 2.4-3.015-.253-3.043-2.01-.021-2.972 2.026-2.436 3.797 1.296 4.281 5.687 4.096 8.102 3.643 2.087-.391 6.307-3.305 8.33-1.565 2.108 1.812 1.282 3.934-.124 4.51-1.458.6-3.647.308-3.886-1.153-.233-1.42.496-2.266 1.467-2.245.661.014.958.37 1.081.598a.722.722 0 0 0-.894.7c0 .398.324.705.723.72a.725.725 0 0 0 .753-.682c.025-.373.002-1.271-1.146-1.707-1.134-.43-2.893.66-2.522 2.637.413 2.196 3.205 2.637 5.023 1.606 1.82-1.03 2.03-3.863-.123-5.355-2.294-1.588-5.81.35-5.81.35s1.41-1.376 3.515-3.42c2.384-2.315 4.828-2.26 5.85-1.524 1.214.876 1.28 2.555.165 3.564-.964.871-2.797.526-2.956-.975-.072-.685.293-.988.619-1.122a.72.72 0 0 0 .685.951c.4 0 .723-.323.723-.721 0-.617-.348-.78-.556-.82-2.148-.421-2.4 2.707-.78 3.422 3.186 1.407 4.713-2.992 2.761-4.584" fill="#FACB10" mask="url(#d)"/></g></svg>