<svg width="126" height="31" viewBox="0 0 126 31" xmlns="http://www.w3.org/2000/svg" xmlns:xlink="http://www.w3.org/1999/xlink"><defs><path id="a" d="M8.563.339H.185v7.258h8.378V.339z"/><path id="c" d="M.4 6h4.79V.462H.4z"/><path id="e" d="M8.303 8.91V.18H.383v8.73h7.92z"/></defs><g fill="none" fill-rule="evenodd"><path d="M21.309 14.185c-2.007-1.137-5.135-.394-6.863 1.972-1.727 2.365-1.143 5.172.444 6.17 1.587.997 4.295 1.414 6.863-1.133 2.37-2.35 1.647-5.826-.444-7.01" fill="#D36F26"/><g transform="translate(11.097 .41)"><mask id="b" fill="#fff"><use xlink:href="#a"/></mask><path d="M7.762 1.017c-1.495-1.16-3.758-.79-5.673.789C.175 3.382-.3 6.166.684 7.186c.985 1.021 3.902-.033 5.724-1.3 2.17-1.506 2.847-3.709 1.354-4.87" fill="#D36F26" mask="url(#b)"/></g><path d="M7.98 2.402c-.84-.37-2.03.811-2.684 1.879-.643 1.05-1.167 2.667-.723 3.015.443.347 1.586-.422 2.567-1.73.655-.874 1.68-2.793.84-3.164M.744 16.76c-1.027 0-.957 3.433 0 3.433.897 0 1.027-3.433 0-3.433m1.401-7.098c-1.05-.302-2.305 3.757-1.083 4.081.9.24 2.134-3.78 1.083-4.081" fill="#D36F26"/><g transform="translate(6.038 23.662)"><mask id="d" fill="#fff"><use xlink:href="#c"/></mask><path d="M.972.888c-1.92 1.516 1.423 6.489 3.634 4.747C6.493 4.147 3.424-1.047.972.888" fill="#D36F26" mask="url(#d)"/></g><path d="M2.288 22.15c-1.407.454.209 4.243 1.255 3.788 1.03-.448 0-4.19-1.255-3.787" fill="#D36F26"/><path d="M96.254 18.61c-1.187 0-2.152-.726-2.448-1.78a1.832 1.832 0 0 1-.074-.552V14.79c0-.241.037-.45.093-.638a2.587 2.587 0 0 1 2.466-1.868c1.763 0 2.69 1.436 2.69 3.111 0 1.92-1.001 3.216-2.727 3.216m.575-7.52c-1.447 0-2.485.589-3.06 1.522h-.037V7.358h-1.614V17.47c0 .743-.037 1.59-.075 2.16h1.392l.093-1.364h.037c.686 1.088 1.725 1.555 3.023 1.555 2.004 0 4.044-1.487 4.044-4.477 0-2.524-1.559-4.252-3.803-4.252m17.733.173h-1.632v5.116c0 .294-.056.57-.149.777a2.342 2.342 0 0 1-2.152 1.401c-1.465 0-2.003-1.09-2.003-2.68v-4.614h-1.632v4.891c0 2.921 1.688 3.665 3.098 3.665 1.595 0 2.56-.882 2.968-1.555h.037l.093 1.365h1.446a27.818 27.818 0 0 1-.074-2.299v-6.067z" fill="#1B2854"/><g transform="translate(116.239 10.911)"><mask id="f" fill="#fff"><use xlink:href="#e"/></mask><path d="M1.959 3.724c.13-1.055.835-2.454 2.504-2.454 1.837 0 2.282 1.503 2.263 2.454H1.96zm6.344.38c0-1.539-.76-3.924-3.71-3.924C1.978.18.383 2.15.383 4.675c0 2.524 1.65 4.234 4.414 4.234 1.429 0 2.43-.294 3.005-.535l-.297-1.09c-.593.242-1.317.433-2.485.433-1.651 0-3.042-.848-3.08-2.904h6.307a3.46 3.46 0 0 0 .056-.709z" fill="#1B2854" mask="url(#f)"/></g><path d="M105.492 18.559c-.91 0-1.225-.587-1.225-1.625V7.358h-1.595v9.628c0 .986.185 1.728.63 2.195.39.398 1.002.64 1.763.64.63 0 1.132-.104 1.447-.208l-.074-1.158c-.241.07-.501.104-.946.104" fill="#1B2854"/><path d="M34.58 18.68c-1.595 0-2.708-1.383-2.708-3.215 0-1.573.835-3.233 2.745-3.233 1.93 0 2.69 1.781 2.69 3.2 0 1.883-1.169 3.248-2.727 3.248m.074-7.588c-2.466 0-4.452 1.641-4.452 4.424 0 2.646 1.893 4.304 4.304 4.304 2.151 0 4.47-1.347 4.47-4.441 0-2.541-1.743-4.287-4.322-4.287m10.517 7.536c-1.168 0-2.15-.726-2.448-1.78a2.237 2.237 0 0 1-.074-.623v-1.452c0-.19.056-.414.11-.604.298-1.142 1.355-1.868 2.468-1.868 1.725 0 2.671 1.435 2.671 3.094 0 1.92-1.001 3.233-2.727 3.233m.557-7.537c-1.465 0-2.541.588-3.19 1.61H42.5l-.092-1.436h-1.447c.037.795.074 1.66.074 2.73v9.058h1.614v-4.545h.037c.538.83 1.577 1.313 2.764 1.313 2.115 0 4.1-1.487 4.1-4.493 0-2.525-1.633-4.237-3.822-4.237m7.827-1.831l-1.595.45v1.555h-1.39v1.158h1.39v4.564c0 .984.186 1.727.63 2.194.39.398 1.002.64 1.763.64a4.78 4.78 0 0 0 1.447-.207l-.075-1.159c-.24.07-.5.104-.946.104-.908 0-1.224-.588-1.224-1.625v-4.511h3.346v-1.158h-3.346V9.26zm6.251-1.297c-.613 0-1.02.431-1.02.951 0 .518.389.934.983.934.649 0 1.038-.416 1.038-.934 0-.536-.408-.95-1.001-.95m13.392 3.128c-.853 0-1.428.207-1.966.588-.37.259-.742.605-1.02 1.088h-.037c-.39-.984-1.317-1.676-2.523-1.676-1.502 0-2.337.743-2.838 1.538h-.056l-.074-1.365h-1.428c.037.69.074 1.382.074 2.264v6.102h1.595v-5.03c0-.26.037-.536.13-.743.26-.76 1.02-1.521 2.022-1.521 1.243 0 1.874.95 1.874 2.281v5.013h1.595v-5.168c0-.278.055-.537.13-.761.296-.726 1.001-1.365 1.947-1.365 1.298 0 1.948.95 1.948 2.575v4.72h1.595v-4.91c0-2.904-1.762-3.63-2.968-3.63m17.853 7.363c-.24.07-.5.104-.945.104-.91 0-1.225-.588-1.225-1.624V7.358h-1.595v9.628c0 .985.185 1.728.63 2.195.39.398 1.002.64 1.763.64a4.76 4.76 0 0 0 1.447-.207l-.075-1.16zm-32.061-7.19h-1.046v1.157h1.046v7.209h1.632v-8.366h-.826zm24.466 6.032c-.26.709-1.02 1.4-2.208 1.4-.816 0-1.52-.45-1.52-1.451 0-1.62 2.01-1.917 3.788-1.885v1.648a1.558 1.558 0 0 1-.06.288m1.654-.362v-1.92h-.003v-.518c0-1.659-.668-3.405-3.414-3.405-1.131 0-2.225.294-2.967.725l.37 1.021c.631-.398 1.503-.623 2.356-.623 1.836-.016 2.04 1.245 2.04 1.919v.173c-3.468-.018-5.397 1.089-5.397 3.11 0 1.211.927 2.404 2.746 2.404 1.279 0 2.244-.588 2.745-1.245l.145-.096c.1.277.235.513.416.7.343.351.86.58 1.498.63v-1.432c-.382-.245-.535-.737-.535-1.443" fill="#D36F26"/><path d="M13.63 13.313c-1.658-.673-3.572-.278-4.926 2.11-1.354 2.39-.233 4.223.724 4.849.957.625 2.918 1.276 5.159-1.323 1.735-2.01.7-4.964-.958-5.636m-7.679 6.61c-.887.557-1.098 2.274-.584 3.433.514 1.16 1.315 2.112 2.71 1.787 1.525-.355 1.655-2.273 1.05-3.573-.754-1.612-2.29-2.203-3.176-1.647m.874-3.993c.453-1.388-.033-2.895-1.06-3.127-1.028-.232-2.102.905-2.359 2.204-.256 1.298.094 2.76.91 3.014 1.494.467 2.112-.87 2.51-2.09m1.252-3.685c.968.772 2.751.527 4.525-1.693 2.002-2.505 1.367-4.628.444-5.126-1.377-.742-3.642.488-4.622 1.995-.98 1.508-1.394 3.99-.347 4.824M4.269 11.04c.782.373 2.02-.474 2.725-2.116.706-1.642.647-3.01 0-3.288-.647-.279-2.071.696-2.725 2.157-.654 1.46-.583 2.968 0 3.247m-1.33 8.304c-1.237.352-.582 4.453.887 4.082 1.156-.291.781-4.556-.887-4.082m-.888-4.685c1.004.039 2.241-4.268.911-4.268-1.331 0-2.124 4.221-.91 4.268m-.211.785c-1.026-.044-1.05 4.178 0 4.016 1.277-.197 1.028-3.97 0-4.016" fill="#1B2854"/></g></svg>