<svg width="95" height="55" viewBox="-1 0 95 55" xmlns="http://www.w3.org/2000/svg"><g fill="none" fill-rule="evenodd"><path fill="#42A99C" d="M17.724 27.841l16.167 16.193 21.558-21.59 5.394 5.397-16.169 16.193-2.695-2.695-5.387 5.397 8.079 8.095 26.953-26.99-16.17-16.193-21.563 21.59-5.388-5.397 16.168-16.197 2.699 2.702 5.387-5.398-8.086-8.1z"/><path fill="#42A99C" d="M58.149 8.948l5.388 5.398 2.7-2.702L82.402 27.84 66.236 44.034l-2.699-2.695-5.392 5.397 8.091 8.095 26.948-26.99L66.236.849z"/><path stroke="#221F20" d="M20.626 47.811l6.165 6.184L52.985 27.72 39.89 14.583 13.694 40.857.597 27.721 26.791 1.445l6.052 6.072"/><path stroke="#221F20" d="M45.931 8.522l7.054-7.077L79.18 27.72 52.748 54.233l-7.055-7.076"/></g></svg>