<svg width="1133" height="479" viewBox="-1 0 1133 479" xmlns="http://www.w3.org/2000/svg"><g fill="none" fill-rule="evenodd"><path fill="#81BDB5" d="M574.075 256.763l119.528 119.723 159.392-159.63 39.882 39.907L773.33 376.486l-19.925-19.938-39.832 39.907 59.732 59.845 199.28-199.537-119.552-119.722-159.43 159.624-39.832-39.902 119.534-119.765 19.957 19.975 39.833-39.907-59.79-59.877z"/><path fill="#81BDB5" d="M872.956 117.066l39.839 39.908 19.957-19.976 119.528 119.766-119.528 119.722-19.957-19.938-39.87 39.908 59.827 59.845 199.236-199.537-199.236-199.58z"/><path stroke="#FEFEFE" d="M671.53 343.571l45.581 45.72L910.78 195.034l-96.831-97.132-193.67 194.257-96.83-97.125L717.11.764l44.75 44.894"/><path stroke="#FEFEFE" d="M867.624 53.086L919.781.766 1113.45 195.03 918.023 391.051l-52.157-52.313"/><path fill="#81BDB5" d="M9.577 441.393l22.411 22.448 29.886-29.93 7.478 7.482-22.415 22.448-3.736-3.738-7.469 7.482 11.2 11.221 37.365-37.413-22.416-22.448-29.893 29.93-7.468-7.482 22.412-22.456 3.742 3.745 7.469-7.482-11.21-11.227z"/><path fill="#81BDB5" d="M65.617 415.2l7.47 7.483 3.741-3.746 22.412 22.456-22.412 22.448-3.741-3.738-7.476 7.482 11.217 11.221 37.357-37.413-37.357-37.421z"/><path stroke="#FEFEFE" d="M27.85 457.67l8.546 8.572 36.313-36.423-18.156-18.212L18.24 448.03.084 429.819l36.312-36.426 8.39 8.418"/><path stroke="#FEFEFE" d="M64.617 403.204l9.78-9.81 36.312 36.424-36.642 36.754-9.78-9.809"/></g></svg>