<svg width="993" height="505" viewBox="-1 -1 993 505" xmlns="http://www.w3.org/2000/svg"><g fill="none" fill-rule="evenodd"><path fill="#81BDB5" d="M964.565 73.291v397.305H693.672v27.402h298.252V73.291z"/><path fill="#81BDB5" d="M908.691 17.283v397.304H619.117v27.403H936.05V17.283z"/><path stroke="#FEFEFE" d="M619.112 441.994h316.934V17.28H619.112z"/><path stroke="#FEFEFE" d="M665.162 441.993v27.403h298.24V44.689h-27.353v397.304zM671.137 0v37.562M706.615 0v37.562M742.093 0v37.562M777.577 0v37.562M813.06 0v37.562M848.532 0v37.562M884.016 0v37.562M683.448 178.178h178.42M683.448 227.595h118.138"/><path fill="#81BDB5" d="M695.612 149.431h35.358v-35.42h-35.358z"/><path stroke="#FEFEFE" stroke-linecap="round" stroke-linejoin="round" d="M683.448 137.243h35.364v-35.414h-35.364z"/><path fill="#81BDB5" d="M64.918 424.055v74.494H14.126v5.138h55.922v-79.632z"/><path fill="#81BDB5" d="M54.442 413.553v74.495H.147v5.138h59.425v-79.633z"/><path stroke="#FEFEFE" d="M.146 493.186h59.425v-79.633H.146z"/><path stroke="#FEFEFE" d="M8.78 493.186v5.138H64.7v-79.632h-5.128v74.494zM9.9 410.313v7.042M16.553 410.313v7.042M23.205 410.313v7.042M29.858 410.313v7.042M36.511 410.313v7.042M43.162 410.313v7.042M49.815 410.313v7.042M12.209 443.72h33.454M12.209 452.987h22.15"/><path fill="#81BDB5" d="M14.49 438.33h6.63v-6.64h-6.63z"/><path stroke="#FEFEFE" stroke-linecap="round" stroke-linejoin="round" d="M12.209 436.045h6.63v-6.64h-6.63z"/></g></svg>