<svg width="320" height="660" viewBox="0 0 320 660" xmlns="http://www.w3.org/2000/svg" xmlns:xlink="http://www.w3.org/1999/xlink"><defs><path id="a" d="M0 0h320v660H0z"/><path id="c" d="M74.703 29.711V0H.59v29.71h74.114z"/><path id="e" d="M0 79.544h80.35V0H0z"/><path id="g" d="M233.447 92.847V-.001H1.841v92.848h231.606z"/><path id="i" d="M0 248.575h251.094V0H0z"/></defs><g fill="none" fill-rule="evenodd"><mask id="b" fill="#fff"><use xlink:href="#a"/></mask><g transform="translate(25 321)" mask="url(#b)"><g transform="translate(5.647 5.191)"><mask id="d" fill="#fff"><use xlink:href="#c"/></mask><path d="M71.138 11.897C63.578 3.157 52.908 0 37.646 0 22.384 0 11.714 3.156 4.154 11.897c-7.43 8.591-1.424 16.43 1.663 17.588 3.087 1.158 13.3-2.419 15.248-4.276 1.307-1.246 2.481-2.924-.397-6.167-3.113-3.506-.7-9.406 16.978-9.406 17.677 0 20.091 5.9 16.978 9.406-2.878 3.243-1.703 4.92-.397 6.167 1.949 1.857 12.16 5.434 15.248 4.276 3.087-1.159 9.094-8.997 1.663-17.588" fill="#81BDB5" mask="url(#d)"/></g><mask id="f" fill="#fff"><use xlink:href="#e"/></mask><path fill="#81BDB5" mask="url(#f)" d="M23.854 48.562h8.96v-8.965h-8.96zm14.959 0h8.96v-8.965h-8.96zm14.069 0h8.959v-8.965h-8.96zM23.854 64.054h8.96v-8.967h-8.96zm0 15.49h8.96v-8.966h-8.96zm14.959-15.49h8.96v-8.967h-8.96z"/><path d="M71.02 12.368C63.46 3.627 52.79.47 37.527.47 22.265.47 11.595 3.627 4.036 12.368c-7.43 8.59-1.424 16.429 1.663 17.587 3.087 1.159 13.3-2.418 15.248-4.275 1.306-1.246 2.48-2.925-.397-6.167-3.114-3.507-.7-9.406 16.978-9.406 17.677 0 20.09 5.9 16.977 9.406-2.878 3.242-1.702 4.92-.397 6.167 1.95 1.857 12.161 5.434 15.248 4.275 3.087-1.158 9.095-8.996 1.663-17.587zM18.088 43.842h8.96v-8.966h-8.96zm14.96 0h8.96v-8.966h-8.96zm14.068 0h8.96v-8.966h-8.96zM18.088 59.333h8.96v-8.967h-8.96zm0 15.49h8.96v-8.965h-8.96zm14.96-15.49h8.96v-8.967h-8.96z" stroke="#FEFEFE" mask="url(#f)"/></g><g transform="translate(194 108)" mask="url(#b)"><g transform="translate(17.647 16.222)"><mask id="h" fill="#fff"><use xlink:href="#g"/></mask><path d="M222.306 37.178C198.682 9.864 165.338-.002 117.644-.002S36.606 9.865 12.982 37.179c-23.22 26.847-4.45 51.341 5.197 54.962 9.647 3.62 41.562-7.559 47.65-13.362 4.083-3.894 7.753-9.138-1.24-19.27-9.73-10.96-2.186-29.394 53.055-29.394S180.43 48.549 170.7 59.508c-8.994 10.132-5.32 15.376-1.241 19.27 6.091 5.803 38.003 16.983 47.65 13.362 9.647-3.62 28.42-28.115 5.197-54.962" fill="#81BDB5" mask="url(#h)"/></g><mask id="j" fill="#fff"><use xlink:href="#i"/></mask><path fill="#81BDB5" mask="url(#j)" d="M74.544 151.758h28V123.74h-28zm46.747 0h28V123.74h-28zm43.965 0h27.997V123.74h-27.997zM74.544 200.17h28v-28.024h-28zm0 48.405h28v-28.017h-28zm46.747-48.405h28v-28.024h-28z"/><path d="M221.935 38.649c-23.623-27.315-56.967-37.18-104.661-37.18-47.695 0-81.039 9.865-104.662 37.18-23.22 26.847-4.45 51.341 5.197 54.962 9.647 3.62 41.562-7.56 47.65-13.362 4.082-3.894 7.753-9.138-1.241-19.27-9.73-10.96-2.186-29.395 53.056-29.395 55.24 0 62.785 18.435 53.055 29.394-8.994 10.133-5.32 15.377-1.24 19.27 6.09 5.804 38.002 16.983 47.65 13.363 9.646-3.621 28.42-28.115 5.196-54.962zM56.526 137.005h28v-28.018h-28zm46.748 0h28v-28.018h-28zm43.964 0h27.997v-28.018h-27.997zm-90.712 48.411h28v-28.023h-28zm0 48.406h28v-28.017h-28zm46.748-48.406h28v-28.023h-28z" stroke="#FEFEFE" mask="url(#j)"/></g></g></svg>