<svg width="1114" height="517" viewBox="0 -1 1114 517" xmlns="http://www.w3.org/2000/svg"><g fill="none" fill-rule="evenodd"><path fill="#81BDB5" d="M113.805 432.065l-46.088 18.417-46.087-18.417 46.087-18.419zM72.847 458.072V515l46.088-18.419v-56.926zM16.5 496.582L62.59 515v-56.928L16.5 439.655z"/><path stroke="#FEFEFE" stroke-linecap="round" stroke-linejoin="round" d="M28.436 427.222l23.447 9.458 51.205-20.465-51.205-20.464-51.21 20.464 14.776 5.648"/><path stroke="#FEFEFE" stroke-linecap="round" stroke-linejoin="round" d="M66.45 401.482l-51 20.38v25.556l5.924-4.434 7.062 10.902v-26.664l51.21-20.463z"/><path stroke="#FEFEFE" stroke-linecap="round" stroke-linejoin="round" d="M103.088 416.215v63.252L51.882 499.93.674 479.467v-63.252M51.882 499.93v-63.25"/><g><path fill="#81BDB5" d="M1089.533 151.438l-213.637 76.737-213.632-76.738 213.632-76.743zM899.674 259.8V497l213.638-76.744V183.062zM638.483 420.258l213.644 76.744v-237.2l-213.644-76.738z"/><path stroke="#FEFEFE" stroke-linecap="round" stroke-linejoin="round" d="M693.811 131.259L802.5 170.665l237.356-85.269L802.499.127l-237.375 85.27 68.487 23.53"/><path stroke="#FEFEFE" stroke-linecap="round" stroke-linejoin="round" d="M870.026 24.008l-236.412 84.919v106.481l27.462-18.475 32.738 45.425v-111.1l237.381-85.262z"/><path stroke="#FEFEFE" stroke-linecap="round" stroke-linejoin="round" d="M1039.856 85.397v263.55L802.494 434.21l-237.369-85.262V85.397M802.497 434.207V170.663"/></g></g></svg>