<svg width="165" height="164" viewBox="-1 0 165 164" xmlns="http://www.w3.org/2000/svg"><g fill="none" fill-rule="evenodd" stroke="#3D9B8E"><path d="M61.227 98.438h86.427v-50H61.227zM.274 37.465H20.64v-3.88H.274z"/><path d="M.274 37.465H20.64V.785H.274zm7.791-1.939h4.78"/><path d="M.274 3.453H20.64V.785H.274zM.273 162.576h33.884v-52.4H.273z"/><path d="M.273 162.575h33.884v-6.022H.273zm13.529-3.01h6.827M.273 113.789h33.884v-3.614H.273zM89.785 6.638h9.818V.785h-9.818zm0 8.415h9.818V9.201h-9.818zm0 8.416h9.818v-5.853h-9.818z"/><path d="M68.562 6.638h31.041V.785H68.562zm0 8.415h31.041V9.199H68.562zm0 8.416h31.041v-5.854H68.562zm2.396-19.757h8.777m17.635 0h-2.11m-1.118 0H92.03m-21.072 8.415h8.777m17.635 0h-2.11m-1.118 0H92.03m-21.072 8.414h8.777m17.635 0h-2.11m-1.118 0H92.03m-9.56 122.494v6.53H58.572v-6.53"/><path d="M76.7 133.847l-6.18-6.178-6.179 6.178h3.223v11.523h5.911v-11.523zM56.55 16.301v6.53H32.653v-6.53"/><path d="M38.422 12.309l6.179 6.179 6.179-6.18h-3.222V.787h-5.912V12.31zm73.193 18.469h46.323V.786h-46.323z"/><path d="M111.615 5.926h46.323V.785h-46.323zm5.321 24.852v5.32h46.325V6.109h-5.322v24.67zM147.753 3.2h2.743m-36.646 0h2.745m36.364 0h2.745"/><path d="M157.939 10.922h5.322V6.108h-5.322zm-51.055 138.692v-31.25h43.46v24.657l-6.595 6.593z"/><path d="M143.749 143.02v6.594l6.596-6.593z"/><path d="M162.67 155.346v-24.657h-12.325v12.332l-6.596 6.593h-24.54v12.326h36.864z"/><path d="M156.073 155.346v6.594l6.597-6.594zM27.584 59.938c0 1.548-6.039 2.803-13.49 2.803-7.451 0-13.492-1.255-13.492-2.803 0-1.547 6.041-2.803 13.492-2.803 7.451 0 13.49 1.256 13.49 2.803zm-13.49 9.488c-7.451 0-13.492-1.255-13.492-2.803v3.805c0 1.547 6.04 2.803 13.492 2.803 7.45 0 13.49-1.256 13.49-2.803v-3.805c0 1.548-6.04 2.803-13.49 2.803z"/><path d="M25.648 65.183c-2.36.815-6.645 1.36-11.554 1.36-4.912 0-9.195-.545-11.556-1.36-1.221.42-1.936.913-1.936 1.44 0 1.548 6.04 2.803 13.492 2.803 7.45 0 13.49-1.255 13.49-2.803 0-.527-.715-1.02-1.936-1.44zM14.094 76.112c-7.451 0-13.492-1.254-13.492-2.803v3.805c0 1.547 6.04 2.803 13.492 2.803 7.45 0 13.49-1.256 13.49-2.803v-3.805c0 1.549-6.04 2.803-13.49 2.803z"/><path d="M25.648 71.87c-2.36.813-6.645 1.36-11.554 1.36-4.912 0-9.195-.547-11.556-1.36-1.221.42-1.936.911-1.936 1.438 0 1.55 6.04 2.803 13.492 2.803 7.45 0 13.49-1.254 13.49-2.803 0-.527-.715-1.019-1.936-1.439zm-11.554-9.13C6.643 62.74.602 61.487.602 59.939v3.804c0 1.548 6.04 2.803 13.492 2.803 7.45 0 13.49-1.255 13.49-2.803v-3.804c0 1.548-6.04 2.803-13.49 2.803zm50.484 32.346h79.725V51.789H64.578zm-10.853 10.096h101.429v-6.744H53.725z"/><path d="M95.03 101.76h18.821v-3.322H95.03z"/></g></svg>