<svg width="182" height="182" viewBox="0 0 182 182" xmlns="http://www.w3.org/2000/svg" xmlns:xlink="http://www.w3.org/1999/xlink"><defs><path id="a" d="M0 181.097h181.097V0H0z"/></defs><g fill="none" fill-rule="evenodd"><path stroke="#3D9B8E" d="M80.374 72.131l-2.221 4.604-2.222-4.604v-44.21h4.443z"/><path stroke="#3D9B8E" d="M80.374 72.131l-1.617-1.336-2.826 1.336m2.826-1.336V34.916m1.617 0h-4.443"/><path stroke="#3D9B8E" stroke-linecap="round" stroke-linejoin="round" d="M75.931 32.444h4.443v-4.523h-4.443z"/><path stroke="#3D9B8E" d="M73.279 91.39h12.245v-5.884H73.279zm15.427-.259h-3.182v-5.368h3.184zm20.861 24.396c5.238 0 9.485-4.247 9.485-9.486a9.485 9.485 0 0 0-9.485-9.486c-3.676 0-6.855 2.093-8.43 5.149h-3.275v8.674h3.274c1.576 3.055 4.755 5.149 8.431 5.149z"/><mask id="b" fill="#fff"><use xlink:href="#a"/></mask><path stroke="#3D9B8E" mask="url(#b)" d="M95.338 110.377h2.524v-8.674h-2.524z"/><path stroke="#3D9B8E" stroke-linecap="round" stroke-linejoin="round" mask="url(#b)" d="M92.816 110.377h2.522v-8.674h-2.522z"/><path stroke="#3D9B8E" mask="url(#b)" d="M90.291 110.377h2.524v-8.674h-2.524z"/><path d="M90.291 109.114c-.991 0-1.796-1.376-1.796-3.073 0-1.698.805-3.073 1.796-3.073v6.146z" stroke="#3D9B8E" stroke-linecap="round" stroke-linejoin="round" mask="url(#b)"/><path d="M153.55 139.756c3.85-1.1 6.418-3.916 5.738-6.294-.676-2.374-4.347-3.409-8.197-2.31-3.848 1.1-6.418 3.917-5.736 6.294.677 2.374 4.345 3.41 8.195 2.31zm.29-.084l-30.952 8.807m30.662-.938c3.85 1.101 6.418 3.916 5.738 6.294-.678 2.375-4.35 3.41-8.197 2.31-3.848-1.1-6.418-3.917-5.736-6.293.677-2.375 4.345-3.41 8.195-2.31zm.29.084l-30.952-8.807m-19.655-10.508v12.353l-5.478-.737v-10.87z" stroke="#3D9B8E" mask="url(#b)"/><path d="M97.821 131.57l-6.58 1.25c-.325-.62-.82-1.027-1.385-1.027-.979 0-1.773 1.206-1.773 2.694 0 1.486.794 2.692 1.773 2.692.565 0 1.06-.405 1.385-1.027l6.58 1.25" stroke="#3D9B8E" mask="url(#b)"/><path stroke="#3D9B8E" stroke-linecap="round" stroke-linejoin="round" mask="url(#b)" d="M99.726 128.79l-1.97.267v10.87l1.97.262zM72.629 18.869h3.561v-3.56h-3.561zm65.711 0h3.559v-3.56h-3.559z"/><path d="M138.34 17.09H76.19" stroke="#3D9B8E" mask="url(#b)"/><path stroke="#3D9B8E" stroke-linecap="round" stroke-linejoin="round" mask="url(#b)" d="M88.495 166.071h3.559v-3.56h-3.559zm74.717 0h3.559v-3.56h-3.559z"/><path d="M163.212 164.291H92.054" stroke="#3D9B8E" mask="url(#b)"/><path stroke="#3D9B8E" stroke-linecap="round" stroke-linejoin="round" mask="url(#b)" d="M128.819 109.903h3.561v-3.561h-3.561zm28.781 0h3.56v-3.561h-3.56z"/><path d="M157.6 108.122h-25.22m-4.395 17.405h1.023a2.136 2.136 0 1 0 0-4.271h-9.555a2.136 2.136 0 1 0 0 4.272h5.792a1.07 1.07 0 0 0 0-2.137h-5.9M7.672 117.292h69.474v-10.071H7.672zm6.263.181v-3.559m3.559 3.559v-1.779m3.559 1.779v-3.559m3.559 3.559v-1.779m3.56 1.779v-3.559m3.559 3.559v-1.779m3.56 1.779v-3.559m3.559 3.559v-1.779m3.56 1.779v-3.559m3.559 3.559v-1.779m3.559 1.779v-3.559m3.559 3.559v-1.779m3.56 1.779v-3.559m3.559 3.559v-1.779m3.56 1.779v-3.559m3.559 3.559v-1.779m3.56 1.779v-3.559" stroke="#3D9B8E" mask="url(#b)"/><path stroke="#3D9B8E" stroke-linecap="round" stroke-linejoin="round" mask="url(#b)" d="M7.673 109.957h69.474v-2.736H7.673z"/><path stroke="#3D9B8E" mask="url(#b)" d="M58.901 164.934h17.71v-22.732H8.207v22.732H26.53m2.576-22.733h26.608v-11.762H29.106zm26.608 0h6.377v-5.539h-6.377zm-33.22 0h6.378v-5.539h-6.378z"/><path stroke="#3D9B8E" mask="url(#b)" d="M26.53 160.18h-8.626v-8.153h49.008v8.153h-8.01"/><path stroke="#3D9B8E" mask="url(#b)" d="M26.53 172.479h32.371v-16.377H26.53z"/><path stroke="#3D9B8E" stroke-linecap="round" stroke-linejoin="round" mask="url(#b)" d="M26.53 172.479h32.371v-3.793H26.53zM8.208 146.416H76.61v-4.215H8.208z"/><path d="M66.407 144.309h2.586m2.092 0h2.584m62.864-50.877h29.448V74.583h-29.448z" stroke="#3D9B8E" mask="url(#b)"/><path stroke="#3D9B8E" stroke-linecap="round" stroke-linejoin="round" mask="url(#b)" d="M136.533 93.432l.007-3.963 7.221-7.512 8.537 8.538 5.372-5.376 8.314 8.315z"/><path stroke="#3D9B8E" stroke-linecap="round" stroke-linejoin="round" mask="url(#b)" d="M147.422 85.62l-3.661-3.663-3.521 3.663zm12.786 2.039l-2.538-2.54-2.528 2.53v.046h5.066zm-23.675-10.711h29.451v-2.364h-29.451z"/><path stroke="#3D9B8E" mask="url(#b)" d="M7.672 87.613h49.516V12.512H7.672z"/><path stroke="#3D9B8E" mask="url(#b)" d="M57.188 17.358h4.846v75.1H12.519v-4.845m1.058-78.157V16.1m6.285-6.644V16.1m6.283-6.644V16.1m6.285-6.644V16.1m6.286-6.644V16.1m6.283-6.644V16.1m6.285-6.644V16.1M15.759 38.261h31.604m-31.604 8.737h20.924"/><path stroke="#3D9B8E" stroke-linecap="round" stroke-linejoin="round" mask="url(#b)" d="M7.672 87.613h49.516V85.22H7.672zm8.086-53.887h6.263v-6.263h-6.263z"/><path stroke="#3D9B8E" mask="url(#b)" d="M100.151 71.868l-2.223 4.604-2.22-4.604v-39.46h4.443z"/><path stroke="#3D9B8E" stroke-linecap="round" stroke-linejoin="round" mask="url(#b)" d="M95.707 32.409h4.444v-4.488h-4.444z"/><path d="M100.151 71.868h-4.444m-1.436-28.746h1.437V32.408h-1.437z" stroke="#3D9B8E" mask="url(#b)"/><path stroke="#3D9B8E" stroke-linecap="round" stroke-linejoin="round" mask="url(#b)" d="M95.707 71.867h4.444v-3.283h-4.444z"/><path stroke="#3D9B8E" mask="url(#b)" d="M119.907 75.586h-5.184l1.324-47.666h2.538z"/><path stroke="#3D9B8E" stroke-linecap="round" stroke-linejoin="round" mask="url(#b)" d="M114.723 78.455h5.184v-2.869h-5.184z"/><path stroke="#3D9B8E" mask="url(#b)" d="M119.907 78.455h-5.184l-.647 9.964h6.48zm-3.943 9.965v-3.135"/><path stroke="#3D9B8E" stroke-linecap="round" stroke-linejoin="round" mask="url(#b)" d="M118.805 35.846l-.22-7.926h-2.538l-.22 7.926z"/><path stroke="#3D9B8E" mask="url(#b)" d="M147.358 31.046h9.179V20.254h-9.179zm-9.9 30.699v-15.04l9.9-15.658h3.459l-9.9 15.659v15.038zm29.1 0v-15.04l-9.9-15.658h-3.46l9.9 15.659v15.038zm-24.816-21.817h-7.26v-1.885h8.452zm20.532 0h7.261v-1.885h-8.452z"/><path stroke="#3D9B8E" mask="url(#b)" d="M153.044 39.928h5.766l-1.194-1.885h-4.572zm-2.192 0H145.2l1.193-1.885h4.458z"/><path stroke="#3D9B8E" stroke-linecap="round" stroke-linejoin="round" mask="url(#b)" d="M150.852 41.264h2.192v-4.918h-2.192zm-.517-21.01h3.225V9.906h-3.225z"/><path d="M139.17 61.745v4.117m25.705-4.117v4.117" stroke="#3D9B8E" mask="url(#b)"/><path stroke="#3D9B8E" stroke-linecap="round" stroke-linejoin="round" mask="url(#b)" d="M163.099 61.745h3.459v-4.669h-3.459zm-25.659 0h3.459v-4.669h-3.459z"/></g></svg>