<svg width="191" height="194" viewBox="-1 -1 191 194" xmlns="http://www.w3.org/2000/svg"><g fill="none" fill-rule="evenodd"><path fill="#41A89B" d="M64.704 114.107L46.437 96.02l18.267-18.085V62.24L30.583 96.02l34.12 33.782zm59.201 0l18.267-18.086-18.267-18.085V62.24l34.121 33.782-34.12 33.782zm-43.486 31.069l39.588-97.97h-11.954l-39.588 97.97z"/><path fill="#C7DEDA" d="M44.181 36.141h10.796V29.77H44.181z"/><path stroke="#221F20" d="M44.181 36.141h10.796V29.77H44.181z"/><path fill="#C7DEDA" d="M44.181 45.302h10.796v-6.37H44.181z"/><path stroke="#221F20" d="M44.181 45.302h10.796v-6.37H44.181z"/><path fill="#C7DEDA" d="M44.181 54.463h10.796v-6.37H44.181z"/><path stroke="#221F20" d="M44.181 54.463h10.796v-6.37H44.181zm2.786 66.787h111.518v-7.34H46.967z"/><path fill="#C7DEDA" d="M92.378 117.525h20.694v-3.616H92.378z"/><path stroke="#221F20" d="M92.378 117.525h20.694v-3.616H92.378zm-33.48-7.265h87.655V63.13H58.898v47.13zm-3.685 3.648h95.024V59.48H55.213v54.428z"/><path fill="#C7DEDA" d="M165.722 103.623h22.392V99.4h-22.392z"/><g stroke="#221F20"><path d="M165.721 103.624h22.392V99.4h-22.392z"/><path d="M165.721 103.623h22.392V63.695h-22.392z"/></g><path d="M174.29 101.511h5.256" stroke="#221F20"/><path fill="#C7DEDA" d="M165.722 66.6h22.392v-2.905h-22.392z"/><path d="M165.721 66.6h22.392v-2.905h-22.392zM.495 125.674h37.253v-57.04H.495z" stroke="#221F20"/><path fill="#C7DEDA" d="M.495 125.674h37.253v-6.555H.495z"/><path stroke="#221F20" d="M.495 125.674h37.253v-6.555H.495zm14.874-3.277h7.505"/><path fill="#C7DEDA" d="M.495 72.568h37.253v-3.934H.495z"/><path stroke="#221F20" d="M.495 72.568h37.253v-3.934H.495zm20.353-36.427h34.13V29.77h-34.13zm0 9.161h34.13V38.93h-34.13zm0 9.16h34.13V48.09h-34.13zm2.634-21.506h9.649m19.389 0H50.2m-1.228 0h-2.321m-23.169 9.16h9.649m19.389 0H50.2m-1.228 0h-2.321m-23.169 9.16h9.649m19.389 0H50.2m-1.228 0h-2.321m128.873-7.536v7.108h-26.277V43.74"/><path fill="#C7DEDA" d="M169.18 33.739l-6.794-6.726-6.794 6.726h3.544v12.544h6.5V33.74z"/><path stroke="#221F20" d="M169.18 33.739l-6.794-6.726-6.794 6.726h3.544v12.544h6.5V33.74zm3 117.645v7.108h-26.277v-7.108"/><path fill="#C7DEDA" d="M152.247 147.038l6.794 6.726 6.794-6.726h-3.544v-12.544h-6.5v12.544z"/><path stroke="#221F20" d="M152.247 147.038l6.794 6.726 6.794-6.726h-3.544v-12.544h-6.5v12.544zM70.068 33.137h50.93V.49h-50.93z"/><path fill="#C7DEDA" d="M70.068 6.086h50.93V.49h-50.93z"/><path stroke="#221F20" d="M70.068 6.086h50.93V.49h-50.93zm5.852 27.051v5.793h50.93V6.283h-5.852v26.854zM109.8 3.118h3.017m-40.293 0h3.018m39.982 0h3.018"/><path fill="#C7DEDA" d="M120.998 11.524h5.852V6.283h-5.852z"/><path stroke="#221F20" d="M120.998 11.524h5.852V6.283h-5.852z"/><path d="M51.09 141.733c0 1.685-6.64 3.051-14.832 3.051-8.193 0-14.833-1.366-14.833-3.05 0-1.685 6.64-3.05 14.833-3.05 8.193 0 14.833 1.365 14.833 3.05" fill="#C7DEDA"/><path d="M51.09 141.733c0 1.685-6.64 3.051-14.832 3.051-8.193 0-14.833-1.366-14.833-3.05 0-1.685 6.64-3.05 14.833-3.05 8.193 0 14.833 1.365 14.833 3.05zm-14.832 10.329c-8.192 0-14.834-1.367-14.834-3.05v4.14c0 1.685 6.642 3.051 14.834 3.051s14.833-1.366 14.833-3.051v-4.14c0 1.683-6.64 3.05-14.833 3.05z" stroke="#221F20"/><path d="M48.962 147.443c-2.595.887-7.305 1.482-12.704 1.482-5.399 0-10.11-.595-12.704-1.482-1.343.459-2.13.994-2.13 1.569 0 1.684 6.641 3.05 14.834 3.05s14.832-1.366 14.832-3.05c0-.575-.785-1.11-2.128-1.569" fill="#C7DEDA"/><path d="M48.962 147.443c-2.595.887-7.305 1.482-12.704 1.482-5.399 0-10.11-.595-12.704-1.482-1.343.459-2.13.994-2.13 1.569 0 1.684 6.641 3.05 14.834 3.05s14.832-1.366 14.832-3.05c0-.575-.785-1.11-2.128-1.569zM36.258 159.34c-8.192 0-14.834-1.367-14.834-3.05v4.14c0 1.685 6.642 3.051 14.834 3.051s14.833-1.366 14.833-3.052v-4.14c0 1.684-6.64 3.051-14.833 3.051z" stroke="#221F20"/><path d="M48.962 154.72c-2.595.888-7.305 1.483-12.704 1.483-5.399 0-10.11-.595-12.704-1.482-1.343.458-2.13.994-2.13 1.568 0 1.685 6.641 3.051 14.834 3.051s14.832-1.366 14.832-3.05c0-.575-.785-1.11-2.128-1.57" fill="#C7DEDA"/><path d="M48.962 154.72c-2.595.888-7.305 1.483-12.704 1.483-5.399 0-10.11-.595-12.704-1.482-1.343.458-2.13.994-2.13 1.568 0 1.685 6.641 3.051 14.834 3.051s14.832-1.366 14.832-3.05c0-.575-.785-1.11-2.128-1.57zm-12.704-9.936c-8.192 0-14.834-1.366-14.834-3.05v4.14c0 1.685 6.642 3.051 14.834 3.051s14.833-1.366 14.833-3.051v-4.14c0 1.684-6.64 3.05-14.833 3.05zm70.831 47.108H80.754v-36.26h20.778l5.557 5.502z" stroke="#221F20"/><path fill="#C7DEDA" d="M101.532 161.135h5.557l-5.557-5.503z"/><path stroke="#221F20" stroke-linecap="round" stroke-linejoin="round" d="M101.532 161.135h5.557l-5.557-5.503z"/><path stroke="#221F20" d="M111.918 145.349H91.14v10.283h10.392l5.557 5.503v20.474h10.386v-30.757z"/><path fill="#C7DEDA" d="M111.918 150.852h5.557l-5.557-5.503z"/><path stroke="#221F20" stroke-linecap="round" stroke-linejoin="round" d="M111.918 150.852h5.557l-5.557-5.503z"/></g></svg>