<svg width="58" height="45" viewBox="0 -1 58 45" xmlns="http://www.w3.org/2000/svg"><g fill="none" fill-rule="evenodd"><path fill="#41A89B" d="M55.413 14.508l-21.05 6.549-21.049-6.55 21.05-6.55zm-18.706 9.248V44l21.05-6.55V17.207zM10.971 37.45l21.05 6.549V23.757l-21.05-6.55z"/><path stroke="#221F20" stroke-linecap="round" stroke-linejoin="round" d="M47.357 7.776l-23.388 7.276L.579 7.776 23.97.5z"/><path stroke="#221F20" stroke-linecap="round" stroke-linejoin="round" d="M.58 30.269l23.39 7.276 23.387-7.276V7.777l-23.388 7.276L.58 7.777z"/><path stroke="#221F20" stroke-linecap="round" stroke-linejoin="round" d="M.58 7.776v22.492l23.39 7.277V15.052z"/><path fill="#C7DEDA" d="M30.623 2.537L7.328 9.784v9.088l2.706-1.577 3.226 3.877V11.69l23.388-7.277z"/><path stroke="#221F20" stroke-linecap="round" stroke-linejoin="round" d="M30.623 2.537L7.328 9.784v9.088l2.706-1.577 3.226 3.877V11.69l23.388-7.277z"/></g></svg>