<svg width="200" height="210" viewBox="0 0 200 210" xmlns="http://www.w3.org/2000/svg" xmlns:xlink="http://www.w3.org/1999/xlink"><defs><path id="a" d="M0 208.856h199.263V.01H0z"/></defs><g fill="none" fill-rule="evenodd"><path fill="#42A99C" d="M19.043 147.523h-7.689v-51.02h11.035l7.166 36.65 6.879-36.65h10.6v51.02h-7.689v-32.06l-6.671 32.06h-6.185l-7.446-31.98zm34.867 0h7.69v-50.98h-7.69z"/><g transform="translate(0 .73)"><path d="M92.317 134.1c.054 3.553-.868 6.59-2.767 9.114-1.248 1.709-3.01 2.915-5.289 3.62-1.22.38-2.644.57-4.271.57-3.012 0-5.507-.746-7.487-2.238-1.654-1.22-2.964-2.881-3.925-4.984-.964-2.1-1.526-4.509-1.69-7.221l7.324-.53c.325 2.974 1.112 5.127 2.36 6.462.922 1.009 1.98 1.486 3.173 1.432 1.682-.054 3.024-.883 4.028-2.484.515-.788.773-1.914.773-3.38 0-2.118-.963-4.222-2.889-6.312l-6.835-6.475c-2.55-2.47-4.353-4.684-5.411-6.638-1.14-2.199-1.709-4.588-1.709-7.167 0-4.642 1.56-8.158 4.68-10.548 1.925-1.438 4.312-2.158 7.16-2.158 2.739 0 5.085.61 7.039 1.832 1.518.95 2.746 2.278 3.682 3.987.935 1.708 1.498 3.675 1.687 5.899l-7.363 1.343c-.217-2.089-.814-3.715-1.79-4.882-.706-.84-1.723-1.262-3.052-1.262-1.41 0-2.482.625-3.214 1.871-.597 1.006-.895 2.253-.895 3.744 0 2.332 1.003 4.706 3.011 7.12.759.922 1.898 2.007 3.417 3.254 1.79 1.493 2.97 2.537 3.54 3.133 1.898 1.9 3.363 3.772 4.394 5.615.488.87.88 1.669 1.18 2.4.732 1.818 1.112 3.446 1.14 4.883zm28.425 0c.054 3.553-.868 6.59-2.766 9.114-1.248 1.709-3.011 2.915-5.29 3.62-1.22.38-2.644.57-4.271.57-3.011 0-5.507-.746-7.487-2.238-1.654-1.22-2.963-2.881-3.925-4.984-.964-2.1-1.526-4.509-1.689-7.221l7.324-.53c.325 2.974 1.111 5.127 2.359 6.462.922 1.009 1.98 1.486 3.173 1.432 1.682-.054 3.025-.883 4.029-2.484.515-.788.772-1.914.772-3.38 0-2.118-.963-4.222-2.888-6.312l-6.835-6.475c-2.55-2.47-4.354-4.684-5.412-6.638-1.14-2.199-1.708-4.588-1.708-7.167 0-4.642 1.56-8.158 4.679-10.548 1.925-1.438 4.312-2.158 7.16-2.158 2.74 0 5.086.61 7.039 1.832 1.519.95 2.746 2.278 3.682 3.987.935 1.708 1.498 3.675 1.688 5.899l-7.364 1.343c-.217-2.089-.813-3.715-1.79-4.882-.705-.84-1.722-1.262-3.052-1.262-1.41 0-2.481.625-3.214 1.871-.597 1.006-.895 2.253-.895 3.744 0 2.332 1.003 4.706 3.011 7.12.759.922 1.898 2.007 3.417 3.254 1.79 1.493 2.97 2.537 3.54 3.133 1.899 1.9 3.363 3.772 4.394 5.615.49.87.881 1.669 1.18 2.4.732 1.818 1.112 3.446 1.14 4.883" fill="#42A99C"/><mask id="b" fill="#fff"><use xlink:href="#a"/></mask><path fill="#42A99C" mask="url(#b)" d="M127.128 146.793h7.69V95.815h-7.69zm30.84-39.587c0-1.22-.427-2.258-1.281-3.113-.856-.853-1.893-1.28-3.113-1.28s-2.265.427-3.133 1.28c-.868.855-1.302 1.893-1.302 3.113v27.91c0 1.222.434 2.26 1.302 3.113.868.854 1.912 1.282 3.133 1.282 1.22 0 2.257-.428 3.113-1.282.854-.854 1.28-1.891 1.28-3.113v-27.91zm-4.19-12.042c3.39 0 6.271 1.194 8.644 3.58 2.374 2.387 3.56 5.262 3.56 8.625v27.83c0 3.39-1.194 6.272-3.58 8.645-2.387 2.373-5.262 3.56-8.625 3.56-3.39 0-6.265-1.192-8.625-3.58-2.36-2.387-3.54-5.263-3.54-8.625v-27.83c0-3.39 1.193-6.272 3.58-8.645 2.387-2.374 5.249-3.56 8.585-3.56zm27.591.61l10.204 34.289v-34.29h7.69v51.02h-8.26l-10.578-32.67v32.67h-7.69v-51.02zM16.443 166.92c0 1.515.784 4.137 2.353 7.869l.972-1.216 1.015-1.34 1.622-2.149c1.19-1.568 1.785-3.028 1.785-4.38 0-1-.136-1.772-.406-2.312-.676-1.704-1.785-2.555-3.326-2.555-1.325 0-2.366.717-3.123 2.149-.595 1.136-.892 2.448-.892 3.934zm2.636 34.596c1.541 0 3.177-.973 4.908-2.92-2.083-2.677-4.177-5.948-6.287-9.815-.486.81-.973 1.65-1.46 2.514-.811 1.866-1.217 3.596-1.217 5.192 0 1.406.312 2.554.934 3.447.73 1.055 1.77 1.582 3.122 1.582zm18.738-17.197c-1.217 5.409-2.865 9.977-4.948 13.708 1.974 1.812 3.691 2.718 5.151 2.718v7.098c-2.974 0-6.043-1.352-9.207-4.056-3.028 3.191-6.273 4.786-9.734 4.786-4.002 0-7.057-1.65-9.166-4.949-1.325-2.081-1.987-4.461-1.987-7.137 0-2.623.634-5.354 1.906-8.192.216-.46.933-1.705 2.15-3.732a99.881 99.881 0 0 1 2.028-3.123l-1.582-3.61c-.758-1.676-1.272-2.866-1.541-3.569-.542-1.378-.92-2.622-1.135-3.73a18.112 18.112 0 0 1-.367-3.57c0-2.271.5-4.354 1.502-6.246 1.026-2 2.514-3.501 4.46-4.503 1.542-.837 3.245-1.256 5.11-1.256 2.083 0 3.99.52 5.72 1.561 1.73 1.042 3.056 2.482 3.975 4.32.73 1.487 1.095 3.095 1.095 4.826 0 3.056-1.068 5.962-3.204 8.72l-1.663 2.149a339.346 339.346 0 0 0-4.178 5.556 72.726 72.726 0 0 0 5.76 9.937c1.27-2.892 2.244-5.975 2.92-9.247l6.935 1.541zm17.548 23.93L46.28 157.43h8.034l6.38 39.61 6.424-39.61h8.04l-9.248 50.818zm26.2 0h7.666V157.43h-7.666zm39.423-12.655c.053 3.543-.865 6.57-2.758 9.086-1.244 1.702-3.002 2.906-5.273 3.609-1.217.378-2.636.567-4.259.567-3 0-5.488-.742-7.463-2.23-1.649-1.216-2.954-2.872-3.912-4.968-.961-2.095-1.522-4.495-1.684-7.2l7.3-.526c.324 2.962 1.108 5.109 2.353 6.44.918 1.006 1.974 1.481 3.163 1.427 1.677-.053 3.015-.88 4.015-2.476.514-.785.771-1.908.771-3.369 0-2.11-.96-4.208-2.88-6.292l-6.813-6.454c-2.542-2.463-4.34-4.668-5.394-6.617-1.136-2.193-1.704-4.574-1.704-7.144 0-4.628 1.554-8.132 4.664-10.515 1.92-1.433 4.3-2.151 7.138-2.151 2.731 0 5.07.608 7.017 1.825 1.514.947 2.738 2.272 3.671 3.975.932 1.703 1.493 3.664 1.683 5.88l-7.341 1.338c-.217-2.08-.812-3.703-1.785-4.865-.703-.84-1.717-1.259-3.042-1.259-1.406 0-2.473.623-3.203 1.865-.596 1.002-.893 2.245-.893 3.733 0 2.325 1 4.69 3.001 7.097.757.92 1.892 2.001 3.407 3.245 1.784 1.487 2.96 2.528 3.529 3.122 1.892 1.893 3.352 3.76 4.38 5.598a21.47 21.47 0 0 1 1.176 2.392c.73 1.811 1.109 3.435 1.136 4.867m6.367 12.655h7.665V157.43h-7.665zm30.743-39.463c0-1.217-.427-2.25-1.278-3.103-.852-.85-1.886-1.278-3.103-1.278-1.216 0-2.258.428-3.123 1.278-.866.852-1.299 1.886-1.299 3.103v27.822c0 1.217.433 2.251 1.3 3.103.864.851 1.906 1.278 3.122 1.278 1.217 0 2.25-.427 3.103-1.278.851-.852 1.278-1.886 1.278-3.103v-27.822zm-4.178-12.005c3.38 0 6.252 1.19 8.618 3.569 2.366 2.38 3.55 5.246 3.55 8.598v27.742c0 3.38-1.191 6.253-3.57 8.618-2.38 2.366-5.246 3.548-8.598 3.548-3.381 0-6.247-1.188-8.599-3.57-2.353-2.377-3.528-5.243-3.528-8.596v-27.742c0-3.379 1.19-6.252 3.569-8.618 2.378-2.366 5.232-3.55 8.558-3.55zm27.505.609l10.172 34.18v-34.18h7.666v50.858h-8.233l-10.545-32.568v32.568h-7.666V157.39z"/><path stroke="#221F20" mask="url(#b)" d="M11.486 140.79H3.797V89.77h11.035l7.166 36.652 6.879-36.651h10.6v51.02h-7.689v-32.06l-6.671 32.06h-6.185l-7.446-31.979zm34.868 0h7.689V89.812h-7.69zm38.406-12.692c.054 3.552-.868 6.59-2.767 9.113-1.247 1.709-3.01 2.916-5.288 3.621-1.222.38-2.645.569-4.272.569-3.01 0-5.507-.745-7.487-2.237-1.654-1.22-2.964-2.882-3.925-4.984-.964-2.102-1.526-4.509-1.69-7.222l7.324-.529c.326 2.973 1.112 5.126 2.36 6.461.922 1.01 1.98 1.487 3.173 1.432 1.682-.054 3.025-.883 4.028-2.484.515-.788.774-1.914.774-3.38 0-2.117-.964-4.222-2.89-6.31-1.518-1.44-3.797-3.599-6.835-6.476-2.55-2.471-4.353-4.684-5.411-6.639-1.14-2.199-1.709-4.587-1.709-7.166 0-4.642 1.56-8.159 4.68-10.548 1.925-1.438 4.312-2.158 7.16-2.158 2.74 0 5.086.61 7.039 1.831 1.519.95 2.746 2.28 3.682 3.987.935 1.708 1.498 3.675 1.688 5.9l-7.364 1.342c-.217-2.088-.814-3.715-1.79-4.882-.706-.84-1.723-1.262-3.052-1.262-1.41 0-2.482.625-3.214 1.872-.597 1.005-.895 2.252-.895 3.743 0 2.333 1.004 4.706 3.011 7.12.759.923 1.898 2.008 3.417 3.255 1.79 1.493 2.97 2.536 3.54 3.132 1.898 1.9 3.363 3.772 4.394 5.615.488.869.88 1.669 1.18 2.401.733 1.818 1.112 3.445 1.14 4.883zm28.425 0c.054 3.552-.868 6.59-2.766 9.113-1.248 1.709-3.011 2.916-5.29 3.621-1.22.38-2.644.569-4.271.569-3.011 0-5.507-.745-7.487-2.237-1.654-1.22-2.963-2.882-3.925-4.984-.964-2.102-1.526-4.509-1.689-7.222l7.324-.529c.325 2.973 1.111 5.126 2.359 6.461.922 1.01 1.98 1.487 3.173 1.432 1.682-.054 3.025-.883 4.028-2.484.516-.788.773-1.914.773-3.38 0-2.117-.963-4.222-2.888-6.31-1.52-1.44-3.797-3.599-6.835-6.476-2.55-2.471-4.354-4.684-5.412-6.639-1.139-2.199-1.708-4.587-1.708-7.166 0-4.642 1.559-8.159 4.679-10.548 1.925-1.438 4.312-2.158 7.16-2.158 2.74 0 5.086.61 7.039 1.831 1.519.95 2.746 2.28 3.682 3.987.936 1.708 1.498 3.675 1.688 5.9l-7.364 1.342c-.217-2.088-.814-3.715-1.79-4.882-.705-.84-1.722-1.262-3.052-1.262-1.41 0-2.481.625-3.214 1.872-.597 1.005-.895 2.252-.895 3.743 0 2.333 1.003 4.706 3.011 7.12.759.923 1.898 2.008 3.417 3.255 1.79 1.493 2.97 2.536 3.54 3.132 1.899 1.9 3.363 3.772 4.394 5.615.49.869.882 1.669 1.18 2.401.732 1.818 1.112 3.445 1.14 4.883zm6.387 12.692h7.69V89.812h-7.69zm30.838-39.586c0-1.22-.427-2.259-1.28-3.113-.856-.853-1.893-1.281-3.113-1.281s-2.265.428-3.133 1.28c-.868.855-1.302 1.894-1.302 3.114v27.91c0 1.221.434 2.259 1.302 3.112.868.855 1.913 1.282 3.133 1.282s2.257-.427 3.113-1.282c.853-.853 1.28-1.891 1.28-3.112v-27.91zm-4.19-12.042c3.39 0 6.272 1.193 8.646 3.579 2.373 2.388 3.56 5.263 3.56 8.626v27.828c0 3.392-1.194 6.274-3.58 8.646-2.388 2.374-5.263 3.56-8.626 3.56-3.39 0-6.265-1.192-8.625-3.58-2.36-2.386-3.54-5.262-3.54-8.626v-27.828c0-3.39 1.193-6.273 3.58-8.646 2.387-2.373 5.249-3.56 8.585-3.56zm27.592.608l10.204 34.29V89.77h7.69v51.02h-8.26l-10.578-32.67v32.67h-7.69V89.77zM8.886 160.918c0 1.514.784 4.137 2.353 7.868l.972-1.216 1.014-1.34 1.623-2.149c1.19-1.567 1.785-3.028 1.785-4.38 0-1-.136-1.771-.406-2.311-.676-1.705-1.785-2.556-3.326-2.556-1.324 0-2.366.717-3.124 2.149-.594 1.136-.891 2.448-.891 3.935zm2.636 34.596c1.541 0 3.177-.974 4.909-2.92-2.084-2.678-4.178-5.95-6.288-9.816-.487.81-.973 1.65-1.46 2.514-.811 1.866-1.217 3.596-1.217 5.192 0 1.406.311 2.554.934 3.447.73 1.055 1.77 1.583 3.122 1.583zm18.738-17.198c-1.217 5.409-2.866 9.978-4.948 13.709 1.974 1.812 3.691 2.717 5.151 2.717v7.098c-2.974 0-6.043-1.352-9.207-4.056-3.028 3.192-6.273 4.786-9.734 4.786-4.002 0-7.057-1.65-9.166-4.949-1.325-2.08-1.987-4.46-1.987-7.137 0-2.623.634-5.354 1.906-8.193.216-.46.933-1.704 2.15-3.73a100.757 100.757 0 0 1 2.028-3.123l-1.583-3.61c-.757-1.677-1.271-2.867-1.54-3.57-.542-1.378-.92-2.622-1.136-3.73a18.16 18.16 0 0 1-.366-3.57c0-2.271.5-4.354 1.502-6.245 1.026-2 2.514-3.501 4.46-4.503 1.542-.837 3.245-1.257 5.11-1.257 2.083 0 3.99.52 5.72 1.56 1.73 1.043 3.056 2.483 3.975 4.32.73 1.488 1.095 3.097 1.095 4.827 0 3.056-1.068 5.962-3.204 8.72l-1.663 2.15a335.33 335.33 0 0 0-4.178 5.556 72.761 72.761 0 0 0 5.76 9.936c1.27-2.892 2.244-5.975 2.92-9.247l6.935 1.54zm17.548 23.93l-9.085-50.818h8.035l6.38 39.611 6.423-39.611H67.6l-9.247 50.818zm26.2 0h7.666v-50.818h-7.666zm39.423-12.654c.054 3.542-.866 6.57-2.758 9.086-1.244 1.702-3.002 2.905-5.273 3.609-1.217.377-2.636.567-4.259.567-3 0-5.488-.743-7.462-2.23-1.65-1.217-2.954-2.873-3.914-4.969-.96-2.094-1.52-4.495-1.683-7.199l7.3-.527c.325 2.962 1.108 5.11 2.352 6.44.92 1.006 1.975 1.482 3.164 1.427 1.677-.052 3.015-.879 4.015-2.476.514-.785.771-1.907.771-3.37 0-2.109-.96-4.207-2.88-6.29l-6.813-6.454c-2.542-2.464-4.34-4.67-5.395-6.617-1.135-2.193-1.703-4.575-1.703-7.145 0-4.627 1.555-8.132 4.664-10.514 1.92-1.434 4.3-2.152 7.138-2.152 2.731 0 5.07.61 7.017 1.826 1.514.947 2.738 2.27 3.671 3.974.932 1.703 1.494 3.664 1.683 5.88l-7.341 1.339c-.217-2.08-.812-3.704-1.785-4.866-.703-.838-1.717-1.258-3.042-1.258-1.406 0-2.473.623-3.203 1.865-.596 1.001-.893 2.245-.893 3.732 0 2.325 1 4.69 3.001 7.097.757.92 1.892 2.002 3.407 3.246 1.785 1.486 2.961 2.527 3.529 3.122 1.892 1.893 3.353 3.76 4.38 5.597.487.865.879 1.662 1.176 2.392.73 1.812 1.109 3.436 1.136 4.868zm6.366 12.654h7.666v-50.818h-7.666zm30.743-39.463c0-1.217-.426-2.25-1.277-3.102-.853-.851-1.887-1.279-3.103-1.279-1.216 0-2.258.428-3.122 1.279-.867.851-1.3 1.885-1.3 3.102v27.822c0 1.217.433 2.251 1.3 3.104.864.85 1.906 1.277 3.122 1.277s2.25-.426 3.103-1.277c.851-.853 1.278-1.887 1.278-3.104v-27.822zm-4.178-12.005c3.38 0 6.253 1.19 8.62 3.57 2.365 2.38 3.549 5.246 3.549 8.598v27.74c0 3.381-1.19 6.254-3.57 8.619-2.38 2.366-5.246 3.548-8.599 3.548-3.38 0-6.245-1.188-8.597-3.569-2.353-2.378-3.53-5.245-3.53-8.597v-27.741c0-3.38 1.19-6.253 3.57-8.618 2.379-2.367 5.233-3.55 8.557-3.55zm27.506.609l10.172 34.18v-34.18h7.666v50.859h-8.233l-10.545-32.569v32.569h-7.666v-50.859z"/><path d="M168.446 49.627c0 1.031-4.026 1.868-8.99 1.868-4.967 0-8.992-.837-8.992-1.868 0-1.03 4.025-1.867 8.991-1.867 4.965 0 8.991.836 8.991 1.867" fill="#FEFEFE" mask="url(#b)"/><path d="M168.446 49.627c0 1.031-4.026 1.868-8.99 1.868-4.967 0-8.992-.837-8.992-1.868 0-1.03 4.025-1.867 8.991-1.867 4.965 0 8.991.836 8.991 1.867z" stroke="#221F20" mask="url(#b)"/><path d="M159.455 55.95c-4.966 0-8.991-.836-8.991-1.867v2.534c0 1.033 4.025 1.869 8.991 1.869 4.966 0 8.991-.836 8.991-1.869v-2.534c0 1.031-4.025 1.868-8.991 1.868" fill="#FEFEFE" mask="url(#b)"/><path d="M159.455 55.95c-4.966 0-8.991-.836-8.991-1.867v2.534c0 1.033 4.025 1.869 8.991 1.869 4.966 0 8.991-.836 8.991-1.869v-2.534c0 1.031-4.025 1.868-8.991 1.868z" stroke="#221F20" mask="url(#b)"/><path d="M167.156 53.123c-1.573.542-4.428.907-7.701.907-3.272 0-6.128-.365-7.7-.907-.815.28-1.291.608-1.291.96 0 1.03 4.025 1.868 8.99 1.868 4.967 0 8.993-.837 8.993-1.868 0-.352-.477-.68-1.291-.96" fill="#FEFEFE" mask="url(#b)"/><path d="M167.156 53.123c-1.573.542-4.428.907-7.701.907-3.272 0-6.128-.365-7.7-.907-.815.28-1.291.608-1.291.96 0 1.03 4.025 1.868 8.99 1.868 4.967 0 8.993-.837 8.993-1.868 0-.352-.477-.68-1.291-.96z" stroke="#221F20" mask="url(#b)"/><g mask="url(#b)"><path d="M168.446 71.88V58.537c0 1.031-4.026 1.868-8.99 1.868-4.967 0-8.992-.837-8.992-1.868V71.88" fill="#FEFEFE"/><path d="M168.446 71.88V58.537c0 1.031-4.026 1.868-8.99 1.868-4.967 0-8.992-.837-8.992-1.868V71.88" stroke="#221F20"/></g><path d="M167.156 57.578c-1.573.543-4.428.907-7.701.907-3.272 0-6.128-.364-7.7-.907-.815.28-1.291.61-1.291.96 0 1.031 4.025 1.868 8.99 1.868 4.967 0 8.993-.837 8.993-1.868 0-.35-.477-.68-1.291-.96" fill="#FEFEFE" mask="url(#b)"/><path d="M167.156 57.578c-1.573.543-4.428.907-7.701.907-3.272 0-6.128-.364-7.7-.907-.815.28-1.291.61-1.291.96 0 1.031 4.025 1.868 8.99 1.868 4.967 0 8.993-.837 8.993-1.868 0-.35-.477-.68-1.291-.96z" stroke="#221F20" mask="url(#b)"/><path d="M159.455 51.495c-4.966 0-8.991-.836-8.991-1.868v2.535c0 1.032 4.025 1.869 8.991 1.869 4.966 0 8.991-.837 8.991-1.87v-2.534c0 1.032-4.025 1.868-8.991 1.868" fill="#FEFEFE" mask="url(#b)"/><path d="M159.455 51.495c-4.966 0-8.991-.836-8.991-1.868v2.535c0 1.032 4.025 1.869 8.991 1.869 4.966 0 8.991-.837 8.991-1.87v-2.534c0 1.032-4.025 1.868-8.991 1.868zM69.57 71.88V59.472H34.675v12.406" stroke="#221F20" mask="url(#b)"/><path stroke="#221F20" mask="url(#b)" d="M44.424 59.473h15.397v-5.486H44.424z"/><path stroke="#221F20" mask="url(#b)" d="M59.82 59.473h2.976V56.89H59.82zm-18.37 0h2.974V56.89H41.45zM39.2 71.88v-6.623h25.846v6.622M34.677 62.64H69.57v-3.167H34.677zm30.133-1.583h1.206m.976 0h1.205M69.57 71.88V34.798h11.174v37.08M69.45 59.474h2.372M69.45 62.64h1.184m-1.184-9.632h2.372m-2.372 3.166h1.184M69.45 46.54h2.372m-2.372 3.167h1.184m-1.184-9.633h2.372M69.45 43.24h1.184m14.524 28.64V20.053h33v51.825m0-48.595h5.96V71.88M89.094 18.017v4.427m4.188-10.43v10.43M97.47 6.011v16.434M101.658.009v22.435m4.188-16.433v16.434m4.188-10.431v10.43m4.189-4.427v4.427M90.547 40.79h21.061m-21.061 5.824h13.945M90.547 34.957h21.061"/><g mask="url(#b)"><path fill="#FEFEFE" d="M124.119 71.88V39.885h18.866v31.993"/><path stroke="#221F20" d="M124.119 71.88V39.885h18.866v31.993"/></g><path fill="#FEFEFE" mask="url(#b)" d="M124.119 43.312h18.866v-3.426H124.12z"/><path stroke="#221F20" mask="url(#b)" d="M124.119 43.312h18.866v-3.426H124.12z"/><g mask="url(#b)"><path fill="#FEFEFE" d="M146.532 71.88V43.432h-3.547v28.446"/><path stroke="#221F20" d="M146.532 71.88V43.432h-3.547v28.446"/></g><g mask="url(#b)"><path d="M136.197 41.495h1.828" fill="#FEFEFE"/><path d="M136.197 41.495h1.828" stroke="#221F20"/></g><g mask="url(#b)"><path d="M125.608 41.495h1.829" fill="#FEFEFE"/><path d="M125.608 41.495h1.829" stroke="#221F20"/></g><g mask="url(#b)"><path d="M139.666 41.495h1.83" fill="#FEFEFE"/><path d="M139.666 41.495h1.83" stroke="#221F20"/></g><path fill="#FEFEFE" mask="url(#b)" d="M142.985 46.642h3.546v-3.209h-3.546z"/><path stroke="#221F20" mask="url(#b)" d="M142.985 46.642h3.546v-3.209h-3.546zM80.744 71.88V44.404h4.414v27.474"/><g mask="url(#b)"><path fill="#FEFEFE" d="M146.532 71.88l.214-12.116h3.932l-.214 12.115"/><path stroke="#221F20" d="M146.532 71.88l.214-12.116h3.932l-.214 12.115"/></g></g></g></svg>