<svg width="189" height="193" viewBox="0 0 189 193" xmlns="http://www.w3.org/2000/svg" xmlns:xlink="http://www.w3.org/1999/xlink"><defs><path id="a" d="M0 192.475h188.556V0H0z"/></defs><g fill="none" fill-rule="evenodd"><path d="M101.784 147.772h-21.09v-11.323h21.09c21.207 0 38.46-17.434 38.46-38.861 0-21.43-17.253-38.862-38.46-38.862h-21.09V47.403h21.09c27.386 0 49.665 22.513 49.665 50.185s-22.279 50.184-49.665 50.184zM43.585 46.725h-6.478v11.322h6.478v88.625h11.206V46.725z" fill="#41A89B"/><path stroke="#221F20" d="M167.398 111.26l-2.47 5.168-2.468-5.167V66.958h4.938z"/><mask id="b" fill="#fff"><use xlink:href="#a"/></mask><path fill="#C7DEDA" mask="url(#b)" d="M162.46 66.958h4.937V61.92h-4.937z"/><path stroke="#221F20" stroke-linecap="round" stroke-linejoin="round" mask="url(#b)" d="M162.46 66.958h4.937V61.92h-4.937z"/><path d="M167.398 111.26h-4.938m-1.596-32.273h1.596v-12.03h-1.596zm-13.392 32.422l-2.47 5.168-2.467-5.168V61.772h4.937z" stroke="#221F20" mask="url(#b)"/><path stroke="#221F20" mask="url(#b)" d="M147.472 111.409l-1.797-1.5-3.14 1.5m3.14-1.5V69.627m1.797-.001h-4.937"/><path fill="#C7DEDA" mask="url(#b)" d="M142.534 66.85h4.937v-5.078h-4.937z"/><path stroke="#221F20" stroke-linecap="round" stroke-linejoin="round" mask="url(#b)" d="M142.534 66.85h4.937v-5.078h-4.937z"/><path stroke="#221F20" mask="url(#b)" d="M130.983 142.693h6.537v-13.748h-6.537zm6.25-17.32v3.572h-5.965v-3.574zM28.312 32.811h77.192V21.505H28.312zm6.957.204v-3.997m3.955 3.997v-2m3.955 2v-3.997m3.955 3.997v-2m3.954 2v-3.997m3.956 3.997v-2m3.954 2v-3.997m3.955 3.997v-2m3.955 2v-3.997m3.955 3.997v-2m3.955 2v-3.997m3.954 3.997v-2m3.956 2v-3.997m3.954 3.997v-2m3.955 2v-3.997m3.955 3.997v-2m3.955 2v-3.997M14.806 68.363h10.2V56.247h-10.2zm-11 34.467V85.945l11-17.581h3.844l-11 17.58v16.886zm32.334 0V85.945l-11-17.581h-3.844l11 17.58v16.886zM8.567 78.335H.5v-2.116h9.39zm22.813 0h8.068v-2.116h-9.391z"/><path stroke="#221F20" mask="url(#b)" d="M21.124 78.335h6.406l-1.325-2.116h-5.081zm-2.436 0H12.41l1.325-2.116h4.953z"/><path fill="#C7DEDA" mask="url(#b)" d="M18.688 79.834h2.436v-5.52h-2.436z"/><path stroke="#221F20" stroke-linecap="round" stroke-linejoin="round" mask="url(#b)" d="M18.688 79.834h2.436v-5.52h-2.436z"/><path fill="#C7DEDA" mask="url(#b)" d="M18.115 56.247h3.582V44.629h-3.582z"/><path stroke="#221F20" stroke-linecap="round" stroke-linejoin="round" mask="url(#b)" d="M18.115 56.247h3.582V44.629h-3.582z"/><path d="M5.708 102.83v4.622m28.562-4.622v4.622m24.462 20.929h55.018V44.064H58.732z" stroke="#221F20" mask="url(#b)"/><path stroke="#221F20" mask="url(#b)" d="M113.75 49.504h5.385v84.317h-55.02v-5.439m1.178-87.75v7.459m6.983-7.459v7.459m6.982-7.459v7.459m6.982-7.459v7.459m6.984-7.459v7.459m6.982-7.459v7.459m6.983-7.459v7.459M67.716 72.972h35.115m-35.115 9.811h23.25m-80.86 55.797h32.721v-21.162H10.106z"/><path stroke="#221F20" stroke-linecap="round" stroke-linejoin="round" mask="url(#b)" d="M10.106 138.58l.008-4.45 8.022-8.434 9.487 9.586 5.968-6.035 9.24 9.335z"/><path d="M171.005 155.332c5.82 0 10.54-4.769 10.54-10.65 0-5.882-4.72-10.65-10.54-10.65-4.083 0-7.617 2.35-9.367 5.781h-3.64v9.737h3.64c1.75 3.432 5.284 5.782 9.367 5.782z" stroke="#221F20" mask="url(#b)"/><path stroke="#221F20" mask="url(#b)" d="M155.195 149.55h2.804v-9.737h-2.804z"/><path fill="#C7DEDA" mask="url(#b)" d="M152.391 149.55h2.804v-9.737h-2.804z"/><path stroke="#221F20" stroke-linecap="round" stroke-linejoin="round" mask="url(#b)" d="M152.391 149.55h2.804v-9.737h-2.804z"/><path stroke="#221F20" mask="url(#b)" d="M149.588 149.55h2.804v-9.737h-2.804z"/><path d="M149.588 148.132c-1.103 0-1.997-1.545-1.997-3.45 0-1.906.894-3.451 1.997-3.451v6.901z" fill="#C7DEDA" mask="url(#b)"/><path d="M149.588 148.132c-1.103 0-1.997-1.545-1.997-3.45 0-1.906.894-3.451 1.997-3.451v6.901z" stroke="#221F20" stroke-linecap="round" stroke-linejoin="round" mask="url(#b)"/><path d="M159.946 27.43c4.277-1.237 7.131-4.398 6.375-7.067-.752-2.667-4.83-3.828-9.107-2.594-4.276 1.236-7.13 4.399-6.375 7.067.753 2.666 4.83 3.827 9.107 2.593zm.323-.095l-34.393 9.888m34.07-1.053c4.277 1.236 7.131 4.398 6.375 7.067-.754 2.666-4.832 3.827-9.107 2.593-4.276-1.235-7.13-4.398-6.375-7.067.753-2.665 4.83-3.827 9.107-2.594zm.323.094l-34.393-9.887m61.426 82.68h-5.76l1.47-53.516h2.822z" stroke="#221F20" mask="url(#b)"/><path fill="#C7DEDA" mask="url(#b)" d="M181.543 112.279h5.759v-3.222h-5.759z"/><path stroke="#221F20" stroke-linecap="round" stroke-linejoin="round" mask="url(#b)" d="M181.543 112.279h5.759v-3.222h-5.759z"/><path stroke="#221F20" mask="url(#b)" d="M187.302 112.278h-5.76l-.72 11.187h7.2zm-4.38 11.188v-3.518M44.418 151.933v13.868l-6.086-.828v-12.202z"/><path d="M38.404 155.593l-7.31 1.404c-.362-.698-.913-1.155-1.54-1.155-1.088 0-1.97 1.354-1.97 3.025 0 1.67.882 3.023 1.97 3.023.627 0 1.178-.456 1.54-1.153l7.31 1.403" stroke="#221F20" mask="url(#b)"/><path fill="#C7DEDA" mask="url(#b)" d="M40.521 152.47l-2.189.301v12.203l2.189.297z"/><path stroke="#221F20" stroke-linecap="round" stroke-linejoin="round" mask="url(#b)" d="M40.521 152.47l-2.189.301v12.203l2.189.297z"/><path fill="#C7DEDA" mask="url(#b)" d="M57.95 4.502h3.955V.505H57.95z"/><path stroke="#221F20" stroke-linecap="round" stroke-linejoin="round" mask="url(#b)" d="M57.95 4.502h3.955V.505H57.95z"/><path fill="#C7DEDA" mask="url(#b)" d="M130.961 4.502h3.955V.505h-3.955z"/><path stroke="#221F20" stroke-linecap="round" stroke-linejoin="round" mask="url(#b)" d="M130.961 4.502h3.955V.505h-3.955z"/><path d="M130.96 2.503H61.906m96.261 167.889h1.137a2.386 2.386 0 0 0 2.375-2.398 2.385 2.385 0 0 0-2.375-2.397h-10.617a2.385 2.385 0 0 0-2.375 2.397c0 1.325 1.062 2.4 2.375 2.4h6.435c.654 0 1.188-.537 1.188-1.201 0-.661-.534-1.199-1.188-1.199h-6.557" stroke="#221F20" mask="url(#b)"/><path fill="#C7DEDA" mask="url(#b)" d="M28.312 24.577h77.192v-3.072H28.312z"/><path stroke="#221F20" stroke-linecap="round" stroke-linejoin="round" mask="url(#b)" d="M28.312 24.577h77.192v-3.072H28.312z"/><path fill="#C7DEDA" mask="url(#b)" d="M58.732 128.381h55.018v-2.685H58.732z"/><path stroke="#221F20" stroke-linecap="round" stroke-linejoin="round" mask="url(#b)" d="M58.732 128.381h55.018v-2.685H58.732z"/><path fill="#C7DEDA" mask="url(#b)" d="M22.206 129.808l-4.07-4.112-3.91 4.112z"/><path stroke="#221F20" stroke-linecap="round" stroke-linejoin="round" mask="url(#b)" d="M22.206 129.808l-4.07-4.112-3.91 4.112z"/><path fill="#C7DEDA" mask="url(#b)" d="M36.413 132.097l-2.821-2.85-2.81 2.84v.052h5.63z"/><path stroke="#221F20" stroke-linecap="round" stroke-linejoin="round" mask="url(#b)" d="M36.413 132.097l-2.821-2.85-2.81 2.84v.052h5.63z"/><path stroke="#221F20" mask="url(#b)" d="M114.576 183.498h19.675v-25.523H58.249v25.523h20.357m2.862-25.523h29.565V144.77H81.468zm29.565 0h7.085v-6.218h-7.085zm-36.911 0h7.086v-6.218h-7.086z"/><path stroke="#221F20" mask="url(#b)" d="M78.606 178.161h-9.583v-9.155h54.453v9.155h-8.9"/><path stroke="#221F20" mask="url(#b)" d="M78.606 191.97h35.97v-18.387h-35.97z"/><path fill="#C7DEDA" mask="url(#b)" d="M78.606 191.97h35.969v-4.259H78.606z"/><path stroke="#221F20" stroke-linecap="round" stroke-linejoin="round" mask="url(#b)" d="M78.606 191.97h35.969v-4.259H78.606z"/><path fill="#C7DEDA" mask="url(#b)" d="M58.249 162.707h76.003v-4.732H58.249z"/><path stroke="#221F20" stroke-linecap="round" stroke-linejoin="round" mask="url(#b)" d="M58.249 162.707h76.003v-4.732H58.249z"/><path d="M122.915 160.342h2.872m2.325 0h2.872" stroke="#221F20" mask="url(#b)"/><path fill="#C7DEDA" mask="url(#b)" d="M10.107 120.071h32.724v-2.653H10.107z"/><path stroke="#221F20" stroke-linecap="round" stroke-linejoin="round" mask="url(#b)" d="M10.107 120.071h32.724v-2.653H10.107z"/><path fill="#C7DEDA" mask="url(#b)" d="M67.716 67.88h6.959v-7.03h-6.959z"/><path stroke="#221F20" stroke-linecap="round" stroke-linejoin="round" mask="url(#b)" d="M67.716 67.88h6.959v-7.03h-6.959z"/><path fill="#C7DEDA" mask="url(#b)" d="M32.296 102.83h3.844v-5.242h-3.844z"/><path stroke="#221F20" stroke-linecap="round" stroke-linejoin="round" mask="url(#b)" d="M32.296 102.83h3.844v-5.242h-3.844z"/><path fill="#C7DEDA" mask="url(#b)" d="M3.786 102.83H7.63v-5.242H3.786z"/><path stroke="#221F20" stroke-linecap="round" stroke-linejoin="round" mask="url(#b)" d="M3.786 102.83H7.63v-5.242H3.786z"/><path fill="#C7DEDA" mask="url(#b)" d="M.5 78.335h3.306v-2.116H.5z"/><path stroke="#221F20" stroke-linecap="round" stroke-linejoin="round" mask="url(#b)" d="M.5 78.335h3.306v-2.116H.5z"/><path fill="#C7DEDA" mask="url(#b)" d="M36.14 78.335h3.306v-2.116H36.14z"/><path stroke="#221F20" stroke-linecap="round" stroke-linejoin="round" mask="url(#b)" d="M36.14 78.335h3.306v-2.116H36.14z"/><path fill="#C7DEDA" mask="url(#b)" d="M162.46 111.26h4.937v-3.686h-4.937z"/><path stroke="#221F20" stroke-linecap="round" stroke-linejoin="round" mask="url(#b)" d="M162.46 111.26h4.937v-3.686h-4.937z"/><path fill="#C7DEDA" mask="url(#b)" d="M186.078 64.439l-.244-8.898h-2.82l-.246 8.898z"/><path stroke="#221F20" stroke-linecap="round" stroke-linejoin="round" mask="url(#b)" d="M186.078 64.439l-.244-8.898h-2.82l-.246 8.898z"/></g></svg>