<svg width="117" height="46" viewBox="0 0 117 46" xmlns="http://www.w3.org/2000/svg" xmlns:xlink="http://www.w3.org/1999/xlink"><defs><path id="a" d="M.028 12.23h7.104V.109H.028V12.23z"/><path id="c" d="M0 44.913h116.82V0H0z"/></defs><g fill="none" fill-rule="evenodd"><path d="M21.466 15.61l3.857-2.548c-.03-.03-.057-.061-.086-.091a26.566 26.566 0 0 0-5.545-4.282c-2.568 1.106-5.362 2.334-6.594 2.96 2.892.818 5.79 2.082 8.368 3.961zm1.192 4.619a22.08 22.08 0 0 1-.657 2.629c1.503.33 2.514.68 3.108.92a22.027 22.027 0 0 0-2.451-3.55" fill="#221F20"/><path d="M12.732 13.262a23.922 23.922 0 0 1 4.866 2.139v-.006l.318.193.1.062.142.09c.14.087.28.175.415.265l.157.106c.13.086.257.173.383.261l.184.133c.113.081.226.162.336.245.075.056.148.113.222.17.094.072.188.145.28.218a21.357 21.357 0 0 1 .482.397c.101.086.201.174.301.262l.159.14.143-1.936c-2.615-1.912-5.57-3.181-8.51-3.984l.022 1.245z" fill="#221F20"/><path d="M21.549 22.762c.48-1.532.666-2.643.716-2.983-.275-.305-.56-.604-.857-.896l-.034-.033c-.11-.107-.221-.213-.334-.318a19.243 19.243 0 0 0-.91-.801 21.25 21.25 0 0 0-.413-.334l-.084-.066a20.64 20.64 0 0 0-1.649-1.154c-.114.871-.5 3.124-1.647 5.9 2.129.153 3.851.408 5.212.685m-9.241 6.016c2.19.225 4.124.537 5.815.905a24.68 24.68 0 0 0 3.28-6.474c-1.37-.279-3.11-.534-5.257-.683a26.038 26.038 0 0 1-3.838 6.252m12.963 3.8c-1.606-.796-3.875-1.671-6.959-2.371a22.216 22.216 0 0 1-4.972 4.93 27.422 27.422 0 0 1 7.97 3.334c1.283-1.029 2.79-3.607 3.961-5.893M5.764 34.387c1.34-.069 3.89-.063 6.971.61a21.71 21.71 0 0 0 5.084-4.9 51.949 51.949 0 0 0-5.876-.893 25.951 25.951 0 0 1-6.179 5.183M34.613 7.48l-4.07 2.688a27.793 27.793 0 0 1 2.475 5.053l2.533-2.845c.05-1.453-.735-3.937-.743-3.962l-.094-.296h.052a4.608 4.608 0 0 0-.153-.638m-7.601 20.61l-.064-.187c-.05-.144-.102-.289-.154-.433l-.01-.026a26.28 26.28 0 0 0-1.316-3.002c-.294-.144-1.434-.66-3.611-1.137a25.213 25.213 0 0 1-3.247 6.488c3.04.697 5.281 1.56 6.88 2.354.865-1.723 1.51-3.2 1.676-3.588l-.063-.196-.091-.273m-13.85 8.274a34.5 34.5 0 0 1 7.971 3.15l-.023-.623a26.985 26.985 0 0 0-8.054-3.348l.106.821zm14.213-7.126c-.295.67-.818 1.824-1.47 3.121 1.229.644 2.03 1.224 2.493 1.606a34.341 34.341 0 0 0-1.023-4.727m2.535-19.205c-1.86-2.852-3.684-4.356-4.296-4.814l-.454.949c1.23.973 2.553 2.764 3.697 4.56l1.053-.695zM19.717 8.174a650.128 650.128 0 0 1 4.985-2.118l.316-.661-3.462-3.739-2.911.96 2.695 2.62-.963.415.007.007-3.236 1.284c.628.239 1.522.641 2.57 1.232m.498.289a27.11 27.11 0 0 1 5.348 4.182c.052.052.101.105.153.158l1.904-1.258-3.767-4.631c-.882.373-2.202.933-3.638 1.55" fill="#221F20"/><path fill="#221F20" d="M18.383 3.007l-.074.608L20.022 5.3l.5-.215zM29.28 41.236c.977-6.228.628-11.585-1.044-16.023l-1.408 1.076c.047.113.094.227.139.34l.08.207c2.038 5.274 2.333 10.78 2.232 14.4"/><path d="M30.782 21.201l-2.187 3.66c2 5.167 2.223 11.556.655 19.099 2.233-4.406 3.321-8.924 3.776-13.002-.233-3.537-.984-6.795-2.244-9.757M5.874 35.347c.916 0 3.46.086 6.807.897l-.104-.809c-3.542-.766-6.35-.636-7.36-.55l.363.465c.069-.002.168-.003.294-.003m15.709 3.845l.022.585a33.863 33.863 0 0 1 4.318 2.918 27.604 27.604 0 0 0-4.34-3.503" fill="#221F20"/><g transform="translate(21.692 32.682)"><mask id="b" fill="#fff"><use xlink:href="#a"/></mask><path d="M6.802 1.988c-.238-.227-1.096-.984-2.807-1.88C2.842 2.359 1.355 4.903.028 6.047 2.34 7.535 4.686 9.539 6.852 12.23l.02-.163.005-.08c.013-.24.027-.488.077-.707.175-1.87.351-5.329-.152-9.293" fill="#221F20" mask="url(#b)"/></g><path d="M40.033 5.586c-.41-3.445-1.83-5.099-2.189-5.468l-4.356 1.095c.803.704 2.655 2.702 3.483 6.695l3.063-2.322z" fill="#221F20"/><path d="M32.997 1.406l-.45.43v1.12c.358.456 2.393 3.125 2.686 5.154l1.303-.021c-.865-4.278-2.968-6.224-3.539-6.683m-.349 16.674l-1.59 2.659c1.056 2.402 1.786 4.993 2.175 7.733a46.823 46.823 0 0 0-.585-10.393m-.127-.688a24.797 24.797 0 0 0-.213-1h-.806l-.063-.129a63.216 63.216 0 0 0-2.726-4.885l-2.671 1.764a26.64 26.64 0 0 1 4.785 7.085l1.694-2.835zm-8.174 1.412a20.537 20.537 0 0 0-2.688-2.474l-.15 2.01a22.616 22.616 0 0 1 4.472 6.096l.075.147a26.359 26.359 0 0 1 .487 1.036c.033.077.07.153.103.23l1.414-1.081a19.846 19.846 0 0 0-3.713-5.964" fill="#221F20"/><path d="M30.16 10.422l-1.057.697a62.202 62.202 0 0 1 2.686 4.811h.597l.284-.319a27.493 27.493 0 0 0-2.51-5.19m.392 10.265a26.074 26.074 0 0 0-4.906-7.283l-3.784 2.499a20.966 20.966 0 0 1 2.827 2.592 20.273 20.273 0 0 1 3.691 5.827l2.172-3.635zM1.003 10.447c3.06-.24 7.219-.073 11.45 1.027.878-.51 3.896-1.847 6.731-3.07-1.206-.657-2.168-1.042-2.694-1.2h-.002l-5.333-1.731-10.152 4.974z" fill="#221F20"/><path d="M.102 11.844c.745-.033 1.486-.05 2.203-.05 3.677 0 7.002.443 9.963 1.324l-.021-1.223C7.603 10.702 3.052 10.645 0 11.009l.102.835zM22.038 1.497l3.194 3.45.125-.262 3.084-1.086L26.577 0zm6.791 2.454l-2.817.993c.738.573 2.496 2.104 4.281 4.836l4.162-2.748c-.626-1.6-1.895-3.304-2.234-3.742l-3.392.661z" fill="#221F20"/><mask id="d" fill="#fff"><use xlink:href="#c"/></mask><path fill="#221F20" mask="url(#d)" d="M44.63 29.522h1.372V15.108H44.63zm5.309-10.417v1.757h.06c.336-.646.777-1.151 1.323-1.514.544-.364 1.241-.546 2.089-.546.686 0 1.309.169 1.867.505.559.337.932.848 1.12 1.534.31-.686.768-1.197 1.373-1.534a3.932 3.932 0 0 1 1.939-.505c2.3 0 3.452 1.219 3.452 3.654v7.066H61.89v-7.005c0-.861-.182-1.517-.545-1.968-.364-.45-1.003-.677-1.918-.677-.552 0-1.01.105-1.373.313-.363.21-.653.488-.868.838-.215.35-.367.75-.454 1.201a7.355 7.355 0 0 0-.131 1.403v5.895h-1.272v-7.066c0-.35-.038-.682-.111-1a2.32 2.32 0 0 0-.364-.827 1.728 1.728 0 0 0-.676-.555c-.283-.134-.626-.202-1.03-.202-.538 0-1.006.098-1.403.293-.397.195-.72.464-.969.808a3.575 3.575 0 0 0-.555 1.211 6.026 6.026 0 0 0-.182 1.524v5.814h-1.271V19.105h1.17zm16.816 0v1.757h.06c.337-.646.778-1.151 1.323-1.514.545-.364 1.241-.546 2.09-.546.685 0 1.308.169 1.867.505.558.337.931.848 1.12 1.534.31-.686.767-1.197 1.373-1.534a3.932 3.932 0 0 1 1.938-.505c2.301 0 3.452 1.219 3.452 3.654v7.066h-1.272v-7.005c0-.861-.182-1.517-.545-1.968-.364-.45-1.003-.677-1.918-.677-.552 0-1.01.105-1.373.313-.363.21-.653.488-.868.838-.215.35-.367.75-.454 1.201a7.355 7.355 0 0 0-.131 1.403v5.895h-1.272v-7.066c0-.35-.037-.682-.111-1a2.32 2.32 0 0 0-.363-.827 1.728 1.728 0 0 0-.677-.555c-.282-.134-.626-.202-1.03-.202-.538 0-1.005.098-1.402.293-.397.195-.72.464-.97.808a3.594 3.594 0 0 0-.555 1.211 6.026 6.026 0 0 0-.181 1.524v5.814h-1.272V19.105h1.17zm22.882 3.089a3.811 3.811 0 0 0-.656-1.18 3.254 3.254 0 0 0-1.03-.829 2.951 2.951 0 0 0-1.372-.313c-.525 0-.99.105-1.393.313-.404.21-.747.485-1.03.828a4.12 4.12 0 0 0-.676 1.19 5.83 5.83 0 0 0-.333 1.384h6.743a4.606 4.606 0 0 0-.253-1.393M83.34 26.08c.128.491.333.932.615 1.322.283.39.64.714 1.07.97.431.255.95.383 1.555.383.929 0 1.655-.242 2.18-.727.525-.484.889-1.13 1.09-1.938h1.272c-.27 1.185-.764 2.1-1.484 2.746-.72.646-1.74.969-3.058.969-.821 0-1.531-.145-2.13-.434a3.916 3.916 0 0 1-1.463-1.192 5.173 5.173 0 0 1-.838-1.756 7.99 7.99 0 0 1-.273-2.11c0-.686.091-1.359.273-2.018a5.39 5.39 0 0 1 .838-1.767 4.208 4.208 0 0 1 1.463-1.251c.599-.316 1.309-.475 2.13-.475.834 0 1.548.169 2.14.505a4.266 4.266 0 0 1 1.443 1.323c.37.544.636 1.17.797 1.877.162.706.23 1.423.202 2.15h-8.014c0 .458.064.932.192 1.423m10.708-6.975v2.443h.041c.323-.848.824-1.5 1.504-1.958.68-.458 1.49-.666 2.432-.626v1.271a3.84 3.84 0 0 0-1.574.233c-.472.182-.878.44-1.222.777a3.513 3.513 0 0 0-.797 1.201 4.013 4.013 0 0 0-.283 1.525v5.551h-1.271V19.105h1.17zm11.184 2.029a2.065 2.065 0 0 0-.595-.716 2.482 2.482 0 0 0-.858-.414 3.943 3.943 0 0 0-1.03-.132c-.283 0-.569.03-.858.091a2.63 2.63 0 0 0-.797.303 1.717 1.717 0 0 0-.586.555c-.148.23-.222.512-.222.848 0 .283.07.522.212.717.142.195.32.36.535.494.215.135.45.246.707.334.255.087.49.158.706.211l1.696.384a4.86 4.86 0 0 1 1.08.293c.357.141.673.326.949.555.276.23.5.512.676.848.175.336.263.733.263 1.19 0 .566-.128 1.047-.384 1.444s-.582.72-.98.97a4.164 4.164 0 0 1-1.342.534 6.936 6.936 0 0 1-1.473.162c-1.225 0-2.218-.29-2.978-.868-.76-.579-1.195-1.508-1.302-2.786h1.272c.053.861.366 1.51.939 1.948.571.437 1.281.656 2.13.656.309 0 .628-.033.958-.1a3.09 3.09 0 0 0 .919-.344c.282-.162.515-.367.696-.616.182-.249.273-.555.273-.919 0-.309-.064-.568-.192-.777a1.67 1.67 0 0 0-.515-.525 3.271 3.271 0 0 0-.737-.353 9.25 9.25 0 0 0-.837-.242l-1.636-.363a9.191 9.191 0 0 1-1.15-.374 3.656 3.656 0 0 1-.919-.525 2.2 2.2 0 0 1-.615-.767c-.149-.303-.223-.676-.223-1.12 0-.525.118-.976.354-1.353a2.76 2.76 0 0 1 .918-.909 4.273 4.273 0 0 1 1.262-.504 6.1 6.1 0 0 1 1.383-.162c.525 0 1.012.068 1.463.202.45.135.848.344 1.191.626.344.283.616.633.818 1.05.202.417.316.908.343 1.473h-1.272a2.4 2.4 0 0 0-.242-1.019m9.71 0a2.065 2.065 0 0 0-.595-.716 2.482 2.482 0 0 0-.858-.414 3.943 3.943 0 0 0-1.03-.132c-.283 0-.569.03-.858.091a2.63 2.63 0 0 0-.797.303 1.717 1.717 0 0 0-.586.555c-.148.23-.222.512-.222.848 0 .283.07.522.212.717.142.195.32.36.535.494.215.135.45.246.707.334.255.087.49.158.706.211l1.696.384a4.86 4.86 0 0 1 1.08.293c.357.141.673.326.949.555.276.23.501.512.676.848.175.336.263.733.263 1.19 0 .566-.128 1.047-.384 1.444s-.582.72-.98.97a4.164 4.164 0 0 1-1.342.534 6.936 6.936 0 0 1-1.473.162c-1.225 0-2.218-.29-2.978-.868-.76-.579-1.195-1.508-1.302-2.786h1.272c.053.861.366 1.51.939 1.948.572.437 1.281.656 2.13.656a4.8 4.8 0 0 0 .958-.1 3.09 3.09 0 0 0 .919-.344c.282-.162.515-.367.696-.616.182-.249.273-.555.273-.919 0-.309-.064-.568-.192-.777a1.67 1.67 0 0 0-.515-.525 3.271 3.271 0 0 0-.737-.353 9.25 9.25 0 0 0-.837-.242l-1.636-.363a9.191 9.191 0 0 1-1.15-.374 3.656 3.656 0 0 1-.919-.525 2.2 2.2 0 0 1-.615-.767c-.149-.303-.223-.676-.223-1.12 0-.525.118-.976.354-1.353a2.76 2.76 0 0 1 .918-.909 4.273 4.273 0 0 1 1.262-.504 6.1 6.1 0 0 1 1.383-.162c.525 0 1.012.068 1.463.202.451.135.848.344 1.192.626.343.283.615.633.817 1.05.202.417.316.908.343 1.473h-1.271a2.4 2.4 0 0 0-.243-1.019"/></g></svg>