<svg width="110" height="41" viewBox="-1 0 110 41" xmlns="http://www.w3.org/2000/svg"><g fill="none" fill-rule="evenodd"><path d="M82.825 20.67L90.905 40h5.435l12.335-31.663h-4.702L93.553 34.99 82.41 8.337h-3.96V27.33c0 4.4-3.58 7.98-7.98 7.98s-7.98-3.58-7.98-7.98v-6.657c0-6.812-5.542-12.355-12.354-12.355-4.213 0-7.936 2.124-10.166 5.353-2.232-3.229-5.955-5.353-10.168-5.353-6.812 0-12.354 5.543-12.354 12.355V40h4.375V20.673c0-4.4 3.58-7.98 7.98-7.98s7.98 3.58 7.98 7.98V40h4.374V20.673c0-4.4 3.58-7.98 7.979-7.98 4.4 0 7.98 3.58 7.98 7.98v6.657c0 6.813 5.542 12.355 12.355 12.355 6.812 0 12.354-5.542 12.354-12.355v-6.66z" fill="#969698"/><path d="M14.597 4.611l-1.35-1.35v4.631l-4.631-4.63h4.63l-1.35-1.35C9.8-.186 6.37-.186 4.273 1.912l-1.35 1.35h4.631l-4.63 4.63v-4.63l-1.35 1.35c-2.097 2.095-2.097 5.527 0 7.624l1.35 1.349v-4.63l4.63 4.63h-4.63l1.349 1.35c2.097 2.098 5.528 2.098 7.625 0l1.35-1.35H8.616l4.63-4.63v4.63l1.35-1.35c2.098-2.096 2.098-5.528 0-7.624" fill="#EA8829"/></g></svg>