<svg width="70" height="50" viewBox="0 0 70 50" xmlns="http://www.w3.org/2000/svg" xmlns:xlink="http://www.w3.org/1999/xlink"><defs><path id="a" d="M7.297.136H.369v16.19h6.928z"/></defs><g fill="none" fill-rule="evenodd"><path d="M26.518 18.922c-1.624-1.658-4.87-4.977-7.734-7.903-2.458 1.446-4.609 3.218-6.351 5.235 3.092 2.116 6.87 4.7 9.255 6.334 1.57-1.576 3.195-2.785 4.83-3.666m21.206 3.751c2.378-1.63 6.235-4.268 9.379-6.419-1.742-2.017-3.893-3.788-6.352-5.234l-7.731 7.902c1.46.765 3.847 2.618 4.704 3.75" fill="#E06E33"/><g transform="translate(30.936 .496)"><mask id="b" fill="#fff"><use xlink:href="#a"/></mask><path d="M5.096 16.26c.214.02.421.042.62.065.184-1.883 1.13-11.49 1.58-16.053a44.254 44.254 0 0 0-6.927 0l1.578 16.053a14.182 14.182 0 0 1 3.149-.065" fill="#E06E33" mask="url(#b)"/></g><path d="M17.31 29.78c-1.892.155-12.496 1.023-17.31 1.419.235 2.33.82 4.586 1.711 6.723l15.612-4.276c-.143-.87-.136-2.577-.014-3.866m36.758.224c.049.122.091.243.123.36.284 1.064.25 2.409-.07 3.606l13.75 3.843a23.484 23.484 0 0 0 1.666-6.623l-15.469-1.186" fill="#E06E33"/><path d="M24.985 31.46c.175-.103 2.324-1.73 2.518-1.924.193-.191.25-.545.32-.792.035-.117.137-.24.387-.385.414-.241 3.38-1.985 3.68-2.157.373-.213.938-.402 1.413-.213.704.274 4.576.802 5.427.726.643-.057.827-.157 1.226-.063.32.074.903.64 1.16.897.261.258 0 .384-.387.704-.386.322-8.253 5.33-8.645 5.644-.183.146-.247.023-.18-.25.075-.309 0-.512-.142-.583-.183-.091-3.163-1.796-3.55-1.924-.386-.128-.646-.257-1.096-.063-.453.191-1.55.575-1.873.64-.323.064-.43-.154-.258-.257" fill="#921A1D"/><path d="M50.668 33.32c-.492.3-1.163.962-1.486 1.282-.32.322-.837.577-1.226.386-.384-.193-.968-.258-1.29-.258-.32 0-.32-.128-.32-.448s-.841-1.155-1.293-1.091c-.45.066-.734-.44-.968-.576-.547-.32-.065-.705.325-.705.386 0 .386 0 .643-.193.26-.191 1.297-1.184 1.548-1.603.387-.642 1.1-1.86.775-2.757-.095-.27.13-.32.13-.32 1.742.512 3.37 2.365 4.066 3.847.45.961.256 1.731-.904 2.437m-7.13 4.36c-.291.19-.872.77-.938 1.219-.063.449-.703.482-1.031.51-.71.065-6-1.023-6.776-1.344-.266-.11 0-.386 0-.386.324-.192 5.68-3.59 6-3.847.323-.257.576-.182.84 0 1.033.706 2.196 1.859 2.26 3.077.016.321-.064.578-.355.77m-9.435-.78c-.322.256-.903.32-1.095.193-.194-.13-.134-.261-.714.063-1.933 1.089-7.743 1.808-8.774 1.872-1.03.064-1.226-.333-1.354-.783-.13-.447-.453-.512-.709-.384-.26.13-.517.322-1.033.322-.516 0-1.548.19-2.325 0-.773-.193-1.677-.579-2.127-.963 0 0 .062-.257.45-.257s3.227 0 3.68-.063c.45-.065.386-.128.386-.449 0-.323-.13-.385-.257-.77-.129-.384.063-.577.321-.321.257.258.838.578 1.355.642.516.064 1.55.77 1.678 1.154.13.385.322.193.776.128.451-.064 2.64-.849 3.029-1.043.386-.193.579-.459.386-.447-.555.027-2.478-.306-3.03-.562-.654-.303-2.192-1.602-2.514-1.923-.319-.314-.673-.6-.97-1.027-.311-.446-.387-3.013-.194-3.59.195-.576 1.937-3.782 2.84-4.746 1.295-1.377 6.254-4.811 10.969-4.616 4.648.192 9.678 3.27 10.648 4.744.198.306.45.578.45.9 0 .32.258 1.666.388 2.115.128.45.322.77.194 1.282-.13.514-1.353 2.18-1.936 2.501-.58.32-1.613.448-2.002.513-.387.064-.647-.066-.9.257-1.163 1.473-6.197 4.039-6.647 4.296-.452.257-.647.705-.969.962m18.371-6.08c-.252-.94-2.252-3.397-3.808-4.168-1.417-.706-1.82-1.483-2.065-2.308-.448-1.54-4.7-5.134-10.774-5.836-5.55-.641-11.527 3.508-12.776 5.194-.904 1.218-2.777 4.424-3.162 5.386-.387.96-.387 3.59-.387 4.233 0 .64.322 1.346-1.098 2.05-.773.385-2.192.514-2.902 1.092-.71.576-.322 1.025 0 1.408.322.386.644.386 1.033.706.386.323 1.096.706 1.613.706.516 0 2.193 0 2.707.257.518.256 1.454.513 2.196.513.743 0 2.71-.128 3.418-.257.711-.128 2.388-.321 3.292-.128.904.192 4.655.92 5.292 1.026 1.55.257 5.162.257 6.775 0 .762-.121 1.16-.192 1.548-.45a4.34 4.34 0 0 0 .966-.895c.196-.258.643-1.059.643-1.385 0-.771-.096-1.445-.096-1.445 1.16.45 3.794.516 4.36.327.965-.32 2.42-1.4 2.967-2.756.387-.963.516-2.309.258-3.27M6.677 48.667a1.563 1.563 0 0 0 .776.192c.339 0 .605-.076.799-.228a.744.744 0 0 0 .292-.62c0-.312-.254-.675-.762-1.087l-.005-.006a.336.336 0 0 1-.038-.028c-.736-.588-1.105-1.11-1.105-1.56 0-.208.046-.412.137-.613a1.84 1.84 0 0 1 .388-.555c.253-.247.525-.434.814-.564.29-.13.588-.194.895-.194.222 0 .388.036.499.11.111.073.166.185.166.332a.54.54 0 0 1-.055.203 2.579 2.579 0 0 1-.162.296 2.022 2.022 0 0 0-.34-.104 1.675 1.675 0 0 0-.35-.036c-.365 0-.65.081-.855.245a.81.81 0 0 0-.31.672c0 .169.043.324.127.464.082.14.24.305.47.498l.15.124c.772.648 1.159 1.197 1.159 1.646 0 .169-.031.338-.092.503a1.91 1.91 0 0 1-.275.485 2.09 2.09 0 0 1-.773.612 2.351 2.351 0 0 1-1 .216c-.242 0-.424-.043-.547-.126a.418.418 0 0 1-.186-.37c0-.074.015-.152.044-.236.03-.084.077-.175.14-.271m5.534-4.996c.125-.071.249-.124.37-.16a1.22 1.22 0 0 1 .354-.058c.151 0 .255.045.31.132.055.085.084.261.084.526 0 .117-.017.464-.048 1.04a29.27 29.27 0 0 0-.047 1.55c0 .851.121 1.452.362 1.803.242.355.649.53 1.22.53.665 0 1.145-.227 1.444-.681.299-.457.448-1.192.448-2.21 0-.636-.037-1.156-.109-1.56-.072-.403-.181-.693-.325-.873.124-.084.238-.15.342-.191a.765.765 0 0 1 .284-.066c.221 0 .373.119.454.349.08.232.121.762.121 1.592 0 1.56-.214 2.675-.642 3.343-.427.67-1.133 1.004-2.115 1.004-.81 0-1.394-.208-1.752-.626-.358-.418-.537-1.105-.537-2.063 0-.213.008-.516.023-.908.016-.392.024-.678.024-.856 0-.39-.022-.715-.065-.975a2.048 2.048 0 0 0-.2-.642m13.454 5.989c-.519-.511-1.238-1.303-2.156-2.372-.918-1.069-1.604-1.844-2.059-2.322.003 1.07.022 2.198.06 3.387.011.314.016.505.016.575 0 .28-.03.464-.089.551-.06.088-.17.131-.333.131-.105 0-.213-.02-.328-.055a1.562 1.562 0 0 1-.34-.163c.153-.262.26-.637.323-1.127s.094-1.355.094-2.594c0-.582-.036-.996-.108-1.24-.073-.246-.2-.415-.381-.511.125-.15.236-.253.332-.32a.523.523 0 0 1 .29-.094c.09 0 .18.029.268.087.087.058.196.161.323.309a170.481 170.481 0 0 0 3.824 4.395c.009-.424.014-.798.02-1.122.003-.323.005-.601.005-.83 0-.757-.03-1.332-.089-1.728-.059-.397-.158-.715-.294-.954.128-.067.243-.119.347-.151a.969.969 0 0 1 .292-.049c.162 0 .274.048.335.144.062.094.091.3.091.615 0 .188-.016.648-.048 1.382a44.85 44.85 0 0 0-.049 1.93c0 .358.008.692.025 1.006.017.312.04.605.072.878l-.443.242zm3.574-.993a1.573 1.573 0 0 0 .777.192c.338 0 .604-.076.798-.228a.742.742 0 0 0 .292-.62c0-.312-.254-.675-.763-1.087l-.004-.006a.407.407 0 0 1-.038-.028c-.736-.588-1.104-1.11-1.104-1.56 0-.208.045-.412.136-.613.091-.203.22-.388.389-.555a2.79 2.79 0 0 1 .813-.564c.29-.13.588-.194.895-.194.222 0 .388.036.5.11.11.073.165.185.165.332a.53.53 0 0 1-.056.203c-.036.083-.09.183-.161.296a1.974 1.974 0 0 0-.339-.104 1.68 1.68 0 0 0-.352-.036c-.364 0-.648.081-.855.245a.812.812 0 0 0-.309.672c0 .169.043.324.126.464.084.14.241.305.472.498.033.029.083.07.149.124.772.648 1.16 1.197 1.16 1.646 0 .169-.03.338-.093.503-.06.164-.152.325-.274.485a2.088 2.088 0 0 1-.774.612 2.351 2.351 0 0 1-1 .216c-.242 0-.424-.043-.547-.126a.419.419 0 0 1-.186-.37.7.7 0 0 1 .045-.236c.03-.084.076-.175.139-.271m8.117.725a1.945 1.945 0 0 1-.388.17 1.22 1.22 0 0 1-.345.055c-.145 0-.246-.04-.305-.121-.058-.082-.087-.232-.087-.454 0-.145.015-.585.045-1.323s.044-1.403.044-1.993c0-.15-.003-.469-.012-.954a43.167 43.167 0 0 1-.005-.559h-.324c-.418 0-.755.019-1.012.055-.257.038-.455.097-.594.176a2.542 2.542 0 0 1-.146-.322.738.738 0 0 1-.046-.238c0-.127.043-.217.132-.27.087-.052.241-.078.46-.078.114 0 .439.013.977.038.536.026 1.017.038 1.444.038.515 0 .924-.02 1.23-.06.306-.04.538-.103.697-.192.057.092.099.175.125.25.027.075.04.146.04.21 0 .154-.056.268-.17.34-.113.072-.29.108-.528.108-.088 0-.301-.007-.64-.022a62.243 62.243 0 0 0-.81-.033 92.56 92.56 0 0 0-.044 1.406c-.01.439-.015.843-.015 1.213 0 .708.023 1.264.067 1.668.043.404.114.701.21.892m9.865-2.997c0-.719-.216-1.295-.647-1.726-.432-.432-1.01-.648-1.735-.648-.747 0-1.345.229-1.794.687-.45.457-.674 1.067-.674 1.829 0 .735.217 1.334.652 1.796.435.462 1 .693 1.696.693.74 0 1.342-.245 1.805-.734.465-.489.697-1.12.697-1.897m-2.608 3.338a3.37 3.37 0 0 1-1.213-.216 2.942 2.942 0 0 1-.995-.625 2.822 2.822 0 0 1-.692-1.01 3.394 3.394 0 0 1-.233-1.286c0-.464.083-.894.25-1.292.166-.398.41-.748.735-1.052a3.167 3.167 0 0 1 1.099-.678 3.92 3.92 0 0 1 1.365-.23c.963 0 1.734.272 2.314.818.579.546.87 1.27.87 2.173 0 .447-.08.868-.237 1.265-.158.396-.387.75-.688 1.06-.345.357-.73.626-1.16.804a3.64 3.64 0 0 1-1.415.269m11.323-.073c-.52-.511-1.238-1.303-2.156-2.372-.918-1.069-1.605-1.844-2.06-2.322a123.761 123.761 0 0 0 .077 3.962c0 .28-.03.464-.09.551-.059.088-.17.131-.332.131-.104 0-.214-.02-.327-.055a1.557 1.557 0 0 1-.342-.163c.154-.262.262-.637.324-1.127.063-.49.094-1.355.094-2.594 0-.582-.036-.996-.108-1.24-.073-.246-.2-.415-.382-.511.125-.15.236-.253.332-.32a.528.528 0 0 1 .29-.094c.09 0 .18.029.268.087.089.058.197.161.324.309a171.935 171.935 0 0 0 3.823 4.395 152.766 152.766 0 0 0 .027-1.952c0-.757-.03-1.332-.09-1.728-.06-.397-.158-.715-.294-.954.127-.067.243-.119.347-.151a.969.969 0 0 1 .292-.049c.162 0 .273.048.334.144.062.094.093.3.093.615 0 .188-.017.648-.05 1.382a43.845 43.845 0 0 0-.048 1.93c0 .358.009.692.025 1.006.017.312.042.605.073.878l-.444.242zm7.006-5.315a2.135 2.135 0 0 0-.548-.151 5.66 5.66 0 0 0-.815-.049 36.49 36.49 0 0 0-.969.017l-.034 1.884c.076.006.158.009.247.009h.418c.377 0 .689-.009.935-.026.246-.016.425-.043.54-.077.034.08.059.15.077.212a.616.616 0 0 1 .025.164c0 .135-.044.235-.132.293-.09.06-.234.09-.436.09-.064 0-.225-.003-.483-.01a34.558 34.558 0 0 0-.667-.007l-.328.001-.213.006c0 .322-.003.664-.01 1.026-.008.363-.018.76-.033 1.191a38.462 38.462 0 0 0 .925.018c.304 0 .563-.018.778-.053a2.17 2.17 0 0 0 .574-.173c.062.108.106.202.133.283.028.081.04.156.04.224 0 .15-.049.257-.148.317-.1.06-.289.092-.568.092-.136 0-.34-.005-.613-.013a21.996 21.996 0 0 0-.61-.012 19.607 19.607 0 0 0-1.018.025c-.1 0-.17-.023-.21-.068-.043-.045-.063-.124-.063-.24 0-.057.008-.21.022-.455.045-.88.067-1.707.067-2.477 0-.764-.013-1.375-.04-1.836-.027-.46-.068-.806-.125-1.036h.54c.666 0 1.349-.022 2.05-.064.152-.01.242-.012.274-.012.23 0 .388.025.473.076.085.051.128.141.128.272a.803.803 0 0 1-.045.25 1.85 1.85 0 0 1-.138.31" fill="#921A1D"/></g></svg>