<svg width="101" height="26" viewBox="0 0 101 26" xmlns="http://www.w3.org/2000/svg" xmlns:xlink="http://www.w3.org/1999/xlink"><defs><path id="a" d="M24.448 24.39H0V.037h24.448V24.39z"/></defs><g fill="none" fill-rule="evenodd"><path d="M31.542 8.627l-.012 4.751 4.15-4.74 4.088.01-4.637 4.933 4.65 7.964-4.088-.012-2.373-4.369c-.484-.873-.905-1.247-1.262-1.119-.358.13-.536.323-.537.58l-.005 1.795-.008 3.103-3.407-.01.045-16.677 1.752.004c.454.002.843.165 1.166.488.324.325.486.697.484 1.117l-.006 2.182zM43.317 3.9h-.594l-1.211-.005-.977-.003h-.136a.288.288 0 0 0-.286.285 20899.502 20899.502 0 0 0-.008 2.77v.136c0 .154.129.284.284.285l.593.001 1.212.003c.326 0 .652.003.977.003h.136a.29.29 0 0 0 .287-.284l.001-.59.003-1.207.003-.974v-.134a.288.288 0 0 0-.284-.286zm-3.291 4.434l3.516.01-.035 13.21-3.517-.01.036-13.21zm12.752 4.773a3.062 3.062 0 0 0-.496-1.334c-.39-.535-.994-.802-1.815-.805-1.172-.004-1.974.573-2.408 1.727-.229.611-.345 1.425-.348 2.44-.002.968.11 1.746.336 2.336.411 1.1 1.19 1.65 2.337 1.655.813 0 1.391-.215 1.734-.652.342-.434.551-.999.626-1.695l3.541.01c-.084 1.05-.469 2.043-1.153 2.979-1.092 1.508-2.706 2.26-4.841 2.253-2.136-.006-3.705-.64-4.709-1.903-1.004-1.264-1.502-2.898-1.497-4.907.006-2.266.567-4.028 1.683-5.286 1.116-1.257 2.652-1.884 4.61-1.879 1.663.005 3.025.38 4.083 1.127 1.057.746 1.68 2.061 1.87 3.944l-3.553-.01z" fill="#221E1F"/><path d="M72.496 18.07c-.5.718-1.2 1.076-2.1 1.073-1.039-.003-1.811-.376-2.316-1.122-.505-.744-.756-1.682-.753-2.814.003-.961.127-1.745.375-2.35.477-1.138 1.35-1.706 2.617-1.702 1.252.003 2.109.587 2.572 1.752.243.615.364 1.391.361 2.328-.003 1.172-.254 2.117-.756 2.834m2.595-8.04c-.99-1.255-2.361-1.884-4.116-1.89-.972-.002-1.772.197-2.402.6-.532.322-1.019.789-1.461 1.402l-.03-.613-.014-6.077-1.752.004a1.599 1.599 0 0 0-1.167.489c-.323.323-.485.696-.484 1.116l.003 1.971h-.007l-.02 6.374-4.107-4.69-4.088.012 4.637 4.932-4.651 7.963 4.088-.011 2.373-4.369c.484-.874.906-1.247 1.262-1.119.238.085.395.2.475.343l-.017 5.156 3.419.01v-.041h.08l-.004-1.522c.436.594.843 1.017 1.222 1.263.667.438 1.55.659 2.651.661 1.753.005 3.122-.665 4.103-2.012.982-1.348 1.476-3.047 1.481-5.1.006-1.98-.486-3.596-1.474-4.852" fill="#221E1F"/><path d="M85.21 18.155c.545-.717.82-1.738.823-3.06.003-1.323-.265-2.342-.807-3.058-.542-.717-1.32-1.076-2.333-1.078-1.015-.003-1.796.352-2.345 1.064-.55.713-.827 1.732-.83 3.055-.004 1.323.267 2.345.813 3.064.545.72 1.325 1.08 2.339 1.083 1.014.003 1.794-.353 2.34-1.07m2.768 1.917c-1.123 1.373-2.824 2.056-5.103 2.05-2.28-.006-3.977-.7-5.093-2.078-1.116-1.38-1.671-3.038-1.666-4.976.005-1.905.57-3.556 1.693-4.949 1.123-1.394 2.824-2.087 5.104-2.082 2.279.007 3.977.71 5.092 2.11 1.116 1.4 1.671 3.052 1.666 4.957-.005 1.939-.57 3.593-1.693 4.968" fill="#221E1F"/><path fill="#221E1F" d="M87.883 21.687l4.544-6.679L88.113 8.5l4.246.012 2.207 3.833 2.174-3.822 4.125.011-4.373 6.424L101 21.722l-4.32-.012-2.272-3.977-2.315 3.965z"/><g transform="translate(0 .573)"><mask id="b" fill="#fff"><use xlink:href="#a"/></mask><path d="M12.856 20.703c-.35.725-1.28 1.316-2.12 1.354l-.031.002-2.642-.085 9.3-19.604h4.08l-8.587 18.333zM3.47 15.76v-4.98h2.898c1.316 0 2.102.783 2.102 2.093v2.887h-5zM22.456.091A12751.026 12751.026 0 0 0 3.008.04L2.057.037C.968.034.057.937.054 2.02l-.01 4.133L.02 14.59C.015 16.857.009 19.126 0 21.394v.948c-.003 1.084.903 1.99 1.992 1.995l4.148.01 8.47.023 6.83.017.95.003c1.09.003 2-.9 2.003-1.984.004-1.377.007-2.755.012-4.132l.022-8.437a12608.744 12608.744 0 0 0 .021-7.751c.003-1.085-.903-1.991-1.992-1.994z" fill="#CBDB2B" mask="url(#b)"/></g></g></svg>