<svg width="96" height="60" viewBox="0 0 96 60" xmlns="http://www.w3.org/2000/svg" xmlns:xlink="http://www.w3.org/1999/xlink"><defs><path id="a" d="M38.312.12H.722v37.437h37.59V.12z"/><path id="c" d="M0 59.88h95.84V.938H0z"/></defs><g fill="none" fill-rule="evenodd"><g transform="translate(25.412 .818)"><mask id="b" fill="#fff"><use xlink:href="#a"/></mask><path d="M19.517 37.557C9.153 37.557.72 29.157.72 18.835.721 8.67 8.896.37 19.042.12v2.73c-8.634.25-15.581 7.324-15.581 15.985 0 8.818 7.203 15.993 16.056 15.993 8.133 0 14.987-6.061 15.942-14.101l.063-.527h-8.997v-2.73h11.787v1.365c0 10.323-8.431 18.722-18.795 18.722" fill="#515251" mask="url(#b)"/></g><path fill="#005860" d="M47.688 29.824l-9.763-10.172L47.687 9.48h3.79l-9.762 10.172 9.764 10.172z"/><path fill="#515251" d="M0 59.812v-9.49h1.247v5.247l5.066-5.262h1.343l-3.945 4.192 4.167 5.313H6.52l-3.57-4.619-1.703 1.714v2.905z"/><mask id="d" fill="#fff"><use xlink:href="#c"/></mask><path fill="#515251" mask="url(#d)" d="M9.304 59.813h1.246v-9.506H9.304zm5.122-7.256v7.255H13.18v-9.505h.97l6.091 7.405v-7.391h1.245v9.491h-1.052zm16.777-1.178h-3.392v8.434h-1.245v-8.434h-3.392v-1.073h8.03zm.955 7.497l6.34-7.497h-6.215v-1.072h7.669v.938l-6.23 7.497h6.23v1.07h-7.794zm16.902-.456c-.913.974-1.964 1.46-3.156 1.46a4.062 4.062 0 0 1-1.833-.415 4.813 4.813 0 0 1-1.455-1.1 5.134 5.134 0 0 1-.961-1.544 4.727 4.727 0 0 1-.346-1.774c0-.634.112-1.241.339-1.821a4.85 4.85 0 0 1 .948-1.533c.406-.44.886-.793 1.44-1.057a4.167 4.167 0 0 1 1.813-.395c.48 0 .919.05 1.314.153.397.104.751.247 1.06.43.309.183.577.401.803.655a4 4 0 0 1 .575.837l-.747.481c-.324-.589-.744-1.02-1.26-1.298-.516-.277-1.103-.416-1.76-.416a3.21 3.21 0 0 0-1.474.336c-.437.223-.812.52-1.121.89-.31.371-.546.794-.712 1.273-.167.477-.248.97-.248 1.477 0 .536.094 1.045.283 1.528.188.481.45.902.782 1.264.331.361.722.649 1.169.865.449.213.935.32 1.462.32a3.59 3.59 0 0 0 1.612-.381c.513-.254 1.003-.66 1.474-1.212v-1.58h-2.188v-.722h3.005v4.672h-.817V58.42zm4.057-2.945h3.21c.287 0 .548-.06.783-.18a1.84 1.84 0 0 0 .602-.49 2.411 2.411 0 0 0 .526-1.512c0-.285-.052-.56-.158-.824a2.296 2.296 0 0 0-.43-.689 2.058 2.058 0 0 0-.637-.468 1.783 1.783 0 0 0-.769-.175h-3.127v4.338zm-.969 4.337v-9.505H56.3c.424 0 .815.088 1.17.261a3.082 3.082 0 0 1 1.523 1.64c.143.358.214.72.214 1.085 0 .348-.053.681-.158.997a3.049 3.049 0 0 1-.444.857 2.64 2.64 0 0 1-.685.643 2.453 2.453 0 0 1-.9.354l2.41 3.668h-1.095l-2.311-3.506h-2.907v3.506h-.969zm9.633-4.752c0 .518.089 1.015.265 1.494.175.476.422.9.747 1.271.323.371.705.665 1.15.883a3.3 3.3 0 0 0 1.48.327c.553 0 1.057-.115 1.51-.347a3.637 3.637 0 0 0 1.148-.91c.313-.374.555-.8.726-1.273a4.21 4.21 0 0 0 .256-1.446 4.195 4.195 0 0 0-1.024-2.757 3.67 3.67 0 0 0-1.149-.876 3.27 3.27 0 0 0-1.467-.329 3.29 3.29 0 0 0-1.509.343 3.586 3.586 0 0 0-1.15.902c-.314.375-.554.8-.726 1.272a4.22 4.22 0 0 0-.257 1.445m3.642 4.821a4.28 4.28 0 0 1-1.875-.409 4.64 4.64 0 0 1-1.462-1.084 4.933 4.933 0 0 1-.941-1.546 4.958 4.958 0 0 1-.332-1.782c0-.633.118-1.239.355-1.818a4.954 4.954 0 0 1 .974-1.54 4.737 4.737 0 0 1 1.468-1.065 4.257 4.257 0 0 1 1.828-.395c.681 0 1.306.14 1.875.422a4.704 4.704 0 0 1 1.454 1.104c.4.455.713.97.933 1.546a4.855 4.855 0 0 1-.019 3.582c-.236.58-.56 1.09-.97 1.532-.41.442-.899.795-1.46 1.057a4.274 4.274 0 0 1-1.828.396m10.701-.845c.618 0 1.132-.113 1.544-.34a2.77 2.77 0 0 0 .982-.898 3.57 3.57 0 0 0 .513-1.264c.097-.474.144-.95.144-1.433v-4.794h.97V55.1c0 .643-.074 1.251-.222 1.828a4.225 4.225 0 0 1-.713 1.519 3.495 3.495 0 0 1-1.28 1.044c-.526.26-1.167.39-1.924.39-.776 0-1.429-.138-1.957-.41a3.538 3.538 0 0 1-1.283-1.077 4.266 4.266 0 0 1-.69-1.527 7.38 7.38 0 0 1-.21-1.767v-4.794h.956V55.1c0 .5.05.987.153 1.459.1.474.274.892.518 1.259.244.365.57.66.977.884.405.223.914.334 1.522.334m7.711-3.561h3.141c.287 0 .548-.06.783-.18.236-.12.436-.281.603-.483.165-.2.294-.432.386-.695.093-.263.14-.538.14-.824 0-.295-.054-.572-.16-.838a2.298 2.298 0 0 0-.429-.689 1.958 1.958 0 0 0-.637-.46 1.828 1.828 0 0 0-.768-.169h-3.06v4.338zm-.969 4.337v-9.505h4.07c.424 0 .814.088 1.169.261.355.175.663.402.921.684.258.28.461.6.609.957.146.357.221.719.221 1.084a3.134 3.134 0 0 1-.788 2.088c-.25.277-.547.5-.894.67a2.58 2.58 0 0 1-1.155.255h-3.184v3.506h-.969zm9.886-12.514h-.916v2.277H91.5v-2.277h-.916v-.288h2.168zm2.751 2.277V47.59l-.882 1.52h-.19l-.887-1.52v1.984h-.336V47.01h.355l.961 1.666.965-1.666h.35v2.565z"/></g></svg>