<svg width="133" height="19" viewBox="0 -1 133 19" xmlns="http://www.w3.org/2000/svg" xmlns:xlink="http://www.w3.org/1999/xlink"><defs><path id="a" d="M0 17.69h131.86V0H0z"/></defs><g fill="none" fill-rule="evenodd"><path fill="#55C5CE" d="M0 6.213h8.064v1.113H4.662v10.358H3.436V7.326H0zm9.651 0h6.792V7.31h-5.55v3.858h4.58v1.08h-4.58v4.338h5.55v1.099H9.65zm15.537 11.14c-.79.162-2.014.338-3.08.338-3.338 0-4.081-2.033-4.081-5.709 0-3.777.726-5.777 4.08-5.777 1.147 0 2.372.211 3.081.356L25.14 7.61c-.726-.13-2.031-.29-2.904-.29-2.482 0-2.918 1.484-2.918 4.663 0 3.112.402 4.595 2.952 4.595.904 0 2.097-.144 2.87-.29l.048 1.066z"/><path fill="#DA521E" d="M34.705 0l3.86 17.133h.627l2.469-10.92h.71l2.468 10.92h.627l2.26-10.92h.581l-2.372 11.47h-1.548l-2.37-10.68-2.373 10.68h-1.548L34.122 0z"/><mask id="b" fill="#fff"><use xlink:href="#a"/></mask><path fill="#DA521E" mask="url(#b)" d="M50.41 17.683h.582V6.213h-.581zm3.553 0V6.213h.58v10.92h5.5v.55zM65.95 6.773h-3.614v10.352h3.614c2.418 0 3.162-2.85 3.162-5.308 0-2.459-.744-5.044-3.162-5.044zm-4.193 10.91V6.213h4.193c2.84 0 3.775 2.722 3.775 5.604 0 2.884-.935 5.866-3.775 5.866h-4.193zm17.071-.319c-.806.159-1.888.319-2.983.319-3.324 0-4.017-2.142-4.017-5.687 0-3.482.58-5.782 4.017-5.782 1.129 0 2.241.16 2.983.305l-.05.559c-.692-.144-1.966-.32-2.933-.32-3.035 0-3.404 2.06-3.404 5.238 0 3.194.436 5.141 3.404 5.141 1.016 0 2.096-.156 2.934-.32l.049.547zm2.972-3.761h5.033l-2.065-6.83h-.903l-2.065 6.83zm1.663-7.39h1.71l3.467 11.47h-.58l-1.048-3.522h-5.388l-1.049 3.522h-.58l3.468-11.47zm4.988 0v.551h3.759v10.92h.581V6.764h8.806v10.92h.583V6.764h3.724v-.55zm19.153 0h6.595v.56h-6.014v4.767h5.048v.557h-5.048v5.029h6.014v.558h-6.595zm12.506.56h-3.467v5.602h3.466c2.05 0 2.744-1.18 2.744-2.884 0-1.9-.856-2.718-2.744-2.718zm-3.467 6.159v4.75h-.582V6.216h4.048c2.243 0 3.357.983 3.357 3.276 0 1.77-.661 3.032-2.34 3.357l2.548 4.835h-.661l-2.515-4.751h-3.855zm14.911-5.903s-2.21-.271-3.146-.271c-1.838 0-2.87.636-2.87 2.234 0 1.949 1 2.188 3.032 2.507 2.128.339 3.29.814 3.29 2.83 0 2.49-1.194 3.355-3.42 3.355-1.21 0-3.451-.259-3.451-.259l.063-.558s2.228.27 3.373.27c1.838 0 2.823-.765 2.823-2.76 0-1.63-.839-1.997-2.823-2.3-2.21-.338-3.502-.704-3.502-3.051 0-2.062 1.34-2.812 3.485-2.812 1.243 0 3.211.258 3.211.258l-.065.557z"/><path d="M34.146 6.94v4.58h-5.677V6.214h-1.242v11.47h1.242v-5.048h5.677v5.048h1.226v-5.175L34.146 6.94" fill="#55C5CE" mask="url(#b)"/></g></svg>