<svg width="58" height="45" viewBox="0 0 58 45" xmlns="http://www.w3.org/2000/svg"><g fill="none" fill-rule="evenodd"><path fill="#41A89B" d="M10.601 9.907v23.215h10.255L15.517 44h4.764l10.91-10.878V9.907z"/><path stroke="#221F20" d="M.5.5v23.215h10.255l-5.34 10.877h4.765l10.91-10.877V.5z"/><path fill="#C7DEDA" d="M.5 4.875h20.59V.5H.5z"/><path stroke="#221F20" stroke-linecap="round" stroke-linejoin="round" d="M.5 4.875h20.59V.5H.5z"/><path fill="#41A89B" d="M36.549 9.907v23.215h10.256L41.465 44h4.765l10.909-10.878V9.907z"/><path stroke="#221F20" d="M26.449.5v23.215h10.255l-5.34 10.877h4.765l10.91-10.877V.5z"/><path fill="#C7DEDA" d="M26.448 4.875h20.59V.5h-20.59z"/><path stroke="#221F20" stroke-linecap="round" stroke-linejoin="round" d="M26.449 4.875h20.59V.5h-20.59z"/></g></svg>